{
date = "2015-10-07 16:33:12 +0000";
familyName = "new Font";
fontMaster = (
{
ascender = 800;
capHeight = 700;
descender = -200;
guideLines = (
{
locked = 1;
position = "{70, 98}";
},
{
locked = 1;
position = "{70, 0}";
},
{
locked = 1;
position = "{76, 568}";
},
{
locked = 1;
position = "{18, -15}";
},
{
locked = 1;
position = "{5, 188}";
},
{
position = "{195, 523}";
}
);
id = "51F41761-070F-43EA-B302-C90910850260";
weightValue = 400;
xHeight = 500;
}
);
glyphs = (
{
glyphname = "hamza-ar";
lastChange = "2015-11-08 18:59:00 +0000";
layers = (
{
layerId = "51F41761-070F-43EA-B302-C90910850260";
name = Regular;
paths = (
{
closed = 1;
nodes = (
"267 101 OFFCURVE",
"258 100 OFFCURVE",
"248 98 CURVE SMOOTH",
"223 94 OFFCURVE",
"200 94 OFFCURVE",
"177 100 CURVE SMOOTH",
"148 108 OFFCURVE",
"136 118 OFFCURVE",
"136 141 CURVE",
"160 156 OFFCURVE",
"180 166 OFFCURVE",
"208 166 CURVE SMOOTH",
"226 166 OFFCURVE",
"237 163 OFFCURVE",
"245 160 CURVE",
"251 169 LINE",
"250 179 OFFCURVE",
"237 199 OFFCURVE",
"204 199 CURVE SMOOTH",
"180 199 OFFCURVE",
"157 191 OFFCURVE",
"135 173 CURVE SMOOTH",
"122 162 OFFCURVE",
"107 143 OFFCURVE",
"99 131 CURVE SMOOTH",
"96 127 OFFCURVE",
"95 123 OFFCURVE",
"95 118 CURVE SMOOTH",
"95 92 OFFCURVE",
"117 71 OFFCURVE",
"154 71 CURVE",
"121 53 OFFCURVE",
"104 42 OFFCURVE",
"82 29 CURVE SMOOTH",
"71 22 OFFCURVE",
"70 17 OFFCURVE",
"70 14 CURVE SMOOTH",
"70 11 OFFCURVE",
"73 5 OFFCURVE",
"79 0 CURVE",
"102 14 OFFCURVE",
"127 29 OFFCURVE",
"175 45 CURVE SMOOTH",
"206 55 OFFCURVE",
"225 60 OFFCURVE",
"258 63 CURVE",
"265 74 OFFCURVE",
"272 90 OFFCURVE",
"277 104 CURVE"
);
}
);
width = 337;
}
);
unicode = 0621;
},
{
glyphname = "alef-ar";
lastChange = "2015-11-08 18:59:00 +0000";
layers = (
{
anchors = (
{
name = bottom;
position = "{78, -14}";
},
{
name = top;
position = "{82, 568}";
}
);
layerId = "51F41761-070F-43EA-B302-C90910850260";
name = Regular;
paths = (
{
closed = 1;
nodes = (
"30 472 OFFCURVE",
"33 411 OFFCURVE",
"41 328 CURVE SMOOTH",
"47 268 OFFCURVE",
"54 217 OFFCURVE",
"58 189 CURVE SMOOTH",
"63 157 OFFCURVE",
"67 125 OFFCURVE",
"68 115 CURVE SMOOTH",
"71 76 OFFCURVE",
"72 28 OFFCURVE",
"70 0 CURVE",
"85 0 LINE",
"95 25 OFFCURVE",
"99 47 OFFCURVE",
"100 54 CURVE SMOOTH",
"112 125 OFFCURVE",
"122 190 OFFCURVE",
"104 403 CURVE SMOOTH",
"103 417 OFFCURVE",
"100 447 OFFCURVE",
"100 454 CURVE SMOOTH",
"100 465 OFFCURVE",
"92 517 OFFCURVE",
"93 568 CURVE",
"82 568 LINE",
"63 544 OFFCURVE",
"48 520 OFFCURVE",
"30 484 CURVE"
);
}
);
width = 154;
}
);
unicode = 0627;
},
{
glyphname = "alef-ar.fina";
lastChange = "2015-11-08 18:59:00 +0000";
layers = (
{
anchors = (
{
name = bottom;
position = "{143, -16}";
},
{
name = top;
position = "{95, 568}";
}
);
layerId = "51F41761-070F-43EA-B302-C90910850260";
name = Regular;
paths = (
{
closed = 1;
nodes = (
"197 98 LINE SMOOTH",
"169 98 OFFCURVE",
"148 106 OFFCURVE",
"134 122 CURVE SMOOTH",
"123 135 OFFCURVE",
"117 154 OFFCURVE",
"116 178 CURVE SMOOTH",
"106 568 LINE",
"95 568 LINE",
"85 554 OFFCURVE",
"58 518 OFFCURVE",
"40 488 CURVE",
"55 391 OFFCURVE",
"59 271 OFFCURVE",
"61 146 CURVE SMOOTH",
"62 102 OFFCURVE",
"73 65 OFFCURVE",
"93 38 CURVE SMOOTH",
"112 13 OFFCURVE",
"141 0 OFFCURVE",
"179 0 CURVE SMOOTH",
"242 0 LINE",
"242 98 LINE"
);
}
);
width = 242;
}
);
unicode = FE8E;
},
{
glyphname = "alef-ar.short";
lastChange = "2015-11-08 18:59:00 +0000";
layers = (
{
anchors = (
{
name = bottom;
position = "{77, -16}";
},
{
name = top;
position = "{84, 600}";
}
);
layerId = "51F41761-070F-43EA-B302-C90910850260";
name = Regular;
paths = (
{
closed = 1;
nodes = (
"30 415 OFFCURVE",
"35 362 OFFCURVE",
"45 289 CURVE SMOOTH",
"53 231 OFFCURVE",
"58 195 OFFCURVE",
"61 166 CURVE SMOOTH",
"64 138 OFFCURVE",
"67 117 OFFCURVE",
"68 101 CURVE SMOOTH",
"70 67 OFFCURVE",
"72 25 OFFCURVE",
"70 0 CURVE",
"85 0 LINE",
"92 19 OFFCURVE",
"96 34 OFFCURVE",
"100 48 CURVE SMOOTH",
"114 101 OFFCURVE",
"124 135 OFFCURVE",
"104 355 CURVE SMOOTH",
"103 367 OFFCURVE",
"100 394 OFFCURVE",
"100 399 CURVE SMOOTH",
"96 437 OFFCURVE",
"92 467 OFFCURVE",
"93 500 CURVE",
"82 500 LINE",
"63 479 OFFCURVE",
"48 458 OFFCURVE",
"30 426 CURVE"
);
}
);
width = 155;
}
);
},
{
glyphname = "alef-ar.fina.short";
lastChange = "2015-11-08 18:59:00 +0000";
layers = (
{
anchors = (
{
name = bottom;
position = "{145, -14}";
},
{
name = top;
position = "{97, 601}";
}
);
layerId = "51F41761-070F-43EA-B302-C90910850260";
name = Regular;
paths = (
{
closed = 1;
nodes = (
"197 98 LINE SMOOTH",
"169 98 OFFCURVE",
"148 106 OFFCURVE",
"134 122 CURVE SMOOTH",
"123 135 OFFCURVE",
"117 154 OFFCURVE",
"116 178 CURVE SMOOTH",
"106 499 LINE",
"95 499 LINE",
"85 485 OFFCURVE",
"58 449 OFFCURVE",
"40 419 CURVE",
"49 362 OFFCURVE",
"59 202 OFFCURVE",
"61 146 CURVE SMOOTH",
"63 102 OFFCURVE",
"73 65 OFFCURVE",
"93 38 CURVE SMOOTH",
"112 13 OFFCURVE",
"141 0 OFFCURVE",
"179 0 CURVE SMOOTH",
"242 0 LINE",
"242 98 LINE"
);
}
);
width = 242;
}
);
},
{
glyphname = "dotlessbeh-ar";
lastChange = "2015-11-08 18:59:00 +0000";
layers = (
{
anchors = (
{
name = bottom;
position = "{411, -36}";
},
{
name = top;
position = "{411, 208}";
}
);
layerId = "51F41761-070F-43EA-B302-C90910850260";
name = Regular;
paths = (
{
closed = 1;
nodes = (
"704 292 OFFCURVE",
"687 263 OFFCURVE",
"677 241 CURVE",
"702 215 OFFCURVE",
"718 192 OFFCURVE",
"733 162 CURVE",
"733 162 OFFCURVE",
"691 127 OFFCURVE",
"584 109 CURVE SMOOTH",
"537 101 OFFCURVE",
"471 95 OFFCURVE",
"396 95 CURVE SMOOTH",
"353 95 OFFCURVE",
"284 97 OFFCURVE",
"233 106 CURVE SMOOTH",
"150 120 OFFCURVE",
"104 148 OFFCURVE",
"92 222 CURVE",
"73 229 LINE",
"62 131 OFFCURVE",
"85 84 OFFCURVE",
"109 58 CURVE SMOOTH",
"136 29 OFFCURVE",
"172 16 OFFCURVE",
"233 5 CURVE SMOOTH",
"272 -2 OFFCURVE",
"315 -7 OFFCURVE",
"376 -7 CURVE SMOOTH",
"486 -7 OFFCURVE",
"581 9 OFFCURVE",
"651 38 CURVE SMOOTH",
"754 81 OFFCURVE",
"772 141 OFFCURVE",
"772 183 CURVE SMOOTH",
"772 227 OFFCURVE",
"752 274 OFFCURVE",
"720 310 CURVE"
);
}
);
width = 832;
}
);
unicode = 066E;
},
{
glyphname = "dotlessbeh-ar.fina";
lastChange = "2015-11-08 18:59:00 +0000";
layers = (
{
anchors = (
{
name = bottom;
position = "{418, -25}";
},
{
name = top;
position = "{418, 198}";
}
);
layerId = "51F41761-070F-43EA-B302-C90910850260";
name = Regular;
paths = (
{
closed = 1;
nodes = (
"724 158 OFFCURVE",
"684 117 OFFCURVE",
"554 99 CURVE SMOOTH",
"493 91 OFFCURVE",
"450 91 OFFCURVE",
"448 91 CURVE SMOOTH",
"322 91 OFFCURVE",
"248 92 OFFCURVE",
"192 110 CURVE SMOOTH",
"129 129 OFFCURVE",
"104 162 OFFCURVE",
"93 220 CURVE SMOOTH",
"74 228 LINE",
"68 191 OFFCURVE",
"65 133 OFFCURVE",
"91 87 CURVE SMOOTH",
"122 32 OFFCURVE",
"185 11 OFFCURVE",
"233 3 CURVE SMOOTH",
"269 -3 OFFCURVE",
"327 -6 OFFCURVE",
"380 -6 CURVE SMOOTH",
"490 -6 OFFCURVE",
"598 5 OFFCURVE",
"670 52 CURVE SMOOTH",
"689 64 OFFCURVE",
"706 80 OFFCURVE",
"719 98 CURVE",
"722 78 OFFCURVE",
"729 58 OFFCURVE",
"743 41 CURVE SMOOTH",
"762 17 OFFCURVE",
"795 0 OFFCURVE",
"848 0 CURVE SMOOTH",
"893 0 LINE",
"893 98 LINE",
"851 98 LINE SMOOTH",
"769 98 OFFCURVE",
"755 144 OFFCURVE",
"753 153 CURVE SMOOTH",
"753 153 OFFCURVE",
"770 175 OFFCURVE",
"777 184 CURVE",
"754 189 LINE"
);
}
);
width = 893;
}
);
},
{
glyphname = "dotlessbeh-ar.medi";
lastChange = "2015-11-08 18:59:00 +0000";
layers = (
{
anchors = (
{
name = bottom;
position = "{-3, -15}";
},
{
name = top;
position = "{-2, 188}";
}
);
layerId = "51F41761-070F-43EA-B302-C90910850260";
name = Regular;
paths = (
{
closed = 1;
nodes = (
"114 183 LINE",
"109 127 OFFCURVE",
"89 98 OFFCURVE",
"19 98 CURVE SMOOTH",
"-21 98 LINE SMOOTH",
"-48 98 OFFCURVE",
"-70 77 OFFCURVE",
"-70 50 CURVE SMOOTH",
"-70 22 OFFCURVE",
"-48 0 OFFCURVE",
"-21 0 CURVE SMOOTH",
"38 0 LINE SMOOTH",
"69 0 OFFCURVE",
"95 11 OFFCURVE",
"114 31 CURVE SMOOTH",
"133 51 OFFCURVE",
"136 68 OFFCURVE",
"139 76 CURVE",
"140 68 OFFCURVE",
"145 50 OFFCURVE",
"160 33 CURVE SMOOTH",
"176 15 OFFCURVE",
"200 0 OFFCURVE",
"244 0 CURVE SMOOTH",
"284 0 LINE",
"284 98 LINE",
"230 98 LINE SMOOTH",
"195 98 OFFCURVE",
"170 107 OFFCURVE",
"154 125 CURVE SMOOTH",
"140 141 OFFCURVE",
"134 164 OFFCURVE",
"136 195 CURVE"
);
}
);
width = 284;
}
);
},
{
glyphname = "dotlessbeh-ar.init";
lastChange = "2015-11-08 18:59:00 +0000";
layers = (
{
anchors = (
{
name = bottom;
position = "{4, -15}";
},
{
name = top;
position = "{-9, 273}";
}
);
guideLines = (
{
position = "{-1403, -55}";
}
);
layerId = "51F41761-070F-43EA-B302-C90910850260";
name = Regular;
paths = (
{
closed = 1;
nodes = (
"94 290 OFFCURVE",
"82 270 OFFCURVE",
"68 240 CURVE",
"90 215 OFFCURVE",
"109 189 OFFCURVE",
"129 158 CURVE",
"129 158 OFFCURVE",
"111 98 OFFCURVE",
"34 98 CURVE SMOOTH",
"-21 98 LINE SMOOTH",
"-50 98 OFFCURVE",
"-70 77 OFFCURVE",
"-70 50 CURVE",
"-70 22 OFFCURVE",
"-49 0 OFFCURVE",
"-21 0 CURVE",
"26 0 LINE SMOOTH",
"74 0 OFFCURVE",
"108 19 OFFCURVE",
"132 56 CURVE SMOOTH",
"153 89 OFFCURVE",
"163 132 OFFCURVE",
"163 175 CURVE SMOOTH",
"163 225 OFFCURVE",
"144 273 OFFCURVE",
"111 309 CURVE"
);
}
);
width = 223;
}
);
},
{
glyphname = "behThreedotshorizontalbelow-ar.init";
lastChange = "2015-11-08 18:59:00 +0000";
layers = (
{
anchors = (
{
name = bottom;
position = "{123, -176}";
},
{
name = top;
position = "{154, 273}";
}
);
components = (
{
name = "dots.horz.below-ar";
transform = "{1, 0, 0, 1, 119, 156}";
}
);
layerId = "51F41761-070F-43EA-B302-C90910850260";
name = Regular;
paths = (
{
closed = 1;
nodes = (
"257 290 OFFCURVE",
"245 270 OFFCURVE",
"231 240 CURVE",
"253 215 OFFCURVE",
"272 189 OFFCURVE",
"292 158 CURVE",
"292 158 OFFCURVE",
"274 98 OFFCURVE",
"197 98 CURVE SMOOTH",
"-21 98 LINE SMOOTH",
"-50 98 OFFCURVE",
"-70 77 OFFCURVE",
"-70 50 CURVE",
"-70 22 OFFCURVE",
"-49 0 OFFCURVE",
"-21 0 CURVE",
"189 0 LINE SMOOTH",
"237 0 OFFCURVE",
"271 19 OFFCURVE",
"295 56 CURVE SMOOTH",
"316 89 OFFCURVE",
"326 132 OFFCURVE",
"326 175 CURVE SMOOTH",
"326 225 OFFCURVE",
"307 273 OFFCURVE",
"274 309 CURVE"
);
}
);
width = 386;
}
);
},
{
glyphname = "behThreedotshorizontalbelow-ar.medi";
lastChange = "2015-11-08 18:59:00 +0000";
layers = (
{
anchors = (
{
name = bottom;
position = "{114, -178}";
},
{
name = top;
position = "{113, 188}";
}
);
components = (
{
name = "dots.horz.below-ar";
transform = "{1, 0, 0, 1, 113, 158}";
}
);
layerId = "51F41761-070F-43EA-B302-C90910850260";
name = Regular;
paths = (
{
closed = 1;
nodes = (
"268 183 LINE",
"263 127 OFFCURVE",
"243 98 OFFCURVE",
"173 98 CURVE SMOOTH",
"-21 98 LINE SMOOTH",
"-48 98 OFFCURVE",
"-70 77 OFFCURVE",
"-70 50 CURVE SMOOTH",
"-70 22 OFFCURVE",
"-48 0 OFFCURVE",
"-21 0 CURVE SMOOTH",
"192 0 LINE SMOOTH",
"223 0 OFFCURVE",
"249 11 OFFCURVE",
"268 31 CURVE SMOOTH",
"287 51 OFFCURVE",
"290 68 OFFCURVE",
"293 76 CURVE",
"294 68 OFFCURVE",
"299 50 OFFCURVE",
"314 33 CURVE SMOOTH",
"330 15 OFFCURVE",
"354 0 OFFCURVE",
"398 0 CURVE SMOOTH",
"438 0 LINE",
"438 98 LINE",
"384 98 LINE SMOOTH",
"349 98 OFFCURVE",
"324 107 OFFCURVE",
"308 125 CURVE SMOOTH",
"294 141 OFFCURVE",
"288 164 OFFCURVE",
"290 195 CURVE"
);
}
);
width = 438;
}
);
},
{
glyphname = "hah-ar";
lastChange = "2015-11-08 18:59:00 +0000";
layers = (
{
anchors = (
{
name = bottom;
position = "{324, 58}";
},
{
name = center;
position = "{323, -48}";
},
{
name = top;
position = "{272, 318}";
}
);
layerId = "51F41761-070F-43EA-B302-C90910850260";
name = Regular;
paths = (
{
closed = 1;
nodes = (
"510 244 OFFCURVE",
"502 244 OFFCURVE",
"494 244 CURVE SMOOTH",
"382 241 OFFCURVE",
"281 275 OFFCURVE",
"272 278 CURVE SMOOTH",
"247 286 OFFCURVE",
"227 293 OFFCURVE",
"201 293 CURVE SMOOTH",
"177 293 OFFCURVE",
"160 287 OFFCURVE",
"144 272 CURVE SMOOTH",
"129 258 OFFCURVE",
"115 240 OFFCURVE",
"93 191 CURVE",
"109 180 LINE",
"119 197 OFFCURVE",
"141 223 OFFCURVE",
"194 223 CURVE SMOOTH",
"243 223 OFFCURVE",
"298 201 OFFCURVE",
"317 194 CURVE",
"286 187 OFFCURVE",
"256 176 OFFCURVE",
"229 160 CURVE SMOOTH",
"188 137 OFFCURVE",
"151 105 OFFCURVE",
"124 66 CURVE SMOOTH",
"94 22 OFFCURVE",
"74 -32 OFFCURVE",
"71 -95 CURVE SMOOTH",
"68 -162 OFFCURVE",
"87 -220 OFFCURVE",
"121 -262 CURVE SMOOTH",
"160 -308 OFFCURVE",
"218 -336 OFFCURVE",
"289 -336 CURVE SMOOTH",
"335 -336 OFFCURVE",
"359 -324 OFFCURVE",
"384 -310 CURVE SMOOTH",
"408 -297 OFFCURVE",
"434 -284 OFFCURVE",
"479 -282 CURVE",
"484 -267 LINE",
"448 -262 OFFCURVE",
"439 -262 OFFCURVE",
"402 -259 CURVE SMOOTH",
"361 -256 OFFCURVE",
"327 -251 OFFCURVE",
"314 -249 CURVE SMOOTH",
"248 -238 OFFCURVE",
"198 -218 OFFCURVE",
"166 -183 CURVE SMOOTH",
"138 -152 OFFCURVE",
"124 -112 OFFCURVE",
"128 -57 CURVE SMOOTH",
"133 17 OFFCURVE",
"178 74 OFFCURVE",
"241 111 CURVE SMOOTH",
"312 153 OFFCURVE",
"407 171 OFFCURVE",
"494 161 CURVE",
"505 191 OFFCURVE",
"512 223 OFFCURVE",
"518 244 CURVE"
);
}
);
width = 578;
}
);
unicode = 062D;
},
{
glyphname = "hah-ar.fina";
lastChange = "2015-11-08 18:59:00 +0000";
layers = (
{
anchors = (
{
name = bottom;
position = "{305, 74}";
},
{
name = center;
position = "{300, -14}";
},
{
name = top;
position = "{271, 339}";
}
);
layerId = "51F41761-070F-43EA-B302-C90910850260";
name = Regular;
paths = (
{
closed = 1;
nodes = (
"574 98 LINE SMOOTH",
"531 98 OFFCURVE",
"500 110 OFFCURVE",
"480 129 CURVE SMOOTH",
"455 152 OFFCURVE",
"454 178 OFFCURVE",
"456 197 CURVE",
"463 198 OFFCURVE",
"485 198 OFFCURVE",
"494 196 CURVE",
"505 222 OFFCURVE",
"517 268 OFFCURVE",
"518 270 CURVE",
"510 270 OFFCURVE",
"502 270 OFFCURVE",
"494 270 CURVE SMOOTH",
"384 270 OFFCURVE",
"291 298 OFFCURVE",
"272 304 CURVE SMOOTH",
"247 312 OFFCURVE",
"227 319 OFFCURVE",
"201 319 CURVE SMOOTH",
"177 319 OFFCURVE",
"160 313 OFFCURVE",
"144 298 CURVE SMOOTH",
"129 284 OFFCURVE",
"115 266 OFFCURVE",
"93 217 CURVE",
"109 206 LINE",
"119 223 OFFCURVE",
"141 249 OFFCURVE",
"194 249 CURVE SMOOTH",
"243 249 OFFCURVE",
"292 227 OFFCURVE",
"311 220 CURVE",
"276 211 OFFCURVE",
"243 197 OFFCURVE",
"213 178 CURVE SMOOTH",
"171 151 OFFCURVE",
"135 114 OFFCURVE",
"110 69 CURVE SMOOTH",
"87 29 OFFCURVE",
"73 -18 OFFCURVE",
"71 -69 CURVE SMOOTH",
"68 -139 OFFCURVE",
"88 -200 OFFCURVE",
"128 -244 CURVE SMOOTH",
"166 -285 OFFCURVE",
"222 -310 OFFCURVE",
"289 -310 CURVE SMOOTH",
"335 -310 OFFCURVE",
"359 -298 OFFCURVE",
"384 -284 CURVE SMOOTH",
"408 -271 OFFCURVE",
"434 -258 OFFCURVE",
"479 -256 CURVE",
"484 -241 LINE",
"448 -236 OFFCURVE",
"439 -235 OFFCURVE",
"402 -233 CURVE SMOOTH",
"351 -230 OFFCURVE",
"317 -225 OFFCURVE",
"304 -223 CURVE SMOOTH",
"250 -213 OFFCURVE",
"200 -189 OFFCURVE",
"168 -152 CURVE SMOOTH",
"137 -116 OFFCURVE",
"126 -71 OFFCURVE",
"128 -31 CURVE SMOOTH",
"131 34 OFFCURVE",
"165 82 OFFCURVE",
"215 121 CURVE SMOOTH",
"271 166 OFFCURVE",
"348 189 OFFCURVE",
"423 189 CURVE",
"416 132 OFFCURVE",
"417 95 OFFCURVE",
"437 64 CURVE SMOOTH",
"462 25 OFFCURVE",
"499 0 OFFCURVE",
"563 0 CURVE SMOOTH",
"641 0 LINE",
"641 98 LINE"
);
}
);
width = 641;
}
);
unicode = FEA2;
},
{
glyphname = "hah-ar.medi";
lastChange = "2015-11-08 18:59:00 +0000";
layers = (
{
anchors = (
{
name = bottom;
position = "{153, -15}";
},
{
name = top;
position = "{163, 342}";
}
);
layerId = "51F41761-070F-43EA-B302-C90910850260";
name = Regular;
paths = (
{
closed = 1;
nodes = (
"468 257 OFFCURVE",
"458 256 OFFCURVE",
"440 256 CURVE SMOOTH",
"327 256 OFFCURVE",
"274 283 OFFCURVE",
"225 301 CURVE SMOOTH",
"190 314 OFFCURVE",
"167 322 OFFCURVE",
"143 322 CURVE SMOOTH",
"115 322 OFFCURVE",
"91 311 OFFCURVE",
"71 289 CURVE SMOOTH",
"53 269 OFFCURVE",
"38 241 OFFCURVE",
"27 205 CURVE",
"43 194 LINE",
"62 221 OFFCURVE",
"68 241 OFFCURVE",
"105 243 CURVE SMOOTH",
"175 247 OFFCURVE",
"283 201 OFFCURVE",
"311 191 CURVE",
"291 172 OFFCURVE",
"276 160 OFFCURVE",
"229 139 CURVE SMOOTH",
"188 121 OFFCURVE",
"118 98 OFFCURVE",
"26 98 CURVE SMOOTH",
"-21 98 LINE SMOOTH",
"-48 98 OFFCURVE",
"-70 76 OFFCURVE",
"-70 49 CURVE SMOOTH",
"-70 23 OFFCURVE",
"-49 0 OFFCURVE",
"-21 0 CURVE SMOOTH",
"31 0 LINE SMOOTH",
"84 0 OFFCURVE",
"133 13 OFFCURVE",
"183 38 CURVE SMOOTH",
"237 66 OFFCURVE",
"278 102 OFFCURVE",
"313 127 CURVE SMOOTH",
"332 140 OFFCURVE",
"349 151 OFFCURVE",
"365 154 CURVE",
"364 113 OFFCURVE",
"369 81 OFFCURVE",
"390 51 CURVE SMOOTH",
"414 17 OFFCURVE",
"457 0 OFFCURVE",
"507 0 CURVE SMOOTH",
"609 0 LINE",
"609 98 LINE",
"496 98 LINE SMOOTH",
"437 98 OFFCURVE",
"401 112 OFFCURVE",
"396 159 CURVE",
"401 161 OFFCURVE",
"427 164 OFFCURVE",
"441 161 CURVE",
"458 193 OFFCURVE",
"471 223 OFFCURVE",
"485 257 CURVE"
);
}
);
width = 609;
}
);
unicode = FEA4;
},
{
glyphname = "hah-ar.init";
lastChange = "2015-11-08 18:59:00 +0000";
layers = (
{
anchors = (
{
name = bottom;
position = "{172, -14}";
},
{
name = top;
position = "{162, 321}";
}
);
layerId = "51F41761-070F-43EA-B302-C90910850260";
name = Regular;
paths = (
{
closed = 1;
nodes = (
"486 229 OFFCURVE",
"475 229 OFFCURVE",
"464 229 CURVE SMOOTH",
"349 229 OFFCURVE",
"279 257 OFFCURVE",
"226 278 CURVE SMOOTH",
"194 291 OFFCURVE",
"168 301 OFFCURVE",
"142 301 CURVE SMOOTH",
"115 301 OFFCURVE",
"91 290 OFFCURVE",
"71 268 CURVE SMOOTH",
"53 248 OFFCURVE",
"38 220 OFFCURVE",
"27 184 CURVE",
"43 173 LINE",
"61 203 OFFCURVE",
"69 219 OFFCURVE",
"105 222 CURVE SMOOTH",
"166 228 OFFCURVE",
"274 182 OFFCURVE",
"313 169 CURVE SMOOTH",
"313 169 OFFCURVE",
"279 145 OFFCURVE",
"229 128 CURVE SMOOTH",
"193 116 OFFCURVE",
"117 98 OFFCURVE",
"27 98 CURVE SMOOTH",
"-21 98 LINE SMOOTH",
"-49 98 OFFCURVE",
"-70 76 OFFCURVE",
"-70 49 CURVE SMOOTH",
"-70 24 OFFCURVE",
"-52 0 OFFCURVE",
"-21 0 CURVE SMOOTH",
"32 0 LINE SMOOTH",
"132 0 OFFCURVE",
"193 36 OFFCURVE",
"252 71 CURVE SMOOTH",
"307 104 OFFCURVE",
"365 138 OFFCURVE",
"453 139 CURVE",
"471 172 OFFCURVE",
"483 196 OFFCURVE",
"497 229 CURVE"
);
}
);
width = 557;
}
);
unicode = FEA3;
},
{
glyphname = "dal-ar";
lastChange = "2015-11-08 18:59:00 +0000";
layers = (
{
anchors = (
{
name = bottom;
position = "{205, -25}";
},
{
name = top;
position = "{219, 398}";
}
);
layerId = "51F41761-070F-43EA-B302-C90910850260";
name = Regular;
paths = (
{
closed = 1;
nodes = (
"383 242 OFFCURVE",
"342 288 OFFCURVE",
"308 319 CURVE SMOOTH",
"274 349 OFFCURVE",
"237 370 OFFCURVE",
"219 378 CURVE",
"208 348 OFFCURVE",
"200 324 OFFCURVE",
"195 294 CURVE",
"292 255 OFFCURVE",
"342 164 OFFCURVE",
"342 164 CURVE SMOOTH",
"342 164 OFFCURVE",
"320 90 OFFCURVE",
"222 90 CURVE SMOOTH",
"181 90 LINE SMOOTH",
"148 90 OFFCURVE",
"129 99 OFFCURVE",
"113 117 CURVE SMOOTH",
"100 130 OFFCURVE",
"93 147 OFFCURVE",
"91 168 CURVE",
"74 164 LINE",
"70 143 OFFCURVE",
"61 79 OFFCURVE",
"95 35 CURVE SMOOTH",
"117 7 OFFCURVE",
"153 -6 OFFCURVE",
"201 -6 CURVE SMOOTH",
"256 -6 OFFCURVE",
"302 11 OFFCURVE",
"334 44 CURVE SMOOTH",
"366 77 OFFCURVE",
"383 126 OFFCURVE",
"383 171 CURVE SMOOTH"
);
}
);
width = 443;
}
);
unicode = 062F;
},
{
glyphname = "dal-ar.fina";
lastChange = "2015-11-08 18:59:00 +0000";
layers = (
{
anchors = (
{
name = bottom;
position = "{207, -19}";
},
{
name = top;
position = "{280, 374}";
}
);
layerId = "51F41761-070F-43EA-B302-C90910850260";
name = Regular;
paths = (
{
closed = 1;
nodes = (
"325 360 OFFCURVE",
"308 341 OFFCURVE",
"292 319 CURVE",
"326 198 LINE",
"321 155 OFFCURVE",
"298 92 OFFCURVE",
"223 92 CURVE SMOOTH",
"189 92 LINE SMOOTH",
"155 92 OFFCURVE",
"130 101 OFFCURVE",
"113 119 CURVE SMOOTH",
"101 132 OFFCURVE",
"94 149 OFFCURVE",
"92 170 CURVE",
"75 166 LINE",
"61 92 OFFCURVE",
"82 52 OFFCURVE",
"95 35 CURVE SMOOTH",
"117 9 OFFCURVE",
"153 -5 OFFCURVE",
"202 -5 CURVE SMOOTH",
"339 -5 OFFCURVE",
"354 97 OFFCURVE",
"358 116 CURVE",
"368 76 OFFCURVE",
"379 56 OFFCURVE",
"404 33 CURVE SMOOTH",
"427 11 OFFCURVE",
"459 0 OFFCURVE",
"501 0 CURVE SMOOTH",
"533 0 LINE",
"533 98 LINE",
"502 98 LINE SMOOTH",
"444 98 OFFCURVE",
"413 128 OFFCURVE",
"389 203 CURVE",
"339 374 LINE"
);
}
);
width = 533;
}
);
unicode = FEAA;
},
{
glyphname = "reh-ar";
lastChange = "2015-11-08 18:59:00 +0000";
layers = (
{
anchors = (
{
name = bottom;
position = "{-11, -258}";
},
{
name = top;
position = "{73, 223}";
}
);
layerId = "51F41761-070F-43EA-B302-C90910850260";
name = Regular;
paths = (
{
closed = 1;
nodes = (
"103 186 OFFCURVE",
"90 166 OFFCURVE",
"74 137 CURVE",
"90 122 OFFCURVE",
"107 100 OFFCURVE",
"119 81 CURVE SMOOTH",
"133 59 OFFCURVE",
"142 38 OFFCURVE",
"142 8 CURVE SMOOTH",
"142 -27 OFFCURVE",
"129 -58 OFFCURVE",
"102 -85 CURVE SMOOTH",
"79 -108 OFFCURVE",
"38 -134 OFFCURVE",
"10 -150 CURVE SMOOTH",
"-22 -168 OFFCURVE",
"-55 -186 OFFCURVE",
"-120 -221 CURVE",
"-111 -234 LINE",
"-89 -229 OFFCURVE",
"-71 -227 OFFCURVE",
"-53 -227 CURVE SMOOTH",
"-30 -227 OFFCURVE",
"-1 -230 OFFCURVE",
"18 -230 CURVE SMOOTH",
"46 -230 OFFCURVE",
"66 -224 OFFCURVE",
"90 -207 CURVE SMOOTH",
"112 -192 OFFCURVE",
"130 -171 OFFCURVE",
"143 -148 CURVE SMOOTH",
"178 -87 OFFCURVE",
"185 -8 OFFCURVE",
"185 34 CURVE SMOOTH",
"185 99 OFFCURVE",
"168 139 OFFCURVE",
"152 168 CURVE SMOOTH",
"141 188 OFFCURVE",
"130 202 OFFCURVE",
"123 209 CURVE"
);
}
);
width = 245;
}
);
unicode = 0631;
},
{
glyphname = "reh-ar.fina";
lastChange = "2015-11-08 18:59:00 +0000";
layers = (
{
anchors = (
{
name = bottom;
position = "{-44, -299}";
},
{
name = top;
position = "{71, 188}";
}
);
layerId = "51F41761-070F-43EA-B302-C90910850260";
name = Regular;
paths = (
{
closed = 1;
nodes = (
"84 140 OFFCURVE",
"69 117 OFFCURVE",
"53 87 CURVE",
"92 51 OFFCURVE",
"122 14 OFFCURVE",
"122 -41 CURVE SMOOTH",
"122 -79 OFFCURVE",
"108 -108 OFFCURVE",
"80 -135 CURVE SMOOTH",
"31 -182 OFFCURVE",
"-61 -228 OFFCURVE",
"-140 -271 CURVE",
"-131 -284 LINE",
"-110 -278 OFFCURVE",
"-92 -276 OFFCURVE",
"-77 -276 CURVE SMOOTH",
"-55 -276 OFFCURVE",
"-23 -280 OFFCURVE",
"-1 -280 CURVE SMOOTH",
"39 -280 OFFCURVE",
"60 -267 OFFCURVE",
"81 -247 CURVE SMOOTH",
"102 -227 OFFCURVE",
"122 -199 OFFCURVE",
"138 -162 CURVE SMOOTH",
"179 -68 OFFCURVE",
"164 19 OFFCURVE",
"164 19 CURVE SMOOTH",
"164 19 OFFCURVE",
"187 0 OFFCURVE",
"229 0 CURVE SMOOTH",
"285 0 LINE",
"285 98 LINE",
"216 98 LINE SMOOTH",
"192 98 OFFCURVE",
"159 108 OFFCURVE",
"137 124 CURVE SMOOTH",
"130 129 OFFCURVE",
"117 141 OFFCURVE",
"101 159 CURVE"
);
}
);
width = 285;
}
);
unicode = FEAE;
},
{
glyphname = "rehLoop-ar";
lastChange = "2015-11-08 18:59:00 +0000";
layers = (
{
layerId = "51F41761-070F-43EA-B302-C90910850260";
name = Regular;
paths = (
{
closed = 1;
nodes = (
"272 186 OFFCURVE",
"259 166 OFFCURVE",
"243 137 CURVE",
"259 122 OFFCURVE",
"276 100 OFFCURVE",
"288 81 CURVE SMOOTH",
"302 59 OFFCURVE",
"311 38 OFFCURVE",
"311 8 CURVE SMOOTH",
"311 -40 OFFCURVE",
"284 -82 OFFCURVE",
"243 -108 CURVE",
"221 -48 OFFCURVE",
"174 -16 OFFCURVE",
"120 -15 CURVE SMOOTH",
"88 -15 OFFCURVE",
"30 -38 OFFCURVE",
"30 -113 CURVE SMOOTH",
"30 -149 OFFCURVE",
"44 -179 OFFCURVE",
"68 -201 CURVE SMOOTH",
"91 -222 OFFCURVE",
"124 -235 OFFCURVE",
"160 -236 CURVE SMOOTH",
"185 -236 OFFCURVE",
"212 -231 OFFCURVE",
"239 -219 CURVE",
"242 -233 OFFCURVE",
"246 -247 OFFCURVE",
"248 -262 CURVE",
"279 -235 LINE",
"276 -223 OFFCURVE",
"274 -210 OFFCURVE",
"271 -198 CURVE",
"287 -184 OFFCURVE",
"301 -167 OFFCURVE",
"312 -148 CURVE SMOOTH",
"347 -87 OFFCURVE",
"354 -8 OFFCURVE",
"354 34 CURVE SMOOTH",
"354 99 OFFCURVE",
"337 139 OFFCURVE",
"321 168 CURVE SMOOTH",
"310 188 OFFCURVE",
"299 202 OFFCURVE",
"292 209 CURVE"
);
},
{
closed = 1;
nodes = (
"190 -146 OFFCURVE",
"160 -154 OFFCURVE",
"132 -154 CURVE SMOOTH",
"92 -154 OFFCURVE",
"54 -137 OFFCURVE",
"58 -100 CURVE SMOOTH",
"61 -80 OFFCURVE",
"84 -60 OFFCURVE",
"111 -60 CURVE SMOOTH",
"148 -60 OFFCURVE",
"183 -82 OFFCURVE",
"205 -130 CURVE"
);
}
);
width = 414;
}
);
unicode = 08AA;
},
{
glyphname = "rehLoop-ar.fina";
lastChange = "2015-11-08 18:59:00 +0000";
layers = (
{
layerId = "51F41761-070F-43EA-B302-C90910850260";
name = Regular;
paths = (
{
closed = 1;
nodes = (
"407 98 LINE SMOOTH",
"383 98 OFFCURVE",
"350 108 OFFCURVE",
"328 124 CURVE SMOOTH",
"321 129 OFFCURVE",
"308 142 OFFCURVE",
"292 159 CURVE",
"272 136 OFFCURVE",
"259 116 OFFCURVE",
"243 87 CURVE",
"259 72 OFFCURVE",
"276 50 OFFCURVE",
"288 31 CURVE SMOOTH",
"302 9 OFFCURVE",
"311 -12 OFFCURVE",
"311 -42 CURVE SMOOTH",
"311 -90 OFFCURVE",
"284 -132 OFFCURVE",
"243 -158 CURVE",
"221 -98 OFFCURVE",
"174 -66 OFFCURVE",
"120 -65 CURVE SMOOTH",
"88 -65 OFFCURVE",
"30 -88 OFFCURVE",
"30 -163 CURVE SMOOTH",
"30 -199 OFFCURVE",
"44 -229 OFFCURVE",
"68 -251 CURVE SMOOTH",
"91 -272 OFFCURVE",
"124 -285 OFFCURVE",
"160 -286 CURVE SMOOTH",
"185 -286 OFFCURVE",
"212 -281 OFFCURVE",
"239 -269 CURVE",
"242 -283 OFFCURVE",
"246 -297 OFFCURVE",
"248 -312 CURVE",
"279 -285 LINE",
"276 -273 OFFCURVE",
"274 -260 OFFCURVE",
"271 -248 CURVE",
"287 -234 OFFCURVE",
"301 -217 OFFCURVE",
"312 -198 CURVE SMOOTH",
"347 -137 OFFCURVE",
"354 -58 OFFCURVE",
"354 -16 CURVE SMOOTH",
"354 -4 OFFCURVE",
"353 8 OFFCURVE",
"352 18 CURVE",
"358 14 OFFCURVE",
"383 0 OFFCURVE",
"420 0 CURVE SMOOTH",
"476 0 LINE",
"476 98 LINE"
);
},
{
closed = 1;
nodes = (
"190 -196 OFFCURVE",
"160 -204 OFFCURVE",
"132 -204 CURVE SMOOTH",
"92 -204 OFFCURVE",
"54 -187 OFFCURVE",
"58 -150 CURVE",
"61 -130 OFFCURVE",
"84 -110 OFFCURVE",
"111 -110 CURVE SMOOTH",
"148 -110 OFFCURVE",
"183 -132 OFFCURVE",
"205 -180 CURVE"
);
}
);
width = 476;
}
);
},
{
glyphname = "seen-ar";
lastChange = "2015-11-08 18:59:00 +0000";
layers = (
{
anchors = (
{
name = bottom;
position = "{284, -303}";
},
{
name = top;
position = "{642, 221}";
}
);
layerId = "51F41761-070F-43EA-B302-C90910850260";
name = Regular;
paths = (
{
closed = 1;
nodes = (
"781 248 OFFCURVE",
"766 228 OFFCURVE",
"755 209 CURVE",
"798 148 LINE",
"794 124 OFFCURVE",
"766 95 OFFCURVE",
"730 95 CURVE SMOOTH",
"674 95 OFFCURVE",
"650 127 OFFCURVE",
"658 191 CURVE",
"636 179 LINE",
"634 148 OFFCURVE",
"622 96 OFFCURVE",
"559 96 CURVE SMOOTH",
"502 96 OFFCURVE",
"467 142 OFFCURVE",
"459 159 CURVE",
"445 142 OFFCURVE",
"426 118 OFFCURVE",
"412 91 CURVE",
"431 65 OFFCURVE",
"488 -14 OFFCURVE",
"488 -63 CURVE SMOOTH",
"488 -91 OFFCURVE",
"466 -118 OFFCURVE",
"431 -138 CURVE SMOOTH",
"396 -158 OFFCURVE",
"349 -170 OFFCURVE",
"292 -170 CURVE SMOOTH",
"214 -170 OFFCURVE",
"159 -148 OFFCURVE",
"132 -114 CURVE SMOOTH",
"106 -81 OFFCURVE",
"109 -40 OFFCURVE",
"119 17 CURVE",
"100 24 LINE",
"82 -19 OFFCURVE",
"73 -61 OFFCURVE",
"71 -89 CURVE SMOOTH",
"69 -118 OFFCURVE",
"72 -148 OFFCURVE",
"84 -177 CURVE SMOOTH",
"98 -211 OFFCURVE",
"121 -236 OFFCURVE",
"156 -255 CURVE SMOOTH",
"191 -274 OFFCURVE",
"234 -283 OFFCURVE",
"284 -283 CURVE SMOOTH",
"321 -283 OFFCURVE",
"354 -278 OFFCURVE",
"384 -268 CURVE SMOOTH",
"411 -259 OFFCURVE",
"436 -247 OFFCURVE",
"460 -225 CURVE SMOOTH",
"505 -184 OFFCURVE",
"528 -121 OFFCURVE",
"528 -44 CURVE SMOOTH",
"528 -26 OFFCURVE",
"526 -9 OFFCURVE",
"524 8 CURVE",
"557 -2 OFFCURVE",
"585 0 OFFCURVE",
"606 14 CURVE SMOOTH",
"625 26 OFFCURVE",
"638 48 OFFCURVE",
"642 76 CURVE SMOOTH",
"642 76 OFFCURVE",
"647 51 OFFCURVE",
"668 31 CURVE SMOOTH",
"681 19 OFFCURVE",
"700 9 OFFCURVE",
"728 9 CURVE SMOOTH",
"764 9 OFFCURVE",
"787 26 OFFCURVE",
"803 48 CURVE SMOOTH",
"829 85 OFFCURVE",
"833 135 OFFCURVE",
"833 140 CURVE SMOOTH",
"833 209 OFFCURVE",
"807 249 OFFCURVE",
"795 263 CURVE"
);
}
);
width = 893;
}
);
unicode = 0633;
},
{
glyphname = "seen-ar.fina";
lastChange = "2015-11-08 18:59:00 +0000";
layers = (
{
anchors = (
{
name = bottom;
position = "{284, -304}";
},
{
name = top;
position = "{639, 218}";
}
);
layerId = "51F41761-070F-43EA-B302-C90910850260";
name = Regular;
paths = (
{
closed = 1;
nodes = (
"873 98 LINE SMOOTH",
"845 98 OFFCURVE",
"827 105 OFFCURVE",
"814 119 CURVE SMOOTH",
"796 140 OFFCURVE",
"798 167 OFFCURVE",
"800 190 CURVE",
"778 178 LINE",
"776 145 OFFCURVE",
"766 95 OFFCURVE",
"711 95 CURVE SMOOTH",
"646 95 OFFCURVE",
"652 167 OFFCURVE",
"655 190 CURVE",
"633 178 LINE",
"631 148 OFFCURVE",
"616 95 OFFCURVE",
"561 95 CURVE SMOOTH",
"511 95 OFFCURVE",
"473 139 OFFCURVE",
"459 158 CURVE",
"445 141 OFFCURVE",
"426 117 OFFCURVE",
"412 90 CURVE",
"415 86 OFFCURVE",
"488 -15 OFFCURVE",
"488 -64 CURVE SMOOTH",
"488 -92 OFFCURVE",
"466 -119 OFFCURVE",
"431 -139 CURVE SMOOTH",
"396 -159 OFFCURVE",
"349 -171 OFFCURVE",
"292 -171 CURVE SMOOTH",
"214 -171 OFFCURVE",
"159 -149 OFFCURVE",
"132 -115 CURVE SMOOTH",
"106 -82 OFFCURVE",
"109 -41 OFFCURVE",
"119 16 CURVE",
"100 23 LINE",
"82 -20 OFFCURVE",
"73 -62 OFFCURVE",
"71 -90 CURVE SMOOTH",
"69 -119 OFFCURVE",
"72 -149 OFFCURVE",
"84 -178 CURVE SMOOTH",
"98 -213 OFFCURVE",
"124 -239 OFFCURVE",
"156 -256 CURVE SMOOTH",
"191 -275 OFFCURVE",
"234 -284 OFFCURVE",
"284 -284 CURVE SMOOTH",
"321 -284 OFFCURVE",
"354 -279 OFFCURVE",
"384 -269 CURVE SMOOTH",
"411 -260 OFFCURVE",
"436 -248 OFFCURVE",
"460 -226 CURVE SMOOTH",
"505 -185 OFFCURVE",
"528 -121 OFFCURVE",
"528 -50 CURVE SMOOTH",
"528 -35 OFFCURVE",
"527 -15 OFFCURVE",
"524 7 CURVE",
"529 5 OFFCURVE",
"541 2 OFFCURVE",
"556 2 CURVE SMOOTH",
"597 2 OFFCURVE",
"625 24 OFFCURVE",
"639 75 CURVE",
"643 35 OFFCURVE",
"665 0 OFFCURVE",
"712 0 CURVE SMOOTH",
"768 0 OFFCURVE",
"780 49 OFFCURVE",
"784 75 CURVE",
"787 48 OFFCURVE",
"805 0 OFFCURVE",
"876 0 CURVE",
"919 0 LINE",
"919 98 LINE"
);
}
);
width = 919;
}
);
unicode = FEB2;
},
{
glyphname = "seen-ar.medi";
lastChange = "2015-11-08 18:59:00 +0000";
layers = (
{
anchors = (
{
name = bottom;
position = "{279, -15}";
},
{
name = top;
position = "{279, 219}";
}
);
layerId = "51F41761-070F-43EA-B302-C90910850260";
name = Regular;
paths = (
{
closed = 1;
nodes = (
"513 98 LINE SMOOTH",
"485 98 OFFCURVE",
"467 105 OFFCURVE",
"454 120 CURVE SMOOTH",
"436 140 OFFCURVE",
"438 167 OFFCURVE",
"440 190 CURVE",
"418 178 LINE",
"417 162 OFFCURVE",
"414 142 OFFCURVE",
"405 126 CURVE SMOOTH",
"396 108 OFFCURVE",
"380 95 OFFCURVE",
"354 95 CURVE SMOOTH",
"306 95 OFFCURVE",
"295 130 OFFCURVE",
"294 160 CURVE SMOOTH",
"293 172 OFFCURVE",
"294 183 OFFCURVE",
"295 190 CURVE",
"273 178 LINE",
"272 159 OFFCURVE",
"267 137 OFFCURVE",
"254 120 CURVE SMOOTH",
"243 105 OFFCURVE",
"225 94 OFFCURVE",
"197 94 CURVE SMOOTH",
"141 94 OFFCURVE",
"128 124 OFFCURVE",
"125 152 CURVE SMOOTH",
"124 167 OFFCURVE",
"126 182 OFFCURVE",
"127 190 CURVE",
"105 178 LINE",
"101 161 OFFCURVE",
"101 148 OFFCURVE",
"90 131 CURVE SMOOTH",
"75 109 OFFCURVE",
"53 98 OFFCURVE",
"25 98 CURVE SMOOTH",
"-20 98 LINE SMOOTH",
"-47 98 OFFCURVE",
"-70 75 OFFCURVE",
"-70 48 CURVE SMOOTH",
"-70 20 OFFCURVE",
"-47 0 OFFCURVE",
"-20 0 CURVE SMOOTH",
"18 0 LINE SMOOTH",
"75 0 OFFCURVE",
"101 34 OFFCURVE",
"108 75 CURVE",
"107 36 OFFCURVE",
"134 -2 OFFCURVE",
"187 -2 CURVE SMOOTH",
"244 -2 OFFCURVE",
"269 38 OFFCURVE",
"279 75 CURVE",
"277 37 OFFCURVE",
"301 -2 OFFCURVE",
"346 -2 CURVE SMOOTH",
"405 -2 OFFCURVE",
"420 49 OFFCURVE",
"425 75 CURVE",
"425 33 OFFCURVE",
"453 0 OFFCURVE",
"511 0 CURVE",
"549 0 LINE",
"549 98 LINE"
);
}
);
width = 549;
}
);
unicode = FEB4;
},
{
glyphname = "seen-ar.init";
lastChange = "2015-11-08 18:59:00 +0000";
layers = (
{
anchors = (
{
name = bottom;
position = "{279, -14}";
},
{
name = top;
position = "{279, 218}";
}
);
layerId = "51F41761-070F-43EA-B302-C90910850260";
name = Regular;
paths = (
{
closed = 1;
nodes = (
"418 248 OFFCURVE",
"403 228 OFFCURVE",
"392 208 CURVE",
"436 147 LINE",
"421 106 OFFCURVE",
"405 94 OFFCURVE",
"368 94 CURVE SMOOTH",
"340 94 OFFCURVE",
"322 101 OFFCURVE",
"309 116 CURVE SMOOTH",
"296 130 OFFCURVE",
"293 149 OFFCURVE",
"293 167 CURVE SMOOTH",
"293 175 OFFCURVE",
"294 183 OFFCURVE",
"295 190 CURVE",
"273 178 LINE",
"272 169 OFFCURVE",
"271 159 OFFCURVE",
"268 149 CURVE SMOOTH",
"260 121 OFFCURVE",
"241 94 OFFCURVE",
"197 94 CURVE SMOOTH",
"141 94 OFFCURVE",
"128 124 OFFCURVE",
"125 152 CURVE SMOOTH",
"124 167 OFFCURVE",
"126 182 OFFCURVE",
"127 190 CURVE",
"105 178 LINE",
"101 161 OFFCURVE",
"101 148 OFFCURVE",
"90 131 CURVE SMOOTH",
"75 109 OFFCURVE",
"53 98 OFFCURVE",
"25 98 CURVE SMOOTH",
"-20 98 LINE SMOOTH",
"-47 98 OFFCURVE",
"-70 75 OFFCURVE",
"-70 48 CURVE SMOOTH",
"-70 24 OFFCURVE",
"-51 0 OFFCURVE",
"-20 0 CURVE SMOOTH",
"18 0 LINE SMOOTH",
"53 0 OFFCURVE",
"74 14 OFFCURVE",
"88 30 CURVE SMOOTH",
"105 51 OFFCURVE",
"108 76 OFFCURVE",
"108 76 CURVE SMOOTH",
"113 40 OFFCURVE",
"134 0 OFFCURVE",
"187 0 CURVE SMOOTH",
"243 0 OFFCURVE",
"271 40 OFFCURVE",
"279 75 CURVE",
"281 47 OFFCURVE",
"303 8 OFFCURVE",
"366 8 CURVE SMOOTH",
"401 8 OFFCURVE",
"424 25 OFFCURVE",
"440 47 CURVE SMOOTH",
"466 84 OFFCURVE",
"470 134 OFFCURVE",
"470 139 CURVE SMOOTH",
"470 208 OFFCURVE",
"444 248 OFFCURVE",
"432 262 CURVE"
);
}
);
width = 530;
}
);
unicode = FEB3;
},
{
glyphname = "sad-ar";
lastChange = "2015-11-08 18:59:00 +0000";
layers = (
{
anchors = (
{
name = bottom;
position = "{284, -304}";
},
{
name = top;
position = "{814, 341}";
}
);
layerId = "51F41761-070F-43EA-B302-C90910850260";
name = Regular;
paths = (
{
closed = 1;
nodes = (
"937 243 OFFCURVE",
"932 269 OFFCURVE",
"900 294 CURVE SMOOTH",
"879 310 OFFCURVE",
"853 321 OFFCURVE",
"834 321 CURVE SMOOTH",
"766 321 OFFCURVE",
"698 256 OFFCURVE",
"662 218 CURVE SMOOTH",
"622 176 OFFCURVE",
"605 151 OFFCURVE",
"571 98 CURVE SMOOTH",
"520 104 OFFCURVE",
"497 113 OFFCURVE",
"460 159 CURVE",
"438 133 OFFCURVE",
"427 116 OFFCURVE",
"412 90 CURVE",
"431 64 OFFCURVE",
"488 -15 OFFCURVE",
"488 -64 CURVE SMOOTH",
"488 -92 OFFCURVE",
"466 -119 OFFCURVE",
"431 -139 CURVE SMOOTH",
"396 -159 OFFCURVE",
"349 -171 OFFCURVE",
"292 -171 CURVE SMOOTH",
"214 -171 OFFCURVE",
"159 -149 OFFCURVE",
"132 -115 CURVE SMOOTH",
"106 -82 OFFCURVE",
"109 -41 OFFCURVE",
"119 16 CURVE",
"100 23 LINE",
"82 -20 OFFCURVE",
"73 -62 OFFCURVE",
"71 -90 CURVE SMOOTH",
"69 -119 OFFCURVE",
"72 -149 OFFCURVE",
"84 -178 CURVE SMOOTH",
"98 -212 OFFCURVE",
"121 -237 OFFCURVE",
"156 -256 CURVE SMOOTH",
"191 -275 OFFCURVE",
"234 -284 OFFCURVE",
"284 -284 CURVE SMOOTH",
"369 -284 OFFCURVE",
"427 -258 OFFCURVE",
"465 -222 CURVE SMOOTH",
"516 -172 OFFCURVE",
"531 -105 OFFCURVE",
"531 -57 CURVE SMOOTH",
"531 -35 OFFCURVE",
"527 -3 OFFCURVE",
"521 30 CURVE",
"533 20 OFFCURVE",
"550 13 OFFCURVE",
"560 11 CURVE SMOOTH",
"584 4 OFFCURVE",
"615 4 OFFCURVE",
"657 4 CURVE SMOOTH",
"718 4 OFFCURVE",
"789 29 OFFCURVE",
"845 72 CURVE SMOOTH",
"873 94 OFFCURVE",
"896 119 OFFCURVE",
"912 145 CURVE SMOOTH",
"929 173 OFFCURVE",
"937 202 OFFCURVE",
"937 231 CURVE SMOOTH"
);
},
{
closed = 1;
nodes = (
"866 144 OFFCURVE",
"857 135 OFFCURVE",
"827 120 CURVE SMOOTH",
"801 108 OFFCURVE",
"767 98 OFFCURVE",
"722 98 CURVE SMOOTH",
"606 98 LINE SMOOTH",
"631 132 OFFCURVE",
"654 161 OFFCURVE",
"677 183 CURVE SMOOTH",
"705 211 OFFCURVE",
"735 246 OFFCURVE",
"793 246 CURVE SMOOTH",
"823 246 OFFCURVE",
"853 225 OFFCURVE",
"866 208 CURVE SMOOTH",
"877 195 OFFCURVE",
"878 187 OFFCURVE",
"886 165 CURVE SMOOTH"
);
}
);
width = 997;
}
);
unicode = 0635;
},
{
glyphname = "sad-ar.fina";
lastChange = "2015-11-08 18:59:00 +0000";
layers = (
{
anchors = (
{
name = bottom;
position = "{284, -304}";
},
{
name = top;
position = "{814, 341}";
}
);
layerId = "51F41761-070F-43EA-B302-C90910850260";
name = Regular;
paths = (
{
closed = 1;
nodes = (
"968 98 LINE SMOOTH",
"920 98 OFFCURVE",
"862 79 OFFCURVE",
"845 73 CURVE",
"873 94 OFFCURVE",
"896 119 OFFCURVE",
"912 145 CURVE SMOOTH",
"929 173 OFFCURVE",
"938 202 OFFCURVE",
"938 231 CURVE SMOOTH",
"938 243 OFFCURVE",
"933 269 OFFCURVE",
"901 294 CURVE SMOOTH",
"880 310 OFFCURVE",
"853 321 OFFCURVE",
"834 321 CURVE SMOOTH",
"767 321 OFFCURVE",
"698 256 OFFCURVE",
"662 218 CURVE SMOOTH",
"630 184 OFFCURVE",
"603 147 OFFCURVE",
"571 98 CURVE SMOOTH",
"525 102 OFFCURVE",
"497 114 OFFCURVE",
"460 159 CURVE",
"440 137 OFFCURVE",
"424 115 OFFCURVE",
"412 90 CURVE",
"431 64 OFFCURVE",
"488 -16 OFFCURVE",
"488 -63 CURVE SMOOTH",
"488 -91 OFFCURVE",
"468 -118 OFFCURVE",
"431 -139 CURVE SMOOTH",
"396 -159 OFFCURVE",
"349 -171 OFFCURVE",
"292 -171 CURVE SMOOTH",
"214 -171 OFFCURVE",
"159 -149 OFFCURVE",
"132 -115 CURVE SMOOTH",
"106 -82 OFFCURVE",
"109 -41 OFFCURVE",
"119 16 CURVE",
"100 23 LINE",
"82 -20 OFFCURVE",
"73 -62 OFFCURVE",
"71 -90 CURVE SMOOTH",
"69 -119 OFFCURVE",
"72 -149 OFFCURVE",
"84 -178 CURVE SMOOTH",
"98 -213 OFFCURVE",
"124 -239 OFFCURVE",
"156 -256 CURVE SMOOTH",
"191 -275 OFFCURVE",
"234 -284 OFFCURVE",
"284 -284 CURVE SMOOTH",
"358 -284 OFFCURVE",
"411 -265 OFFCURVE",
"450 -234 CURVE SMOOTH",
"513 -184 OFFCURVE",
"532 -108 OFFCURVE",
"532 -60 CURVE SMOOTH",
"532 -35 OFFCURVE",
"527 3 OFFCURVE",
"522 30 CURVE",
"528 26 OFFCURVE",
"543 16 OFFCURVE",
"560 11 CURVE SMOOTH",
"589 2 OFFCURVE",
"648 4 OFFCURVE",
"663 4 CURVE SMOOTH",
"677 4 OFFCURVE",
"841 2 OFFCURVE",
"883 1 CURVE SMOOTH",
"911 1 OFFCURVE",
"932 0 OFFCURVE",
"962 0 CURVE SMOOTH",
"1061 0 LINE",
"1061 98 LINE"
);
},
{
closed = 1;
nodes = (
"865 142 OFFCURVE",
"855 131 OFFCURVE",
"821 117 CURVE SMOOTH",
"796 106 OFFCURVE",
"763 98 OFFCURVE",
"722 98 CURVE SMOOTH",
"607 98 LINE SMOOTH",
"632 133 OFFCURVE",
"653 160 OFFCURVE",
"677 183 CURVE SMOOTH",
"705 211 OFFCURVE",
"735 246 OFFCURVE",
"793 246 CURVE SMOOTH",
"823 246 OFFCURVE",
"853 225 OFFCURVE",
"867 208 CURVE SMOOTH",
"876 195 OFFCURVE",
"881 185 OFFCURVE",
"886 165 CURVE"
);
}
);
width = 1061;
}
);
unicode = FEBA;
},
{
glyphname = "sad-ar.medi";
lastChange = "2015-11-08 18:59:00 +0000";
layers = (
{
anchors = (
{
name = bottom;
position = "{307, -15}";
},
{
name = top;
position = "{419, 340}";
}
);
layerId = "51F41761-070F-43EA-B302-C90910850260";
name = Regular;
paths = (
{
closed = 1;
nodes = (
"578 98 LINE SMOOTH",
"532 98 OFFCURVE",
"475 80 OFFCURVE",
"456 73 CURVE",
"470 83 OFFCURVE",
"482 95 OFFCURVE",
"493 106 CURVE SMOOTH",
"514 128 OFFCURVE",
"548 183 OFFCURVE",
"548 222 CURVE SMOOTH",
"548 229 OFFCURVE",
"547 268 OFFCURVE",
"512 295 CURVE SMOOTH",
"494 309 OFFCURVE",
"466 320 OFFCURVE",
"439 320 CURVE SMOOTH",
"410 320 OFFCURVE",
"384 308 OFFCURVE",
"357 291 CURVE SMOOTH",
"319 267 OFFCURVE",
"285 232 OFFCURVE",
"272 218 CURVE SMOOTH",
"218 160 OFFCURVE",
"183 102 OFFCURVE",
"181 98 CURVE",
"160 100 OFFCURVE",
"144 113 OFFCURVE",
"136 122 CURVE SMOOTH",
"116 145 OFFCURVE",
"120 175 OFFCURVE",
"122 199 CURVE",
"101 187 LINE",
"98 164 OFFCURVE",
"94 149 OFFCURVE",
"82 132 CURVE SMOOTH",
"68 112 OFFCURVE",
"50 98 OFFCURVE",
"17 98 CURVE SMOOTH",
"-22 98 LINE SMOOTH",
"-49 98 OFFCURVE",
"-70 76 OFFCURVE",
"-70 48 CURVE SMOOTH",
"-70 20 OFFCURVE",
"-50 0 OFFCURVE",
"-22 0 CURVE SMOOTH",
"16 0 LINE SMOOTH",
"67 0 OFFCURVE",
"95 21 OFFCURVE",
"105 68 CURVE",
"112 42 OFFCURVE",
"125 26 OFFCURVE",
"154 17 CURVE",
"146 -17 LINE",
"174 -17 LINE",
"182 9 LINE",
"205 4 OFFCURVE",
"229 4 OFFCURVE",
"267 4 CURVE SMOOTH",
"298 4 OFFCURVE",
"452 2 OFFCURVE",
"493 1 CURVE SMOOTH",
"521 1 OFFCURVE",
"542 0 OFFCURVE",
"572 0 CURVE SMOOTH",
"677 0 LINE",
"677 98 LINE"
);
},
{
closed = 1;
nodes = (
"486 137 OFFCURVE",
"451 119 OFFCURVE",
"411 109 CURVE SMOOTH",
"388 103 OFFCURVE",
"361 98 OFFCURVE",
"332 98 CURVE SMOOTH",
"217 98 LINE SMOOTH",
"217 98 OFFCURVE",
"238 134 OFFCURVE",
"287 183 CURVE SMOOTH",
"315 211 OFFCURVE",
"351 246 OFFCURVE",
"401 246 CURVE SMOOTH",
"446 246 OFFCURVE",
"486 218 OFFCURVE",
"486 176 CURVE SMOOTH"
);
}
);
width = 677;
}
);
unicode = FEBC;
},
{
glyphname = "sad-ar.init";
lastChange = "2015-11-08 18:59:00 +0000";
layers = (
{
anchors = (
{
name = bottom;
position = "{285, -15}";
},
{
name = top;
position = "{419, 341}";
}
);
layerId = "51F41761-070F-43EA-B302-C90910850260";
name = Regular;
paths = (
{
closed = 1;
nodes = (
"548 242 OFFCURVE",
"542 271 OFFCURVE",
"512 294 CURVE SMOOTH",
"493 309 OFFCURVE",
"464 321 OFFCURVE",
"439 321 CURVE SMOOTH",
"380 321 OFFCURVE",
"308 256 OFFCURVE",
"272 218 CURVE SMOOTH",
"224 167 OFFCURVE",
"188 110 OFFCURVE",
"181 98 CURVE",
"163 100 OFFCURVE",
"149 108 OFFCURVE",
"137 122 CURVE SMOOTH",
"120 141 OFFCURVE",
"118 164 OFFCURVE",
"123 199 CURVE",
"101 187 LINE",
"98 164 OFFCURVE",
"94 149 OFFCURVE",
"82 132 CURVE SMOOTH",
"68 112 OFFCURVE",
"50 98 OFFCURVE",
"17 98 CURVE SMOOTH",
"-22 98 LINE SMOOTH",
"-49 98 OFFCURVE",
"-70 77 OFFCURVE",
"-70 48 CURVE SMOOTH",
"-70 28 OFFCURVE",
"-60 0 OFFCURVE",
"-22 0 CURVE SMOOTH",
"16 0 LINE SMOOTH",
"67 0 OFFCURVE",
"96 24 OFFCURVE",
"105 68 CURVE",
"112 44 OFFCURVE",
"127 25 OFFCURVE",
"154 17 CURVE",
"146 -17 LINE",
"174 -17 LINE",
"182 9 LINE",
"206 4 OFFCURVE",
"229 4 OFFCURVE",
"267 4 CURVE SMOOTH",
"328 4 OFFCURVE",
"402 31 OFFCURVE",
"455 72 CURVE SMOOTH",
"483 94 OFFCURVE",
"507 120 OFFCURVE",
"522 145 CURVE SMOOTH",
"539 173 OFFCURVE",
"548 205 OFFCURVE",
"548 225 CURVE SMOOTH"
);
},
{
closed = 1;
nodes = (
"477 143 OFFCURVE",
"461 130 OFFCURVE",
"428 116 CURVE SMOOTH",
"404 106 OFFCURVE",
"372 98 OFFCURVE",
"332 98 CURVE SMOOTH",
"217 98 LINE SMOOTH",
"237 126 OFFCURVE",
"265 161 OFFCURVE",
"286 183 CURVE SMOOTH",
"329 226 OFFCURVE",
"362 246 OFFCURVE",
"399 246 CURVE SMOOTH",
"437 246 OFFCURVE",
"462 224 OFFCURVE",
"476 208 CURVE SMOOTH",
"486 196 OFFCURVE",
"490 186 OFFCURVE",
"496 165 CURVE SMOOTH"
);
}
);
width = 608;
}
);
unicode = FEBB;
},
{
glyphname = "tah-ar";
lastChange = "2015-11-08 18:59:00 +0000";
layers = (
{
anchors = (
{
name = bottom;
position = "{287, -15}";
},
{
name = top;
position = "{460, 328}";
}
);
layerId = "51F41761-070F-43EA-B302-C90910850260";
name = Regular;
paths = (
{
closed = 1;
nodes = (
"584 230 OFFCURVE",
"579 255 OFFCURVE",
"547 280 CURVE SMOOTH",
"526 297 OFFCURVE",
"500 308 OFFCURVE",
"480 308 CURVE SMOOTH",
"425 308 OFFCURVE",
"377 279 OFFCURVE",
"309 204 CURVE SMOOTH",
"305 200 OFFCURVE",
"297 191 OFFCURVE",
"290 183 CURVE",
"290 183 OFFCURVE",
"299 217 OFFCURVE",
"296 276 CURVE SMOOTH",
"295 302 OFFCURVE",
"292 344 OFFCURVE",
"285 396 CURVE",
"282 440 OFFCURVE",
"288 462 OFFCURVE",
"312 482 CURVE",
"283 513 OFFCURVE",
"262 549 OFFCURVE",
"252 568 CURVE",
"203 492 LINE",
"207 482 OFFCURVE",
"216 457 OFFCURVE",
"226 410 CURVE SMOOTH",
"237 358 OFFCURVE",
"255 263 OFFCURVE",
"259 151 CURVE",
"247 137 OFFCURVE",
"235 122 OFFCURVE",
"216 98 CURVE",
"216 98 OFFCURVE",
"111 103 OFFCURVE",
"70 108 CURVE",
"99 58 OFFCURVE",
"128 22 OFFCURVE",
"161 -3 CURVE",
"178 -2 OFFCURVE",
"199 -1 OFFCURVE",
"236 0 CURVE SMOOTH",
"259 0 OFFCURVE",
"290 1 OFFCURVE",
"315 2 CURVE SMOOTH",
"377 4 OFFCURVE",
"444 29 OFFCURVE",
"496 68 CURVE SMOOTH",
"553 110 OFFCURVE",
"584 163 OFFCURVE",
"584 217 CURVE SMOOTH"
);
},
{
closed = 1;
nodes = (
"510 141 OFFCURVE",
"493 127 OFFCURVE",
"461 114 CURVE",
"436 105 OFFCURVE",
"406 98 OFFCURVE",
"368 98 CURVE SMOOTH",
"257 98 LINE",
"274 117 OFFCURVE",
"288 134 OFFCURVE",
"303 149 CURVE SMOOTH",
"339 186 OFFCURVE",
"392 229 OFFCURVE",
"436 229 CURVE SMOOTH",
"488 229 OFFCURVE",
"512 209 OFFCURVE",
"533 165 CURVE"
);
}
);
width = 644;
}
);
unicode = 0637;
},
{
glyphname = "tah-ar.fina";
lastChange = "2015-11-08 18:59:00 +0000";
layers = (
{
anchors = (
{
name = bottom;
position = "{338, -16}";
},
{
name = top;
position = "{460, 328}";
}
);
layerId = "51F41761-070F-43EA-B302-C90910850260";
name = Regular;
paths = (
{
closed = 1;
nodes = (
"624 98 LINE SMOOTH",
"579 98 OFFCURVE",
"523 81 OFFCURVE",
"503 73 CURVE",
"556 114 OFFCURVE",
"584 165 OFFCURVE",
"584 217 CURVE SMOOTH",
"584 230 OFFCURVE",
"579 255 OFFCURVE",
"547 280 CURVE SMOOTH",
"526 297 OFFCURVE",
"500 308 OFFCURVE",
"480 308 CURVE SMOOTH",
"425 308 OFFCURVE",
"377 279 OFFCURVE",
"309 204 CURVE",
"305 200 OFFCURVE",
"297 191 OFFCURVE",
"290 183 CURVE",
"290 183 OFFCURVE",
"299 217 OFFCURVE",
"296 276 CURVE SMOOTH",
"295 302 OFFCURVE",
"292 344 OFFCURVE",
"285 396 CURVE",
"282 440 OFFCURVE",
"288 462 OFFCURVE",
"312 482 CURVE",
"283 513 OFFCURVE",
"262 549 OFFCURVE",
"252 568 CURVE",
"203 492 LINE",
"207 482 OFFCURVE",
"216 457 OFFCURVE",
"226 410 CURVE SMOOTH",
"237 358 OFFCURVE",
"255 263 OFFCURVE",
"259 151 CURVE",
"247 137 OFFCURVE",
"235 122 OFFCURVE",
"216 98 CURVE",
"216 98 OFFCURVE",
"111 103 OFFCURVE",
"70 108 CURVE",
"99 58 OFFCURVE",
"128 22 OFFCURVE",
"161 -3 CURVE",
"178 -2 OFFCURVE",
"199 -1 OFFCURVE",
"236 0 CURVE SMOOTH",
"261 0 OFFCURVE",
"282 1 OFFCURVE",
"288 1 CURVE",
"319 1 OFFCURVE",
"498 2 OFFCURVE",
"539 1 CURVE SMOOTH",
"567 1 OFFCURVE",
"588 0 OFFCURVE",
"618 0 CURVE SMOOTH",
"715 0 LINE",
"715 98 LINE"
);
},
{
closed = 1;
nodes = (
"510 141 OFFCURVE",
"493 127 OFFCURVE",
"461 114 CURVE",
"436 105 OFFCURVE",
"406 98 OFFCURVE",
"368 98 CURVE SMOOTH",
"257 98 LINE",
"274 117 OFFCURVE",
"288 134 OFFCURVE",
"303 149 CURVE SMOOTH",
"339 186 OFFCURVE",
"392 229 OFFCURVE",
"436 229 CURVE SMOOTH",
"488 229 OFFCURVE",
"512 209 OFFCURVE",
"533 165 CURVE"
);
}
);
width = 715;
}
);
unicode = FEC2;
},
{
glyphname = "tah-ar.medi";
lastChange = "2015-11-08 18:59:00 +0000";
layers = (
{
anchors = (
{
name = bottom;
position = "{159, -15}";
},
{
name = top;
position = "{281, 328}";
}
);
layerId = "51F41761-070F-43EA-B302-C90910850260";
name = Regular;
paths = (
{
closed = 1;
nodes = (
"400 98 OFFCURVE",
"344 81 OFFCURVE",
"324 73 CURVE",
"377 114 OFFCURVE",
"405 165 OFFCURVE",
"405 217 CURVE SMOOTH",
"405 230 OFFCURVE",
"400 255 OFFCURVE",
"368 280 CURVE SMOOTH",
"347 297 OFFCURVE",
"321 308 OFFCURVE",
"301 308 CURVE SMOOTH",
"246 308 OFFCURVE",
"198 279 OFFCURVE",
"130 204 CURVE",
"126 200 OFFCURVE",
"118 191 OFFCURVE",
"111 183 CURVE",
"111 183 OFFCURVE",
"120 217 OFFCURVE",
"117 276 CURVE SMOOTH",
"116 302 OFFCURVE",
"113 344 OFFCURVE",
"106 396 CURVE",
"103 440 OFFCURVE",
"109 462 OFFCURVE",
"133 482 CURVE",
"104 513 OFFCURVE",
"83 549 OFFCURVE",
"73 568 CURVE",
"24 492 LINE",
"28 482 OFFCURVE",
"37 457 OFFCURVE",
"47 410 CURVE SMOOTH",
"58 358 OFFCURVE",
"76 263 OFFCURVE",
"80 151 CURVE",
"68 137 OFFCURVE",
"56 122 OFFCURVE",
"37 98 CURVE",
"-22 98 LINE SMOOTH",
"-51 98 OFFCURVE",
"-70 77 OFFCURVE",
"-70 49 CURVE SMOOTH",
"-70 23 OFFCURVE",
"-48 0 OFFCURVE",
"-22 0 CURVE SMOOTH",
"15 0 LINE SMOOTH",
"18 0 OFFCURVE",
"103 1 OFFCURVE",
"109 1 CURVE SMOOTH",
"140 1 OFFCURVE",
"319 2 OFFCURVE",
"360 1 CURVE SMOOTH",
"388 1 OFFCURVE",
"409 0 OFFCURVE",
"439 0 CURVE SMOOTH",
"539 0 LINE",
"539 98 LINE",
"445 98 LINE SMOOTH"
);
},
{
closed = 1;
nodes = (
"257 105 OFFCURVE",
"227 98 OFFCURVE",
"189 98 CURVE SMOOTH",
"78 98 LINE",
"95 117 OFFCURVE",
"109 134 OFFCURVE",
"124 149 CURVE SMOOTH",
"160 186 OFFCURVE",
"213 229 OFFCURVE",
"257 229 CURVE SMOOTH",
"309 229 OFFCURVE",
"333 209 OFFCURVE",
"354 165 CURVE",
"331 141 OFFCURVE",
"314 127 OFFCURVE",
"282 114 CURVE"
);
}
);
width = 539;
}
);
unicode = FEC4;
},
{
glyphname = "tah-ar.init";
lastChange = "2015-11-08 18:59:00 +0000";
layers = (
{
anchors = (
{
name = bottom;
position = "{116, -15}";
},
{
name = top;
position = "{281, 328}";
}
);
layerId = "51F41761-070F-43EA-B302-C90910850260";
name = Regular;
paths = (
{
closed = 1;
nodes = (
"405 230 OFFCURVE",
"400 255 OFFCURVE",
"368 280 CURVE SMOOTH",
"347 297 OFFCURVE",
"321 308 OFFCURVE",
"301 308 CURVE SMOOTH",
"246 308 OFFCURVE",
"198 279 OFFCURVE",
"130 204 CURVE SMOOTH",
"128 202 OFFCURVE",
"113 185 OFFCURVE",
"111 183 CURVE",
"111 183 OFFCURVE",
"120 217 OFFCURVE",
"117 276 CURVE SMOOTH",
"116 302 OFFCURVE",
"113 344 OFFCURVE",
"106 396 CURVE SMOOTH",
"103 440 OFFCURVE",
"109 462 OFFCURVE",
"133 482 CURVE",
"104 513 OFFCURVE",
"83 549 OFFCURVE",
"73 568 CURVE",
"24 492 LINE",
"28 482 OFFCURVE",
"37 457 OFFCURVE",
"47 410 CURVE SMOOTH",
"58 358 OFFCURVE",
"76 263 OFFCURVE",
"80 151 CURVE",
"68 137 OFFCURVE",
"56 122 OFFCURVE",
"37 98 CURVE",
"-22 98 LINE SMOOTH",
"-49 98 OFFCURVE",
"-70 77 OFFCURVE",
"-70 49 CURVE SMOOTH",
"-70 22 OFFCURVE",
"-50 0 OFFCURVE",
"-22 0 CURVE SMOOTH",
"57 0 LINE SMOOTH",
"80 0 OFFCURVE",
"111 1 OFFCURVE",
"136 2 CURVE SMOOTH",
"198 4 OFFCURVE",
"265 29 OFFCURVE",
"317 68 CURVE SMOOTH",
"374 110 OFFCURVE",
"405 163 OFFCURVE",
"405 217 CURVE SMOOTH"
);
},
{
closed = 1;
nodes = (
"331 141 OFFCURVE",
"314 127 OFFCURVE",
"282 114 CURVE SMOOTH",
"257 105 OFFCURVE",
"227 98 OFFCURVE",
"189 98 CURVE SMOOTH",
"78 98 LINE SMOOTH",
"95 117 OFFCURVE",
"109 134 OFFCURVE",
"124 149 CURVE SMOOTH",
"160 186 OFFCURVE",
"213 229 OFFCURVE",
"257 229 CURVE SMOOTH",
"309 229 OFFCURVE",
"333 209 OFFCURVE",
"354 165 CURVE SMOOTH"
);
}
);
width = 465;
}
);
unicode = FEC3;
},
{
glyphname = "ain-ar";
lastChange = "2015-11-08 18:59:00 +0000";
layers = (
{
anchors = (
{
name = bottom;
position = "{290, -359}";
},
{
name = top;
position = "{243, 396}";
}
);
layerId = "51F41761-070F-43EA-B302-C90910850260";
name = Regular;
paths = (
{
closed = 1;
nodes = (
"374 220 OFFCURVE",
"297 194 OFFCURVE",
"255 178 CURVE",
"215 190 OFFCURVE",
"173 214 OFFCURVE",
"155 258 CURVE",
"178 283 OFFCURVE",
"199 299 OFFCURVE",
"243 310 CURVE SMOOTH",
"293 322 OFFCURVE",
"329 315 OFFCURVE",
"343 312 CURVE",
"358 334 LINE",
"321 364 OFFCURVE",
"273 376 OFFCURVE",
"243 376 CURVE SMOOTH",
"205 376 OFFCURVE",
"164 344 OFFCURVE",
"142 312 CURVE SMOOTH",
"119 279 OFFCURVE",
"110 244 OFFCURVE",
"116 214 CURVE SMOOTH",
"123 180 OFFCURVE",
"158 149 OFFCURVE",
"187 134 CURVE",
"142 90 OFFCURVE",
"84 5 OFFCURVE",
"72 -98 CURVE SMOOTH",
"64 -168 OFFCURVE",
"87 -226 OFFCURVE",
"126 -269 CURVE SMOOTH",
"166 -313 OFFCURVE",
"222 -339 OFFCURVE",
"290 -339 CURVE SMOOTH",
"336 -339 OFFCURVE",
"360 -327 OFFCURVE",
"385 -313 CURVE SMOOTH",
"409 -300 OFFCURVE",
"435 -287 OFFCURVE",
"480 -285 CURVE",
"485 -270 LINE",
"449 -265 OFFCURVE",
"440 -265 OFFCURVE",
"403 -262 CURVE SMOOTH",
"362 -259 OFFCURVE",
"328 -254 OFFCURVE",
"315 -252 CURVE SMOOTH",
"251 -242 OFFCURVE",
"201 -218 OFFCURVE",
"169 -181 CURVE SMOOTH",
"151 -160 OFFCURVE",
"130 -127 OFFCURVE",
"130 -60 CURVE SMOOTH",
"130 -10 OFFCURVE",
"155 54 OFFCURVE",
"238 107 CURVE SMOOTH",
"277 131 OFFCURVE",
"329 153 OFFCURVE",
"397 170 CURVE",
"403 190 OFFCURVE",
"409 210 OFFCURVE",
"415 233 CURVE"
);
}
);
width = 515;
}
);
unicode = 0639;
},
{
glyphname = "ain-ar.fina";
lastChange = "2015-11-08 18:59:00 +0000";
layers = (
{
anchors = (
{
name = bottom;
position = "{289, -356}";
},
{
name = top;
position = "{287, 283}";
}
);
layerId = "51F41761-070F-43EA-B302-C90910850260";
name = Regular;
paths = (
{
closed = 1;
nodes = (
"390 98 LINE SMOOTH",
"374 98 OFFCURVE",
"353 105 OFFCURVE",
"334 118 CURVE",
"371 145 OFFCURVE",
"400 170 OFFCURVE",
"400 202 CURVE SMOOTH",
"400 247 OFFCURVE",
"342 263 OFFCURVE",
"287 263 CURVE SMOOTH",
"242 263 OFFCURVE",
"202 242 OFFCURVE",
"192 237 CURVE",
"184 216 OFFCURVE",
"178 191 OFFCURVE",
"174 165 CURVE",
"200.374 159.725 OFFCURVE",
"220.564 146.722 OFFCURVE",
"237.969 130.746 CURVE",
"223 123 OFFCURVE",
"210 115 OFFCURVE",
"197 106 CURVE SMOOTH",
"167 87 OFFCURVE",
"144 65 OFFCURVE",
"124 38 CURVE SMOOTH",
"94 -3 OFFCURVE",
"74 -53 OFFCURVE",
"71 -112 CURVE SMOOTH",
"68 -174 OFFCURVE",
"87 -228 OFFCURVE",
"121 -267 CURVE SMOOTH",
"160 -310 OFFCURVE",
"218 -336 OFFCURVE",
"289 -336 CURVE SMOOTH",
"335 -336 OFFCURVE",
"359 -325 OFFCURVE",
"384 -312 CURVE SMOOTH",
"408 -300 OFFCURVE",
"434 -283 OFFCURVE",
"479 -281 CURVE",
"484 -265 LINE",
"448 -260 OFFCURVE",
"439 -260 OFFCURVE",
"402 -257 CURVE SMOOTH",
"361 -255 OFFCURVE",
"327 -251 OFFCURVE",
"314 -249 CURVE SMOOTH",
"248 -239 OFFCURVE",
"198 -220 OFFCURVE",
"166 -188 CURVE SMOOTH",
"138 -159 OFFCURVE",
"124 -127 OFFCURVE",
"128 -76 CURVE SMOOTH",
"131 -38 OFFCURVE",
"146 -5 OFFCURVE",
"169 23 CURVE SMOOTH",
"194 53 OFFCURVE",
"229 77 OFFCURVE",
"270.464 94.364 CURVE",
"289.294 68.577 OFFCURVE",
"307.179 42.861 OFFCURVE",
"329 26 CURVE SMOOTH",
"351 8 OFFCURVE",
"379 0 OFFCURVE",
"409 0 CURVE SMOOTH",
"509 0 LINE",
"509 98 LINE"
);
}
);
width = 509;
}
);
unicode = FECA;
},
{
glyphname = "ain-ar.medi";
lastChange = "2015-11-08 18:59:00 +0000";
layers = (
{
anchors = (
{
name = bottom;
position = "{160, -17}";
},
{
name = top;
position = "{179, 283}";
}
);
layerId = "51F41761-070F-43EA-B302-C90910850260";
name = Regular;
paths = (
{
closed = 1;
nodes = (
"282 98 LINE SMOOTH",
"257 98 OFFCURVE",
"243 104 OFFCURVE",
"226 118 CURVE SMOOTH",
"226 118 OFFCURVE",
"293 159 OFFCURVE",
"293 202 CURVE SMOOTH",
"293 247 OFFCURVE",
"234 263 OFFCURVE",
"179 263 CURVE SMOOTH",
"134 263 OFFCURVE",
"94 242 OFFCURVE",
"84 237 CURVE",
"76 216 OFFCURVE",
"70 191 OFFCURVE",
"67 165 CURVE",
"102 159 OFFCURVE",
"117 146 OFFCURVE",
"138 121 CURVE",
"115 106 OFFCURVE",
"97 98 OFFCURVE",
"66 98 CURVE SMOOTH",
"-22 98 LINE SMOOTH",
"-54 98 OFFCURVE",
"-70 66 OFFCURVE",
"-70 49 CURVE SMOOTH",
"-70 22 OFFCURVE",
"-48 0 OFFCURVE",
"-22 0 CURVE SMOOTH",
"28 0 LINE SMOOTH",
"62 0 OFFCURVE",
"89 7 OFFCURVE",
"113 20 CURVE SMOOTH",
"133 30 OFFCURVE",
"154 48 OFFCURVE",
"181 73 CURVE SMOOTH",
"191 53 OFFCURVE",
"200 40 OFFCURVE",
"221 26 CURVE SMOOTH",
"245 9 OFFCURVE",
"271 0 OFFCURVE",
"301 0 CURVE SMOOTH",
"405 0 LINE",
"405 98 LINE"
);
}
);
width = 405;
}
);
unicode = FECC;
},
{
glyphname = "ain-ar.init";
lastChange = "2015-11-08 18:59:00 +0000";
layers = (
{
anchors = (
{
name = bottom;
position = "{124, -15}";
},
{
name = top;
position = "{171, 342}";
}
);
layerId = "51F41761-070F-43EA-B302-C90910850260";
name = Regular;
paths = (
{
closed = 1;
nodes = (
"311 133 OFFCURVE",
"293 127 OFFCURVE",
"272 121 CURVE",
"208 100 OFFCURVE",
"162 99 OFFCURVE",
"162 99 CURVE",
"114 119 OFFCURVE",
"76 181 OFFCURVE",
"69 222 CURVE",
"98 245 OFFCURVE",
"132 256 OFFCURVE",
"180 256 CURVE SMOOTH",
"222 256 OFFCURVE",
"255 244 OFFCURVE",
"267 239 CURVE",
"287 257 LINE",
"282 265 OFFCURVE",
"227 322 OFFCURVE",
"171 322 CURVE SMOOTH",
"137 322 OFFCURVE",
"96 300 OFFCURVE",
"70 276 CURVE SMOOTH",
"40 249 OFFCURVE",
"17 208 OFFCURVE",
"17 170 CURVE SMOOTH",
"17 143 OFFCURVE",
"32 113 OFFCURVE",
"54 98 CURVE",
"-20 98 LINE SMOOTH",
"-50 98 OFFCURVE",
"-70 77 OFFCURVE",
"-70 50 CURVE SMOOTH",
"-70 22 OFFCURVE",
"-48 0 OFFCURVE",
"-20 0 CURVE SMOOTH",
"63 0 LINE SMOOTH",
"154 0 OFFCURVE",
"217 26 OFFCURVE",
"261 43 CURVE SMOOTH",
"275 48 OFFCURVE",
"264 45 OFFCURVE",
"292 55 CURVE",
"307 85 OFFCURVE",
"314 105 OFFCURVE",
"324 137 CURVE"
);
}
);
width = 384;
}
);
unicode = FECB;
},
{
glyphname = "dotlessfeh-ar";
lastChange = "2015-11-08 18:59:00 +0000";
layers = (
{
anchors = (
{
name = bottom;
position = "{397, -26}";
},
{
name = top;
position = "{657, 444}";
}
);
layerId = "51F41761-070F-43EA-B302-C90910850260";
name = Regular;
paths = (
{
closed = 1;
nodes = (
"618 424 OFFCURVE",
"594 391 OFFCURVE",
"583 371 CURVE SMOOTH",
"567 342 OFFCURVE",
"556 303 OFFCURVE",
"556 269 CURVE SMOOTH",
"556 239 OFFCURVE",
"565 214 OFFCURVE",
"583 198 CURVE SMOOTH",
"595 187 OFFCURVE",
"613 177 OFFCURVE",
"648 177 CURVE SMOOTH",
"664 177 OFFCURVE",
"700 179 OFFCURVE",
"725 203 CURVE",
"728 179 OFFCURVE",
"718 155 OFFCURVE",
"704 138 CURVE SMOOTH",
"681 109 OFFCURVE",
"645 91 OFFCURVE",
"569 91 CURVE SMOOTH",
"546 91 OFFCURVE",
"476 90 OFFCURVE",
"407 90 CURVE",
"338 90 OFFCURVE",
"278 90 OFFCURVE",
"229 97 CURVE SMOOTH",
"169 106 OFFCURVE",
"133 129 OFFCURVE",
"113 160 CURVE SMOOTH",
"103 176 OFFCURVE",
"96 196 OFFCURVE",
"92 220 CURVE",
"73 227 LINE SMOOTH",
"68 184 OFFCURVE",
"69 147 OFFCURVE",
"77 116 CURVE SMOOTH",
"94 55 OFFCURVE",
"142 18 OFFCURVE",
"232 3 CURVE SMOOTH",
"268 -3 OFFCURVE",
"299 -6 OFFCURVE",
"397 -6 CURVE SMOOTH",
"552 -6 OFFCURVE",
"631 -4 OFFCURVE",
"687 39 CURVE SMOOTH",
"720 64 OFFCURVE",
"737 98 OFFCURVE",
"748 137 CURVE SMOOTH",
"760 178 OFFCURVE",
"764 226 OFFCURVE",
"760 269 CURVE SMOOTH",
"753 345 OFFCURVE",
"718 424 OFFCURVE",
"657 424 CURVE SMOOTH"
);
},
{
closed = 1;
nodes = (
"704 268 OFFCURVE",
"684 251 OFFCURVE",
"648 251 CURVE SMOOTH",
"593 251 OFFCURVE",
"588 291 OFFCURVE",
"588 301 CURVE SMOOTH",
"588 317 OFFCURVE",
"600 357 OFFCURVE",
"642 357 CURVE SMOOTH",
"679 357 OFFCURVE",
"701 325 OFFCURVE",
"711 276 CURVE"
);
}
);
width = 822;
}
);
unicode = 06A1;
},
{
glyphname = "dotlessfeh-ar.fina";
lastChange = "2015-11-08 18:59:00 +0000";
layers = (
{
anchors = (
{
name = bottom;
position = "{411, -27}";
},
{
name = top;
position = "{729, 342}";
}
);
layerId = "51F41761-070F-43EA-B302-C90910850260";
name = Regular;
paths = (
{
closed = 1;
nodes = (
"815 98 LINE",
"807 98 OFFCURVE",
"798 98 OFFCURVE",
"790 98 CURVE",
"790 98 OFFCURVE",
"813 141 OFFCURVE",
"813 198 CURVE SMOOTH",
"813 231 OFFCURVE",
"805 264 OFFCURVE",
"789 287 CURVE SMOOTH",
"776 306 OFFCURVE",
"754 322 OFFCURVE",
"729 322 CURVE SMOOTH",
"702 322 OFFCURVE",
"671 303 OFFCURVE",
"646 269 CURVE SMOOTH",
"623 238 OFFCURVE",
"607 195 OFFCURVE",
"607 164 CURVE SMOOTH",
"607 132 OFFCURVE",
"624 109 OFFCURVE",
"624 109 CURVE SMOOTH",
"624 109 OFFCURVE",
"567 94 OFFCURVE",
"410 94 CURVE SMOOTH",
"352 94 OFFCURVE",
"295 96 OFFCURVE",
"250 103 CURVE SMOOTH",
"202 110 OFFCURVE",
"163 121 OFFCURVE",
"136 140 CURVE SMOOTH",
"109 159 OFFCURVE",
"95 183 OFFCURVE",
"91 222 CURVE",
"73 229 LINE",
"73 227 OFFCURVE",
"68 191 OFFCURVE",
"71 154 CURVE SMOOTH",
"79 60 OFFCURVE",
"131 23 OFFCURVE",
"232 5 CURVE SMOOTH",
"280 -3 OFFCURVE",
"332 -7 OFFCURVE",
"395 -7 CURVE SMOOTH",
"485 -7 OFFCURVE",
"568 1 OFFCURVE",
"614 9 CURVE SMOOTH",
"694 23 OFFCURVE",
"730 37 OFFCURVE",
"752 50 CURVE",
"757 32 OFFCURVE",
"779 0 OFFCURVE",
"840 0 CURVE SMOOTH",
"936 0 LINE",
"936 98 LINE"
);
},
{
closed = 1;
nodes = (
"778 156 OFFCURVE",
"755 117 OFFCURVE",
"714 117 CURVE SMOOTH",
"666 117 OFFCURVE",
"642 169 OFFCURVE",
"642 169 CURVE SMOOTH",
"642 169 OFFCURVE",
"668 242 OFFCURVE",
"713 242 CURVE SMOOTH",
"751 242 OFFCURVE",
"778 187 OFFCURVE",
"778 171 CURVE SMOOTH"
);
}
);
width = 936;
}
);
},
{
glyphname = "dotlessfeh-ar.medi";
lastChange = "2015-11-08 18:59:00 +0000";
layers = (
{
anchors = (
{
name = bottom;
position = "{129, -15}";
},
{
name = top;
position = "{181, 328}";
}
);
layerId = "51F41761-070F-43EA-B302-C90910850260";
name = Regular;
paths = (
{
closed = 1;
nodes = (
"155 308 OFFCURVE",
"128 290 OFFCURVE",
"105 259 CURVE SMOOTH",
"84 231 OFFCURVE",
"67 193 OFFCURVE",
"67 158 CURVE SMOOTH",
"67 120 OFFCURVE",
"87 98 OFFCURVE",
"87 98 CURVE SMOOTH",
"-21 98 LINE SMOOTH",
"-47 98 OFFCURVE",
"-70 76 OFFCURVE",
"-70 48 CURVE SMOOTH",
"-70 24 OFFCURVE",
"-53 0 OFFCURVE",
"-21 0 CURVE SMOOTH",
"98 0 LINE SMOOTH",
"174 0 OFFCURVE",
"212 19 OFFCURVE",
"227 45 CURVE",
"232 34 OFFCURVE",
"251 0 OFFCURVE",
"321 0 CURVE SMOOTH",
"392 0 LINE",
"392 98 LINE",
"244 98 LINE SMOOTH",
"244 98 OFFCURVE",
"262 131 OFFCURVE",
"262 185 CURVE SMOOTH",
"262 267 OFFCURVE",
"220 308 OFFCURVE",
"181 308 CURVE SMOOTH"
);
},
{
closed = 1;
nodes = (
"229 155 OFFCURVE",
"206 110 OFFCURVE",
"164 110 CURVE SMOOTH",
"116 110 OFFCURVE",
"99 170 OFFCURVE",
"99 170 CURVE SMOOTH",
"99 170 OFFCURVE",
"129 228 OFFCURVE",
"163 228 CURVE SMOOTH",
"189 228 OFFCURVE",
"229 192 OFFCURVE",
"229 171 CURVE SMOOTH"
);
}
);
width = 392;
}
);
},
{
glyphname = "dotlessfeh-ar.init";
lastChange = "2015-11-08 18:59:00 +0000";
layers = (
{
anchors = (
{
name = bottom;
position = "{63, -15}";
},
{
name = top;
position = "{126, 444}";
}
);
layerId = "51F41761-070F-43EA-B302-C90910850260";
name = Regular;
paths = (
{
closed = 1;
nodes = (
"87 424 OFFCURVE",
"63 391 OFFCURVE",
"52 371 CURVE SMOOTH",
"36 342 OFFCURVE",
"25 303 OFFCURVE",
"25 269 CURVE SMOOTH",
"25 239 OFFCURVE",
"34 214 OFFCURVE",
"52 198 CURVE SMOOTH",
"64 187 OFFCURVE",
"82 177 OFFCURVE",
"117 177 CURVE SMOOTH",
"133 177 OFFCURVE",
"169 179 OFFCURVE",
"194 203 CURVE",
"197 179 OFFCURVE",
"186 153 OFFCURVE",
"173 138 CURVE SMOOTH",
"155 116 OFFCURVE",
"120 98 OFFCURVE",
"57 98 CURVE SMOOTH",
"33 98 OFFCURVE",
"-21 98 OFFCURVE",
"-21 98 CURVE SMOOTH",
"-48 98 OFFCURVE",
"-70 77 OFFCURVE",
"-70 50 CURVE SMOOTH",
"-70 22 OFFCURVE",
"-48 0 OFFCURVE",
"-21 0 CURVE SMOOTH",
"18 0 LINE SMOOTH",
"63 0 OFFCURVE",
"115 4 OFFCURVE",
"157 38 CURVE SMOOTH",
"185 61 OFFCURVE",
"205 96 OFFCURVE",
"217 137 CURVE SMOOTH",
"229 178 OFFCURVE",
"233 226 OFFCURVE",
"229 269 CURVE SMOOTH",
"222 345 OFFCURVE",
"187 424 OFFCURVE",
"126 424 CURVE SMOOTH"
);
},
{
closed = 1;
nodes = (
"173 268 OFFCURVE",
"153 251 OFFCURVE",
"117 251 CURVE SMOOTH",
"62 251 OFFCURVE",
"57 291 OFFCURVE",
"57 301 CURVE SMOOTH",
"57 317 OFFCURVE",
"69 357 OFFCURVE",
"111 357 CURVE SMOOTH",
"148 357 OFFCURVE",
"170 325 OFFCURVE",
"180 276 CURVE"
);
}
);
width = 291;
}
);
},
{
glyphname = "dotlessqaf-ar";
lastChange = "2015-11-08 18:59:00 +0000";
layers = (
{
anchors = (
{
name = bottom;
position = "{277, -218}";
},
{
name = top;
position = "{399, 353}";
}
);
layerId = "51F41761-070F-43EA-B302-C90910850260";
name = Regular;
paths = (
{
closed = 1;
nodes = (
"384 333 OFFCURVE",
"354 326 OFFCURVE",
"328 280 CURVE SMOOTH",
"313 253 OFFCURVE",
"301 214 OFFCURVE",
"301 178 CURVE SMOOTH",
"301 148 OFFCURVE",
"309 123 OFFCURVE",
"327 107 CURVE SMOOTH",
"342 93 OFFCURVE",
"365 86 OFFCURVE",
"395 86 CURVE SMOOTH",
"443 86 OFFCURVE",
"469 104 OFFCURVE",
"469 104 CURVE",
"479 58 LINE",
"479 58 OFFCURVE",
"469 12 OFFCURVE",
"431 -27 CURVE SMOOTH",
"399 -60 OFFCURVE",
"349 -85 OFFCURVE",
"280 -85 CURVE SMOOTH",
"221 -85 OFFCURVE",
"162 -67 OFFCURVE",
"132 -29 CURVE SMOOTH",
"106 4 OFFCURVE",
"108 44 OFFCURVE",
"119 102 CURVE",
"100 109 LINE",
"85 72 OFFCURVE",
"74 33 OFFCURVE",
"71 -4 CURVE SMOOTH",
"69 -32 OFFCURVE",
"70 -60 OFFCURVE",
"83 -92 CURVE SMOOTH",
"97 -127 OFFCURVE",
"121 -153 OFFCURVE",
"155 -171 CURVE SMOOTH",
"188 -189 OFFCURVE",
"230 -198 OFFCURVE",
"277 -198 CURVE SMOOTH",
"322 -198 OFFCURVE",
"356 -190 OFFCURVE",
"387 -175 CURVE SMOOTH",
"415 -161 OFFCURVE",
"440 -141 OFFCURVE",
"460 -115 CURVE SMOOTH",
"479 -90 OFFCURVE",
"494 -60 OFFCURVE",
"504 -24 CURVE SMOOTH",
"513 9 OFFCURVE",
"518 45 OFFCURVE",
"518 80 CURVE SMOOTH",
"518 124 OFFCURVE",
"510 185 OFFCURVE",
"487 243 CURVE SMOOTH",
"475 272 OFFCURVE",
"466 289 OFFCURVE",
"448 308 CURVE SMOOTH",
"433 324 OFFCURVE",
"417 333 OFFCURVE",
"399 333 CURVE SMOOTH"
);
},
{
closed = 1;
nodes = (
"444 266 OFFCURVE",
"456 186 OFFCURVE",
"456 186 CURVE SMOOTH",
"456 186 OFFCURVE",
"439 160 OFFCURVE",
"396 160 CURVE SMOOTH",
"370 160 OFFCURVE",
"333 170 OFFCURVE",
"333 210 CURVE SMOOTH",
"333 243 OFFCURVE",
"358 266 OFFCURVE",
"388 266 CURVE SMOOTH"
);
}
);
width = 578;
}
);
unicode = 066F;
},
{
glyphname = "dotlessqaf-ar.fina";
lastChange = "2015-11-08 18:59:00 +0000";
layers = (
{
anchors = (
{
name = bottom;
position = "{279, -283}";
},
{
name = top;
position = "{419, 287}";
}
);
layerId = "51F41761-070F-43EA-B302-C90910850260";
name = Regular;
paths = (
{
closed = 1;
nodes = (
"378 267 OFFCURVE",
"350 234 OFFCURVE",
"335 194 CURVE SMOOTH",
"325 170 OFFCURVE",
"320 136 OFFCURVE",
"320 112 CURVE SMOOTH",
"320 69 OFFCURVE",
"333 40 OFFCURVE",
"353 22 CURVE SMOOTH",
"369 8 OFFCURVE",
"390 0 OFFCURVE",
"433 0 CURVE SMOOTH",
"474 0 LINE",
"474 0 OFFCURVE",
"479 -52 OFFCURVE",
"431 -100 CURVE SMOOTH",
"397 -134 OFFCURVE",
"353 -150 OFFCURVE",
"287 -150 CURVE SMOOTH",
"216 -150 OFFCURVE",
"162 -132 OFFCURVE",
"133 -93 CURVE SMOOTH",
"108 -60 OFFCURVE",
"110 -21 OFFCURVE",
"121 37 CURVE",
"102 44 LINE",
"86 3 OFFCURVE",
"76 -33 OFFCURVE",
"73 -67 CURVE SMOOTH",
"71 -94 OFFCURVE",
"72 -123 OFFCURVE",
"85 -155 CURVE SMOOTH",
"100 -192 OFFCURVE",
"126 -217 OFFCURVE",
"157 -234 CURVE SMOOTH",
"190 -252 OFFCURVE",
"232 -263 OFFCURVE",
"279 -263 CURVE SMOOTH",
"320 -263 OFFCURVE",
"357 -255 OFFCURVE",
"389 -239 CURVE SMOOTH",
"417 -225 OFFCURVE",
"442 -204 OFFCURVE",
"461 -179 CURVE SMOOTH",
"523 -97 OFFCURVE",
"519 0 OFFCURVE",
"519 0 CURVE",
"642 0 LINE",
"642 98 LINE",
"519 98 LINE SMOOTH",
"519 98 OFFCURVE",
"516 170 OFFCURVE",
"487 221 CURVE SMOOTH",
"467 256 OFFCURVE",
"442 267 OFFCURVE",
"419 267 CURVE SMOOTH"
);
},
{
closed = 1;
nodes = (
"461 200 OFFCURVE",
"466 98 OFFCURVE",
"466 98 CURVE SMOOTH",
"413 98 LINE SMOOTH",
"390 98 OFFCURVE",
"354 102 OFFCURVE",
"354 145 CURVE SMOOTH",
"354 172 OFFCURVE",
"378 200 OFFCURVE",
"405 200 CURVE SMOOTH"
);
}
);
width = 642;
}
);
},
{
glyphname = "kaf-ar";
lastChange = "2015-11-08 18:59:00 +0000";
layers = (
{
anchors = (
{
name = bottom;
position = "{397, -26}";
},
{
name = top;
position = "{396, 337}";
}
);
layerId = "51F41761-070F-43EA-B302-C90910850260";
name = Regular;
paths = (
{
closed = 1;
nodes = (
"671 512 OFFCURVE",
"651 537 OFFCURVE",
"639 566 CURVE",
"581 490 LINE",
"597 450 OFFCURVE",
"616 369 OFFCURVE",
"626 320 CURVE SMOOTH",
"636 271 OFFCURVE",
"646 206 OFFCURVE",
"652 152 CURVE",
"623 111 OFFCURVE",
"616 102 OFFCURVE",
"554 97 CURVE SMOOTH",
"514 94 OFFCURVE",
"452 92 OFFCURVE",
"402 92 CURVE SMOOTH",
"340 92 OFFCURVE",
"276 95 OFFCURVE",
"229 102 CURVE SMOOTH",
"175 110 OFFCURVE",
"136 123 OFFCURVE",
"113 159 CURVE SMOOTH",
"104 173 OFFCURVE",
"96 194 OFFCURVE",
"92 219 CURVE",
"73 226 LINE",
"68 183 OFFCURVE",
"69 145 OFFCURVE",
"77 115 CURVE SMOOTH",
"84 90 OFFCURVE",
"95 69 OFFCURVE",
"119 49 CURVE SMOOTH",
"143 29 OFFCURVE",
"182 9 OFFCURVE",
"231 2 CURVE SMOOTH",
"268 -3 OFFCURVE",
"330 -6 OFFCURVE",
"411 -6 CURVE SMOOTH",
"505 -6 OFFCURVE",
"568 -2 OFFCURVE",
"597 4 CURVE SMOOTH",
"624 10 OFFCURVE",
"651 25 OFFCURVE",
"671 54 CURVE SMOOTH",
"689 80 OFFCURVE",
"699 115 OFFCURVE",
"702 157 CURVE",
"700 205 OFFCURVE",
"699 213 OFFCURVE",
"683 322 CURVE SMOOTH",
"676 369 OFFCURVE",
"675 381 OFFCURVE",
"673 397 CURVE",
"670 439 OFFCURVE",
"676 461 OFFCURVE",
"699 481 CURVE"
);
},
{
closed = 1;
nodes = (
"457 240 OFFCURVE",
"442 241 OFFCURVE",
"410 241 CURVE SMOOTH",
"384 241 OFFCURVE",
"360 246 OFFCURVE",
"360 265 CURVE",
"377 279 OFFCURVE",
"399 289 OFFCURVE",
"424 297 CURVE",
"432 307 OFFCURVE",
"438 316 OFFCURVE",
"443 327 CURVE",
"430 324 OFFCURVE",
"406 316 OFFCURVE",
"384 304 CURVE SMOOTH",
"352 287 OFFCURVE",
"336 267 OFFCURVE",
"336 243 CURVE SMOOTH",
"336 228 OFFCURVE",
"349 216 OFFCURVE",
"384 214 CURVE SMOOTH",
"412 212 OFFCURVE",
"423 210 OFFCURVE",
"423 203 CURVE SMOOTH",
"423 183 OFFCURVE",
"346 163 OFFCURVE",
"300 149 CURVE",
"330 147 OFFCURVE",
"362 148 OFFCURVE",
"396 152 CURVE",
"440 178 OFFCURVE",
"457 197 OFFCURVE",
"457 219 CURVE SMOOTH"
);
}
);
width = 762;
}
);
unicode = 0643;
},
{
glyphname = "kaf-ar.fina";
lastChange = "2015-11-08 18:59:00 +0000";
layers = (
{
anchors = (
{
name = bottom;
position = "{395, -25}";
},
{
name = top;
position = "{390, 337}";
}
);
layerId = "51F41761-070F-43EA-B302-C90910850260";
name = Regular;
paths = (
{
closed = 1;
nodes = (
"782 98 LINE SMOOTH",
"755 98 OFFCURVE",
"734 107 OFFCURVE",
"719 125 CURVE",
"708 139 OFFCURVE",
"702 162 OFFCURVE",
"700 178 CURVE SMOOTH",
"682 325 OFFCURVE",
"672 430 OFFCURVE",
"659 568 CURVE",
"636 547 OFFCURVE",
"619 529 OFFCURVE",
"598 497 CURVE",
"622 360 OFFCURVE",
"632 272 OFFCURVE",
"643 188 CURVE",
"644 176 LINE SMOOTH",
"646 157 OFFCURVE",
"641 138 OFFCURVE",
"627 122 CURVE SMOOTH",
"613 106 OFFCURVE",
"591 95 OFFCURVE",
"563 95 CURVE SMOOTH",
"407 93 LINE SMOOTH",
"341 92 OFFCURVE",
"274 94 OFFCURVE",
"229 101 CURVE SMOOTH",
"174 109 OFFCURVE",
"133 128 OFFCURVE",
"113 159 CURVE SMOOTH",
"104 173 OFFCURVE",
"96 194 OFFCURVE",
"92 219 CURVE",
"73 226 LINE",
"68 183 OFFCURVE",
"69 145 OFFCURVE",
"77 115 CURVE SMOOTH",
"83 92 OFFCURVE",
"95 69 OFFCURVE",
"119 49 CURVE SMOOTH",
"138 33 OFFCURVE",
"173 12 OFFCURVE",
"231 2 CURVE SMOOTH",
"266 -4 OFFCURVE",
"305 -6 OFFCURVE",
"358 -6 CURVE SMOOTH",
"395 -6 OFFCURVE",
"534 -5 OFFCURVE",
"586 -4 CURVE",
"648 -2 OFFCURVE",
"689 26 OFFCURVE",
"692 82 CURVE",
"703 26 OFFCURVE",
"738 0 OFFCURVE",
"795 0 CURVE SMOOTH",
"833 0 LINE",
"833 98 LINE"
);
},
{
closed = 1;
nodes = (
"457 240 OFFCURVE",
"442 241 OFFCURVE",
"410 241 CURVE SMOOTH",
"384 241 OFFCURVE",
"360 246 OFFCURVE",
"360 265 CURVE",
"377 279 OFFCURVE",
"399 289 OFFCURVE",
"424 297 CURVE",
"432 307 OFFCURVE",
"438 316 OFFCURVE",
"443 327 CURVE",
"430 324 OFFCURVE",
"406 316 OFFCURVE",
"384 304 CURVE SMOOTH",
"352 287 OFFCURVE",
"336 267 OFFCURVE",
"336 243 CURVE SMOOTH",
"336 228 OFFCURVE",
"349 216 OFFCURVE",
"384 214 CURVE SMOOTH",
"412 212 OFFCURVE",
"423 210 OFFCURVE",
"423 203 CURVE SMOOTH",
"423 183 OFFCURVE",
"346 163 OFFCURVE",
"300 149 CURVE",
"330 147 OFFCURVE",
"362 148 OFFCURVE",
"396 152 CURVE",
"440 178 OFFCURVE",
"457 197 OFFCURVE",
"457 219 CURVE SMOOTH"
);
}
);
width = 833;
}
);
unicode = FEDA;
},
{
glyphname = "kaf-ar.medi";
lastChange = "2015-11-08 18:59:00 +0000";
layers = (
{
anchors = (
{
name = bottom;
position = "{82, -24}";
},
{
name = top;
position = "{107, 520}";
}
);
layerId = "51F41761-070F-43EA-B302-C90910850260";
name = Regular;
paths = (
{
closed = 1;
nodes = (
"267 511 OFFCURVE",
"272 538 OFFCURVE",
"276 568 CURVE",
"201 533 OFFCURVE",
"79 472 OFFCURVE",
"4 410 CURVE",
"0 393 OFFCURVE",
"-4 370 OFFCURVE",
"-7 341 CURVE",
"21 315 OFFCURVE",
"49 283 OFFCURVE",
"73 252 CURVE SMOOTH",
"90 231 OFFCURVE",
"125 179 OFFCURVE",
"151 140 CURVE",
"151 140 OFFCURVE",
"130 98 OFFCURVE",
"75 98 CURVE SMOOTH",
"-21 98 LINE SMOOTH",
"-48 98 OFFCURVE",
"-70 76 OFFCURVE",
"-70 49 CURVE SMOOTH",
"-70 21 OFFCURVE",
"-49 0 OFFCURVE",
"-21 0 CURVE SMOOTH",
"83 0 LINE SMOOTH",
"147 0 OFFCURVE",
"179 38 OFFCURVE",
"188 113 CURVE",
"217 37 OFFCURVE",
"257 0 OFFCURVE",
"336 0 CURVE SMOOTH",
"371 0 LINE",
"371 98 LINE",
"335 98 LINE SMOOTH",
"271 98 OFFCURVE",
"238 140 OFFCURVE",
"214 176 CURVE",
"191 208 OFFCURVE",
"157 252 OFFCURVE",
"125 286 CURVE SMOOTH",
"107 306 OFFCURVE",
"68 346 OFFCURVE",
"44 370 CURVE",
"120 413 OFFCURVE",
"211 461 OFFCURVE",
"259 480 CURVE"
);
}
);
width = 371;
}
);
unicode = FEDC;
},
{
glyphname = "kaf-ar.init";
lastChange = "2015-11-08 18:59:00 +0000";
layers = (
{
anchors = (
{
name = bottom;
position = "{24, -14}";
},
{
name = top;
position = "{87, 508}";
}
);
layerId = "51F41761-070F-43EA-B302-C90910850260";
name = Regular;
paths = (
{
closed = 1;
nodes = (
"255 510 OFFCURVE",
"260 537 OFFCURVE",
"264 568 CURVE",
"190 533 OFFCURVE",
"67 472 OFFCURVE",
"-8 410 CURVE",
"-15 383 OFFCURVE",
"-20 363 OFFCURVE",
"-24 327 CURVE",
"3 297 LINE",
"12 315 LINE",
"69 269 OFFCURVE",
"149 187 OFFCURVE",
"149 139 CURVE",
"141 121 OFFCURVE",
"109 98 OFFCURVE",
"73 98 CURVE SMOOTH",
"-21 98 LINE SMOOTH",
"-48 98 OFFCURVE",
"-70 76 OFFCURVE",
"-70 49 CURVE SMOOTH",
"-70 21 OFFCURVE",
"-48 0 OFFCURVE",
"-21 0 CURVE SMOOTH",
"71 0 LINE SMOOTH",
"149 0 OFFCURVE",
"195 46 OFFCURVE",
"195 128 CURVE SMOOTH",
"195 192 OFFCURVE",
"167 254 OFFCURVE",
"134 297 CURVE SMOOTH",
"113 324 OFFCURVE",
"81 353 OFFCURVE",
"45 378 CURVE",
"122 421 OFFCURVE",
"198 457 OFFCURVE",
"247 480 CURVE"
);
}
);
width = 244;
}
);
unicode = FEDB;
},
{
glyphname = "keheh-ar";
lastChange = "2015-11-08 18:59:00 +0000";
layers = (
{
anchors = (
{
name = bottom;
position = "{395, -16}";
},
{
name = top;
position = "{363, 121}";
}
);
layerId = "51F41761-070F-43EA-B302-C90910850260";
name = Regular;
paths = (
{
closed = 1;
nodes = (
"68 182 OFFCURVE",
"69 145 OFFCURVE",
"77 114 CURVE SMOOTH",
"94 53 OFFCURVE",
"142 16 OFFCURVE",
"232 1 CURVE SMOOTH",
"268 -5 OFFCURVE",
"299 -6 OFFCURVE",
"397 -6 CURVE",
"451 -5 OFFCURVE",
"506 -6 OFFCURVE",
"560 -2 CURVE SMOOTH",
"638 4 OFFCURVE",
"684 46 OFFCURVE",
"684 128 CURVE SMOOTH",
"684 192 OFFCURVE",
"656 254 OFFCURVE",
"623 297 CURVE SMOOTH",
"602 324 OFFCURVE",
"570 353 OFFCURVE",
"534 378 CURVE",
"611 421 OFFCURVE",
"687 457 OFFCURVE",
"736 480 CURVE",
"744 510 OFFCURVE",
"749 537 OFFCURVE",
"753 568 CURVE",
"679 533 OFFCURVE",
"556 472 OFFCURVE",
"481 410 CURVE",
"474 383 OFFCURVE",
"469 363 OFFCURVE",
"465 327 CURVE",
"492 297 LINE",
"501 315 LINE",
"558 269 OFFCURVE",
"638 187 OFFCURVE",
"638 139 CURVE",
"630 121 OFFCURVE",
"598 95 OFFCURVE",
"562 95 CURVE",
"510 91 OFFCURVE",
"459 93 OFFCURVE",
"407 92 CURVE",
"338 92 OFFCURVE",
"278 95 OFFCURVE",
"229 102 CURVE SMOOTH",
"169 111 OFFCURVE",
"133 127 OFFCURVE",
"113 158 CURVE SMOOTH",
"103 174 OFFCURVE",
"96 194 OFFCURVE",
"92 218 CURVE",
"73 225 LINE"
);
}
);
width = 733;
}
);
unicode = 06A9;
},
{
glyphname = "keheh-ar.fina";
lastChange = "2015-11-08 18:59:00 +0000";
layers = (
{
anchors = (
{
name = bottom;
position = "{376, -20}";
},
{
name = top;
position = "{338, 132}";
}
);
layerId = "51F41761-070F-43EA-B302-C90910850260";
name = Regular;
paths = (
{
closed = 1;
nodes = (
"744 508 OFFCURVE",
"750 535 OFFCURVE",
"753 565 CURVE",
"679 530 OFFCURVE",
"557 469 OFFCURVE",
"481 407 CURVE",
"480 401 OFFCURVE",
"469 364 OFFCURVE",
"466 324 CURVE",
"494 293 LINE",
"501 308 LINE",
"519 288 OFFCURVE",
"537 267 OFFCURVE",
"553 247 CURVE SMOOTH",
"596 192 OFFCURVE",
"628 142 OFFCURVE",
"628 142 CURVE SMOOTH",
"628 142 OFFCURVE",
"607 97 OFFCURVE",
"553 94 CURVE SMOOTH",
"497 91 OFFCURVE",
"456 93 OFFCURVE",
"407 93 CURVE SMOOTH",
"338 93 OFFCURVE",
"278 94 OFFCURVE",
"229 101 CURVE SMOOTH",
"174 109 OFFCURVE",
"133 128 OFFCURVE",
"113 159 CURVE SMOOTH",
"103 175 OFFCURVE",
"96 195 OFFCURVE",
"92 219 CURVE",
"73 226 LINE",
"68 183 OFFCURVE",
"69 146 OFFCURVE",
"77 115 CURVE SMOOTH",
"94 54 OFFCURVE",
"142 18 OFFCURVE",
"232 3 CURVE SMOOTH",
"268 -3 OFFCURVE",
"299 -7 OFFCURVE",
"397 -6 CURVE SMOOTH",
"452 -5 OFFCURVE",
"502 -8 OFFCURVE",
"561 -4 CURVE SMOOTH",
"626 0 OFFCURVE",
"669 35 OFFCURVE",
"666 108 CURVE",
"692 30 OFFCURVE",
"734 0 OFFCURVE",
"814 0 CURVE SMOOTH",
"848 0 LINE",
"848 98 LINE",
"813 98 LINE SMOOTH",
"749 98 OFFCURVE",
"716 141 OFFCURVE",
"691 177 CURVE SMOOTH",
"669 209 OFFCURVE",
"635 248 OFFCURVE",
"604 282 CURVE SMOOTH",
"561 329 OFFCURVE",
"522 367 OFFCURVE",
"522 367 CURVE SMOOTH",
"603 413 OFFCURVE",
"686 457 OFFCURVE",
"737 477 CURVE"
);
}
);
width = 848;
}
);
unicode = FB8F;
},
{
glyphname = "gaf-ar";
lastChange = "2015-11-08 18:59:00 +0000";
layers = (
{
components = (
{
name = "keheh-ar";
}
);
layerId = "51F41761-070F-43EA-B302-C90910850260";
name = Regular;
paths = (
{
closed = 1;
nodes = (
"541 495 OFFCURVE",
"602 528 OFFCURVE",
"683 565 CURVE",
"690 598 LINE",
"649 578 OFFCURVE",
"556 534 OFFCURVE",
"488 489 CURVE",
"482 454 LINE"
);
}
);
width = 733;
}
);
unicode = 06AF;
},
{
glyphname = "gaf-ar.fina";
lastChange = "2015-11-08 18:59:00 +0000";
layers = (
{
components = (
{
name = "keheh-ar.fina";
}
);
layerId = "51F41761-070F-43EA-B302-C90910850260";
name = Regular;
paths = (
{
closed = 1;
nodes = (
"544 497 OFFCURVE",
"604 530 OFFCURVE",
"686 567 CURVE",
"693 600 LINE",
"651 580 OFFCURVE",
"558 536 OFFCURVE",
"490 491 CURVE",
"484 456 LINE"
);
}
);
width = 848;
}
);
unicode = FB93;
},
{
glyphname = "gaf-ar.medi";
lastChange = "2015-11-08 18:59:00 +0000";
layers = (
{
components = (
{
name = "kaf-ar.medi";
}
);
layerId = "51F41761-070F-43EA-B302-C90910850260";
name = Regular;
paths = (
{
closed = 1;
nodes = (
"86 500 OFFCURVE",
"146 533 OFFCURVE",
"228 570 CURVE",
"235 603 LINE",
"193 583 OFFCURVE",
"101 539 OFFCURVE",
"33 494 CURVE",
"26 459 LINE"
);
}
);
width = 371;
}
);
unicode = FB95;
},
{
glyphname = "gaf-ar.init";
lastChange = "2015-11-08 18:59:00 +0000";
layers = (
{
components = (
{
name = "kaf-ar.init";
}
);
layerId = "51F41761-070F-43EA-B302-C90910850260";
name = Regular;
paths = (
{
closed = 1;
nodes = (
"72 495 OFFCURVE",
"133 528 OFFCURVE",
"214 565 CURVE",
"221 598 LINE",
"180 578 OFFCURVE",
"87 534 OFFCURVE",
"19 489 CURVE",
"13 454 LINE"
);
}
);
width = 244;
}
);
unicode = FB94;
},
{
glyphname = "kafswash-ar";
lastChange = "2015-11-08 18:59:00 +0000";
layers = (
{
anchors = (
{
name = bottom;
position = "{439, -15}";
},
{
name = top;
position = "{313, 479}";
}
);
layerId = "51F41761-070F-43EA-B302-C90910850260";
name = Regular;
paths = (
{
closed = 1;
nodes = (
"358 468 OFFCURVE",
"307 425 OFFCURVE",
"280 394 CURVE SMOOTH",
"248 357 OFFCURVE",
"229 316 OFFCURVE",
"229 284 CURVE SMOOTH",
"229 265 OFFCURVE",
"236 250 OFFCURVE",
"249 237 CURVE SMOOTH",
"264 222 OFFCURVE",
"289 211 OFFCURVE",
"321 205 CURVE SMOOTH",
"343 201 OFFCURVE",
"363 200 OFFCURVE",
"374 200 CURVE SMOOTH",
"406 200 OFFCURVE",
"571 206 OFFCURVE",
"630 206 CURVE SMOOTH",
"682 206 OFFCURVE",
"718 183 OFFCURVE",
"739 163 CURVE SMOOTH",
"756 147 OFFCURVE",
"760 133 OFFCURVE",
"767 106 CURVE SMOOTH",
"767 106 OFFCURVE",
"686 103 OFFCURVE",
"649 102 CURVE SMOOTH",
"613 100 OFFCURVE",
"576 100 OFFCURVE",
"539 100 CURVE SMOOTH",
"466 100 OFFCURVE",
"415 97 OFFCURVE",
"376 97 CURVE SMOOTH",
"314 97 OFFCURVE",
"279 99 OFFCURVE",
"229 106 CURVE SMOOTH",
"174 114 OFFCURVE",
"133 133 OFFCURVE",
"113 164 CURVE SMOOTH",
"103 180 OFFCURVE",
"96 200 OFFCURVE",
"92 224 CURVE",
"73 231 LINE",
"68 188 OFFCURVE",
"69 151 OFFCURVE",
"77 120 CURVE SMOOTH",
"94 59 OFFCURVE",
"142 22 OFFCURVE",
"232 7 CURVE SMOOTH",
"268 1 OFFCURVE",
"299 -2 OFFCURVE",
"397 -2 CURVE SMOOTH",
"440 -2 OFFCURVE",
"588 3 OFFCURVE",
"692 7 CURVE SMOOTH",
"729 9 OFFCURVE",
"759 25 OFFCURVE",
"781 56 CURVE SMOOTH",
"796 77 OFFCURVE",
"803 98 OFFCURVE",
"804 102 CURVE",
"803 133 OFFCURVE",
"795 176 OFFCURVE",
"768 213 CURVE SMOOTH",
"733 258 OFFCURVE",
"677 281 OFFCURVE",
"599 281 CURVE SMOOTH",
"561 281 OFFCURVE",
"416 276 OFFCURVE",
"384 276 CURVE SMOOTH",
"364 276 OFFCURVE",
"343 278 OFFCURVE",
"325 283 CURVE SMOOTH",
"293 289 OFFCURVE",
"271 306 OFFCURVE",
"268 329 CURVE",
"305 367 OFFCURVE",
"370 399 OFFCURVE",
"426 416 CURVE",
"434 444 OFFCURVE",
"440 471 OFFCURVE",
"443 500 CURVE"
);
}
);
width = 864;
}
);
unicode = 06AA;
},
{
glyphname = "kafswash-ar.fina";
lastChange = "2015-11-08 18:59:00 +0000";
layers = (
{
anchors = (
{
name = bottom;
position = "{440, -17}";
},
{
name = top;
position = "{314, 480}";
}
);
layerId = "51F41761-070F-43EA-B302-C90910850260";
name = Regular;
paths = (
{
closed = 1;
nodes = (
"804 98 LINE",
"803 129 OFFCURVE",
"794 177 OFFCURVE",
"768 213 CURVE SMOOTH",
"733 258 OFFCURVE",
"677 281 OFFCURVE",
"599 281 CURVE SMOOTH",
"561 281 OFFCURVE",
"416 276 OFFCURVE",
"384 276 CURVE SMOOTH",
"364 276 OFFCURVE",
"343 278 OFFCURVE",
"325 283 CURVE",
"293 289 OFFCURVE",
"271 306 OFFCURVE",
"268 329 CURVE",
"305 367 OFFCURVE",
"370 399 OFFCURVE",
"426 416 CURVE",
"434 444 OFFCURVE",
"440 471 OFFCURVE",
"443 500 CURVE",
"358 468 OFFCURVE",
"307 425 OFFCURVE",
"280 394 CURVE SMOOTH",
"248 357 OFFCURVE",
"229 316 OFFCURVE",
"229 284 CURVE SMOOTH",
"229 265 OFFCURVE",
"236 250 OFFCURVE",
"249 237 CURVE SMOOTH",
"264 222 OFFCURVE",
"289 211 OFFCURVE",
"321 205 CURVE SMOOTH",
"343 201 OFFCURVE",
"363 200 OFFCURVE",
"374 200 CURVE SMOOTH",
"406 200 OFFCURVE",
"571 206 OFFCURVE",
"630 206 CURVE SMOOTH",
"682 206 OFFCURVE",
"718 183 OFFCURVE",
"739 163 CURVE SMOOTH",
"755 148 OFFCURVE",
"759 137 OFFCURVE",
"766 106 CURVE",
"766 106 OFFCURVE",
"730 105 OFFCURVE",
"649 102 CURVE SMOOTH",
"613 101 OFFCURVE",
"576 100 OFFCURVE",
"539 100 CURVE SMOOTH",
"466 100 OFFCURVE",
"415 97 OFFCURVE",
"376 97 CURVE SMOOTH",
"314 97 OFFCURVE",
"279 99 OFFCURVE",
"229 106 CURVE SMOOTH",
"174 114 OFFCURVE",
"133 133 OFFCURVE",
"113 164 CURVE SMOOTH",
"103 180 OFFCURVE",
"96 200 OFFCURVE",
"92 224 CURVE",
"73 231 LINE",
"68 188 OFFCURVE",
"69 151 OFFCURVE",
"77 120 CURVE SMOOTH",
"94 59 OFFCURVE",
"142 22 OFFCURVE",
"232 7 CURVE SMOOTH",
"268 1 OFFCURVE",
"299 -2 OFFCURVE",
"397 -2 CURVE SMOOTH",
"440 -2 OFFCURVE",
"588 3 OFFCURVE",
"692 7 CURVE SMOOTH",
"727 9 OFFCURVE",
"755 23 OFFCURVE",
"776 50 CURVE",
"781 38 OFFCURVE",
"789 28 OFFCURVE",
"798 21 CURVE SMOOTH",
"819 5 OFFCURVE",
"849 0 OFFCURVE",
"864 0 CURVE SMOOTH",
"907 0 LINE",
"907 98 LINE"
);
}
);
width = 907;
}
);
},
{
glyphname = "kafswash-ar.init";
lastChange = "2015-11-08 18:59:00 +0000";
layers = (
{
anchors = (
{
name = bottom;
position = "{265, -18}";
},
{
name = top;
position = "{116, 481}";
}
);
layerId = "51F41761-070F-43EA-B302-C90910850260";
name = Regular;
paths = (
{
closed = 1;
nodes = (
"602 133 OFFCURVE",
"593 177 OFFCURVE",
"567 213 CURVE SMOOTH",
"532 258 OFFCURVE",
"476 281 OFFCURVE",
"398 281 CURVE SMOOTH",
"360 281 OFFCURVE",
"215 276 OFFCURVE",
"183 276 CURVE SMOOTH",
"163 276 OFFCURVE",
"142 278 OFFCURVE",
"124 283 CURVE",
"92 289 OFFCURVE",
"70 306 OFFCURVE",
"67 329 CURVE",
"104 367 OFFCURVE",
"169 399 OFFCURVE",
"225 416 CURVE",
"233 444 OFFCURVE",
"239 471 OFFCURVE",
"242 500 CURVE",
"157 468 OFFCURVE",
"106 425 OFFCURVE",
"79 394 CURVE SMOOTH",
"47 357 OFFCURVE",
"28 316 OFFCURVE",
"28 284 CURVE SMOOTH",
"28 265 OFFCURVE",
"35 250 OFFCURVE",
"48 237 CURVE SMOOTH",
"63 222 OFFCURVE",
"88 211 OFFCURVE",
"120 205 CURVE SMOOTH",
"142 201 OFFCURVE",
"162 200 OFFCURVE",
"173 200 CURVE SMOOTH",
"205 200 OFFCURVE",
"370 206 OFFCURVE",
"429 206 CURVE SMOOTH",
"481 206 OFFCURVE",
"517 183 OFFCURVE",
"538 163 CURVE SMOOTH",
"555 147 OFFCURVE",
"559 133 OFFCURVE",
"566 106 CURVE",
"559 106 OFFCURVE",
"484 103 OFFCURVE",
"454 102 CURVE SMOOTH",
"418 100 OFFCURVE",
"375 100 OFFCURVE",
"338 100 CURVE SMOOTH",
"241 100 OFFCURVE",
"210 98 OFFCURVE",
"124 98 CURVE",
"-21 98 LINE SMOOTH",
"-48 98 OFFCURVE",
"-70 77 OFFCURVE",
"-70 50 CURVE SMOOTH",
"-70 22 OFFCURVE",
"-48 0 OFFCURVE",
"-21 0 CURVE SMOOTH",
"143 0 LINE",
"266 0 OFFCURVE",
"391 1 OFFCURVE",
"491 7 CURVE SMOOTH",
"535 10 OFFCURVE",
"561 31 OFFCURVE",
"577 53 CURVE SMOOTH",
"591 71 OFFCURVE",
"598 87 OFFCURVE",
"603 98 CURVE"
);
}
);
width = 663;
}
);
},
{
glyphname = "kafswash-ar.medi";
lastChange = "2015-11-08 18:59:00 +0000";
layers = (
{
anchors = (
{
name = bottom;
position = "{266, -16}";
},
{
name = top;
position = "{112, 481}";
}
);
layerId = "51F41761-070F-43EA-B302-C90910850260";
name = Regular;
paths = (
{
closed = 1;
nodes = (
"603 98 LINE",
"602 133 OFFCURVE",
"593 177 OFFCURVE",
"567 213 CURVE SMOOTH",
"532 258 OFFCURVE",
"476 281 OFFCURVE",
"398 281 CURVE SMOOTH",
"360 281 OFFCURVE",
"215 276 OFFCURVE",
"183 276 CURVE SMOOTH",
"163 276 OFFCURVE",
"142 278 OFFCURVE",
"124 283 CURVE",
"92 289 OFFCURVE",
"70 306 OFFCURVE",
"67 329 CURVE",
"104 367 OFFCURVE",
"169 399 OFFCURVE",
"225 416 CURVE",
"233 444 OFFCURVE",
"239 471 OFFCURVE",
"242 500 CURVE",
"157 468 OFFCURVE",
"106 425 OFFCURVE",
"79 394 CURVE SMOOTH",
"47 357 OFFCURVE",
"28 316 OFFCURVE",
"28 284 CURVE SMOOTH",
"28 265 OFFCURVE",
"35 250 OFFCURVE",
"48 237 CURVE SMOOTH",
"63 222 OFFCURVE",
"88 211 OFFCURVE",
"120 205 CURVE SMOOTH",
"142 201 OFFCURVE",
"162 200 OFFCURVE",
"173 200 CURVE SMOOTH",
"205 200 OFFCURVE",
"370 206 OFFCURVE",
"429 206 CURVE SMOOTH",
"481 206 OFFCURVE",
"517 183 OFFCURVE",
"538 163 CURVE SMOOTH",
"555 147 OFFCURVE",
"559 133 OFFCURVE",
"566 106 CURVE",
"566 106 OFFCURVE",
"491 103 OFFCURVE",
"454 102 CURVE SMOOTH",
"418 100 OFFCURVE",
"375 100 OFFCURVE",
"338 100 CURVE SMOOTH",
"241 100 OFFCURVE",
"210 98 OFFCURVE",
"124 98 CURVE",
"-21 98 LINE SMOOTH",
"-48 98 OFFCURVE",
"-70 77 OFFCURVE",
"-70 50 CURVE SMOOTH",
"-70 22 OFFCURVE",
"-48 0 OFFCURVE",
"-21 0 CURVE SMOOTH",
"143 0 LINE",
"266 0 OFFCURVE",
"391 3 OFFCURVE",
"491 7 CURVE SMOOTH",
"526 9 OFFCURVE",
"555 23 OFFCURVE",
"576 51 CURVE",
"580 41 OFFCURVE",
"585 32 OFFCURVE",
"593 26 CURVE SMOOTH",
"614 6 OFFCURVE",
"648 0 OFFCURVE",
"664 0 CURVE SMOOTH",
"707 0 LINE",
"707 98 LINE"
);
}
);
width = 707;
}
);
},
{
glyphname = "lam-ar";
lastChange = "2015-11-08 18:59:00 +0000";
layers = (
{
anchors = (
{
name = bottom;
position = "{285, -219}";
},
{
name = top;
position = "{327, 548}";
}
);
layerId = "51F41761-070F-43EA-B302-C90910850260";
name = Regular;
paths = (
{
closed = 1;
nodes = (
"457 514 OFFCURVE",
"437 548 OFFCURVE",
"427 566 CURVE",
"368 490 LINE",
"382 454 OFFCURVE",
"409 358 OFFCURVE",
"439 169 CURVE SMOOTH",
"450 99 OFFCURVE",
"455 49 OFFCURVE",
"455 25 CURVE SMOOTH",
"455 -9 OFFCURVE",
"445 -35 OFFCURVE",
"419 -54 CURVE SMOOTH",
"390 -75 OFFCURVE",
"344 -86 OFFCURVE",
"289 -86 CURVE SMOOTH",
"253 -86 OFFCURVE",
"222 -81 OFFCURVE",
"196 -73 CURVE SMOOTH",
"155 -60 OFFCURVE",
"135 -41 OFFCURVE",
"124 -19 CURVE SMOOTH",
"105 18 OFFCURVE",
"113 66 OFFCURVE",
"120 101 CURVE",
"101 107 LINE",
"86 71 OFFCURVE",
"74 32 OFFCURVE",
"71 -6 CURVE SMOOTH",
"69 -36 OFFCURVE",
"72 -65 OFFCURVE",
"84 -94 CURVE SMOOTH",
"97 -126 OFFCURVE",
"120 -153 OFFCURVE",
"156 -172 CURVE SMOOTH",
"191 -190 OFFCURVE",
"234 -199 OFFCURVE",
"285 -199 CURVE SMOOTH",
"355 -199 OFFCURVE",
"408 -179 OFFCURVE",
"444 -138 CURVE SMOOTH",
"466 -113 OFFCURVE",
"481 -81 OFFCURVE",
"490 -44 CURVE SMOOTH",
"499 -8 OFFCURVE",
"501 33 OFFCURVE",
"496 78 CURVE",
"479 265 OFFCURVE",
"468 346 OFFCURVE",
"463 401 CURVE SMOOTH",
"459 446 OFFCURVE",
"462 464 OFFCURVE",
"486 484 CURVE"
);
}
);
width = 559;
}
);
unicode = 0644;
},
{
glyphname = "lam-ar.fina";
lastChange = "2015-11-08 18:59:00 +0000";
layers = (
{
anchors = (
{
name = bottom;
position = "{284, -303}";
},
{
name = top;
position = "{346, 548}";
}
);
layerId = "51F41761-070F-43EA-B302-C90910850260";
name = Regular;
paths = (
{
closed = 1;
nodes = (
"560 98 LINE SMOOTH",
"552 98 OFFCURVE",
"524 101 OFFCURVE",
"507 116 CURVE SMOOTH",
"496 126 OFFCURVE",
"490 141 OFFCURVE",
"485 178 CURVE SMOOTH",
"475 253 OFFCURVE",
"443 567 OFFCURVE",
"443 567 CURVE",
"424 550 OFFCURVE",
"405 530 OFFCURVE",
"382 496 CURVE",
"388 454 OFFCURVE",
"442 54 OFFCURVE",
"451 -27 CURVE SMOOTH",
"456 -72 OFFCURVE",
"459 -113 OFFCURVE",
"416 -142 CURVE SMOOTH",
"391 -160 OFFCURVE",
"351 -170 OFFCURVE",
"288 -170 CURVE SMOOTH",
"256 -170 OFFCURVE",
"220 -164 OFFCURVE",
"195 -156 CURVE SMOOTH",
"151 -142 OFFCURVE",
"129 -118 OFFCURVE",
"119 -89 CURVE SMOOTH",
"107 -54 OFFCURVE",
"113 -14 OFFCURVE",
"119 17 CURVE",
"100 24 LINE",
"82 -21 OFFCURVE",
"74 -51 OFFCURVE",
"71 -89 CURVE SMOOTH",
"69 -117 OFFCURVE",
"69 -144 OFFCURVE",
"83 -177 CURVE SMOOTH",
"97 -210 OFFCURVE",
"121 -237 OFFCURVE",
"155 -255 CURVE SMOOTH",
"190 -274 OFFCURVE",
"236 -283 OFFCURVE",
"284 -283 CURVE SMOOTH",
"354 -283 OFFCURVE",
"408 -263 OFFCURVE",
"444 -222 CURVE SMOOTH",
"466 -199 OFFCURVE",
"482 -168 OFFCURVE",
"490 -131 CURVE SMOOTH",
"497 -100 OFFCURVE",
"500 -65 OFFCURVE",
"497 -18 CURVE SMOOTH",
"495 11 OFFCURVE",
"497 -12 OFFCURVE",
"493 42 CURVE",
"515 11 OFFCURVE",
"533 0 OFFCURVE",
"584 0 CURVE SMOOTH",
"628 0 LINE",
"628 98 LINE"
);
}
);
width = 628;
}
);
unicode = FEDE;
},
{
glyphname = "lam-ar.medi";
lastChange = "2015-11-08 18:59:00 +0000";
layers = (
{
anchors = (
{
name = bottom;
position = "{70, -15}";
},
{
name = top;
position = "{35, 547}";
}
);
layerId = "51F41761-070F-43EA-B302-C90910850260";
name = Regular;
paths = (
{
closed = 1;
nodes = (
"243 98 LINE SMOOTH",
"216 98 OFFCURVE",
"195 107 OFFCURVE",
"180 125 CURVE SMOOTH",
"169 139 OFFCURVE",
"163 162 OFFCURVE",
"161 178 CURVE SMOOTH",
"143 325 OFFCURVE",
"133 430 OFFCURVE",
"120 568 CURVE",
"97 547 OFFCURVE",
"80 529 OFFCURVE",
"59 497 CURVE",
"78 386 OFFCURVE",
"89 309 OFFCURVE",
"98 239 CURVE",
"101 214 OFFCURVE",
"103 201 OFFCURVE",
"105 179 CURVE",
"107 160 OFFCURVE",
"102 141 OFFCURVE",
"88 125 CURVE SMOOTH",
"72 107 OFFCURVE",
"49 98 OFFCURVE",
"24 98 CURVE SMOOTH",
"-21 98 LINE SMOOTH",
"-48 98 OFFCURVE",
"-70 76 OFFCURVE",
"-70 49 CURVE SMOOTH",
"-70 21 OFFCURVE",
"-46 0 OFFCURVE",
"-21 0 CURVE SMOOTH",
"47 0 LINE SMOOTH",
"109 0 OFFCURVE",
"150 26 OFFCURVE",
"153 82 CURVE",
"164 26 OFFCURVE",
"199 0 OFFCURVE",
"256 0 CURVE SMOOTH",
"294 0 LINE",
"294 98 LINE"
);
}
);
width = 294;
}
);
unicode = FEE0;
},
{
glyphname = "lam-ar.init";
lastChange = "2015-11-08 18:59:00 +0000";
layers = (
{
anchors = (
{
name = bottom;
position = "{21, -16}";
},
{
name = top;
position = "{18, 548}";
}
);
layerId = "51F41761-070F-43EA-B302-C90910850260";
name = Regular;
paths = (
{
closed = 1;
nodes = (
"127 514 OFFCURVE",
"107 539 OFFCURVE",
"95 568 CURVE",
"37 492 LINE",
"52 454 OFFCURVE",
"71 377 OFFCURVE",
"82 320 CURVE SMOOTH",
"92 266 OFFCURVE",
"103 199 OFFCURVE",
"108 152 CURVE",
"89 118 OFFCURVE",
"50 98 OFFCURVE",
"10 98 CURVE SMOOTH",
"-21 98 LINE SMOOTH",
"-56 98 OFFCURVE",
"-70 72 OFFCURVE",
"-70 48 CURVE SMOOTH",
"-70 18 OFFCURVE",
"-48 0 OFFCURVE",
"-21 0 CURVE",
"11 0 LINE",
"29 0 OFFCURVE",
"41 1 OFFCURVE",
"53 4 CURVE SMOOTH",
"83 10 OFFCURVE",
"109 28 OFFCURVE",
"127 54 CURVE SMOOTH",
"146 82 OFFCURVE",
"155 116 OFFCURVE",
"158 157 CURVE",
"157 192 OFFCURVE",
"156 206 OFFCURVE",
"139 322 CURVE SMOOTH",
"135 348 OFFCURVE",
"131 385 OFFCURVE",
"129 399 CURVE",
"126 441 OFFCURVE",
"132 463 OFFCURVE",
"155 483 CURVE"
);
}
);
width = 218;
}
);
unicode = FEDF;
},
{
glyphname = "meem-ar";
lastChange = "2015-11-08 18:59:00 +0000";
layers = (
{
anchors = (
{
name = bottom;
position = "{132, -320}";
},
{
name = top;
position = "{208, 297}";
}
);
layerId = "51F41761-070F-43EA-B302-C90910850260";
name = Regular;
paths = (
{
closed = 1;
nodes = (
"317 212 OFFCURVE",
"297 238 OFFCURVE",
"268 257 CURVE SMOOTH",
"251 268 OFFCURVE",
"230 277 OFFCURVE",
"208 277 CURVE SMOOTH",
"178 277 OFFCURVE",
"157 261 OFFCURVE",
"144 229 CURVE SMOOTH",
"139 216 OFFCURVE",
"136 203 OFFCURVE",
"135 193 CURVE",
"172 210 OFFCURVE",
"201 201 OFFCURVE",
"244 177 CURVE SMOOTH",
"189 176 OFFCURVE",
"147 168 OFFCURVE",
"111 135 CURVE SMOOTH",
"89 115 OFFCURVE",
"63 68 OFFCURVE",
"72 -6 CURVE SMOOTH",
"77 -41 OFFCURVE",
"83 -81 OFFCURVE",
"90 -123 CURVE SMOOTH",
"99 -178 OFFCURVE",
"110 -241 OFFCURVE",
"117 -308 CURVE",
"142 -300 LINE",
"144 -249 OFFCURVE",
"135 -157 OFFCURVE",
"118 -23 CURVE SMOOTH",
"114 7 OFFCURVE",
"121 33 OFFCURVE",
"141 54 CURVE SMOOTH",
"160 75 OFFCURVE",
"190 91 OFFCURVE",
"231 100 CURVE SMOOTH",
"266 108 OFFCURVE",
"294 108 OFFCURVE",
"311 108 CURVE",
"317 145 OFFCURVE",
"321 175 OFFCURVE",
"323 205 CURVE"
);
}
);
width = 383;
}
);
unicode = 0645;
},
{
glyphname = "meem-ar.alt";
lastChange = "2015-11-08 18:59:00 +0000";
layers = (
{
anchors = (
{
name = bottom;
position = "{404, 0}";
},
{
name = top;
position = "{453, 312}";
}
);
layerId = "51F41761-070F-43EA-B302-C90910850260";
name = Regular;
paths = (
{
closed = 1;
nodes = (
"531 96 LINE",
"538 122 OFFCURVE",
"540 149 OFFCURVE",
"536 183 CURVE SMOOTH",
"532 217 OFFCURVE",
"525 241 OFFCURVE",
"508 263 CURVE SMOOTH",
"493 282 OFFCURVE",
"476 292 OFFCURVE",
"453 292 CURVE SMOOTH",
"418 292 OFFCURVE",
"391 268 OFFCURVE",
"373 243 CURVE SMOOTH",
"361 227 OFFCURVE",
"351 207 OFFCURVE",
"341 181 CURVE",
"327 190 LINE",
"291 101 OFFCURVE",
"241 38 OFFCURVE",
"150 -14 CURVE SMOOTH",
"118 -32 OFFCURVE",
"85 -50 OFFCURVE",
"20 -85 CURVE",
"29 -98 LINE",
"51 -93 OFFCURVE",
"69 -91 OFFCURVE",
"87 -91 CURVE SMOOTH",
"110 -91 OFFCURVE",
"132 -94 OFFCURVE",
"151 -94 CURVE SMOOTH",
"179 -94 OFFCURVE",
"199 -88 OFFCURVE",
"223 -71 CURVE SMOOTH",
"259 -46 OFFCURVE",
"304 2 OFFCURVE",
"340 89 CURVE",
"383 61 OFFCURVE",
"431 44 OFFCURVE",
"499 37 CURVE"
);
},
{
closed = 1;
nodes = (
"506 145 OFFCURVE",
"508 110 OFFCURVE",
"508 110 CURVE",
"463 120 OFFCURVE",
"414 141 OFFCURVE",
"367 169 CURVE",
"367 169 OFFCURVE",
"379 222 OFFCURVE",
"421 222 CURVE SMOOTH",
"446 222 OFFCURVE",
"476 203 OFFCURVE",
"492 172 CURVE SMOOTH"
);
}
);
width = 598;
}
);
},
{
glyphname = "meem-ar.altfina";
lastChange = "2015-11-08 18:59:00 +0000";
layers = (
{
anchors = (
{
name = bottom;
position = "{396, -35}";
},
{
name = top;
position = "{455, 287}";
}
);
layerId = "51F41761-070F-43EA-B302-C90910850260";
name = Regular;
paths = (
{
closed = 1;
nodes = (
"619 98 LINE SMOOTH",
"596 98 OFFCURVE",
"579 107 OFFCURVE",
"565 125 CURVE SMOOTH",
"541 157 OFFCURVE",
"538 207 OFFCURVE",
"509 240 CURVE SMOOTH",
"494 258 OFFCURVE",
"476 267 OFFCURVE",
"455 267 CURVE SMOOTH",
"425 267 OFFCURVE",
"396 246 OFFCURVE",
"375 224 CURVE SMOOTH",
"365 214 OFFCURVE",
"350 196 OFFCURVE",
"339 182 CURVE",
"327 190 LINE",
"291 101 OFFCURVE",
"241 38 OFFCURVE",
"150 -14 CURVE SMOOTH",
"118 -32 OFFCURVE",
"85 -50 OFFCURVE",
"20 -85 CURVE",
"29 -98 LINE",
"51 -93 OFFCURVE",
"69 -91 OFFCURVE",
"87 -91 CURVE SMOOTH",
"110 -91 OFFCURVE",
"132 -94 OFFCURVE",
"151 -94 CURVE SMOOTH",
"179 -94 OFFCURVE",
"199 -88 OFFCURVE",
"223 -71 CURVE SMOOTH",
"258 -47 OFFCURVE",
"300 -2 OFFCURVE",
"335 80 CURVE",
"379 43 OFFCURVE",
"429 11 OFFCURVE",
"477 -8 CURVE",
"494 6 OFFCURVE",
"517 39 OFFCURVE",
"537 75 CURVE",
"548 24 OFFCURVE",
"573 0 OFFCURVE",
"637 0 CURVE SMOOTH",
"666 0 LINE",
"666 98 LINE"
);
},
{
closed = 1;
nodes = (
"460 92 OFFCURVE",
"403 131 OFFCURVE",
"364 162 CURVE",
"364 162 OFFCURVE",
"375 178 OFFCURVE",
"395 191 CURVE SMOOTH",
"407 199 OFFCURVE",
"422 205 OFFCURVE",
"439 205 CURVE SMOOTH",
"457 205 OFFCURVE",
"473 197 OFFCURVE",
"485 183 CURVE SMOOTH",
"496 170 OFFCURVE",
"502 153 OFFCURVE",
"502 136 CURVE SMOOTH",
"502 117 OFFCURVE",
"496 103 OFFCURVE",
"482 79 CURVE"
);
}
);
width = 666;
}
);
},
{
glyphname = "meem-ar.fina";
lastChange = "2015-11-08 18:59:00 +0000";
layers = (
{
anchors = (
{
name = bottom;
position = "{136, -320}";
},
{
name = top;
position = "{303, 222}";
}
);
layerId = "51F41761-070F-43EA-B302-C90910850260";
name = Regular;
paths = (
{
closed = 1;
nodes = (
"448 98 LINE SMOOTH",
"406 98 OFFCURVE",
"360 119 OFFCURVE",
"309 159 CURVE SMOOTH",
"283 180 OFFCURVE",
"264 201 OFFCURVE",
"253 212 CURVE",
"229 178 LINE",
"192 178 OFFCURVE",
"167 173 OFFCURVE",
"139 158 CURVE SMOOTH",
"115 145 OFFCURVE",
"96 126 OFFCURVE",
"84 102 CURVE SMOOTH",
"70 72 OFFCURVE",
"66 35 OFFCURVE",
"74 -8 CURVE SMOOTH",
"108 -198 OFFCURVE",
"117 -280 OFFCURVE",
"120 -308 CURVE",
"146 -300 LINE",
"142 -194 OFFCURVE",
"136 -133 OFFCURVE",
"130 -87 CURVE SMOOTH",
"129 -75 OFFCURVE",
"114 11 OFFCURVE",
"114 23 CURVE SMOOTH",
"114 34 OFFCURVE",
"121 53 OFFCURVE",
"136 68 CURVE SMOOTH",
"164 93 OFFCURVE",
"188 97 OFFCURVE",
"227 95 CURVE SMOOTH",
"232 65 OFFCURVE",
"240 39 OFFCURVE",
"253 18 CURVE SMOOTH",
"274 -15 OFFCURVE",
"305 -34 OFFCURVE",
"350 -34 CURVE",
"366 -22 OFFCURVE",
"382 1 OFFCURVE",
"399 31 CURVE SMOOTH",
"412 12 OFFCURVE",
"424 0 OFFCURVE",
"454 0 CURVE SMOOTH",
"487 0 LINE",
"487 98 LINE"
);
}
);
width = 487;
}
);
unicode = FEE2;
},
{
glyphname = "meem-ar.medi";
lastChange = "2015-11-08 18:59:00 +0000";
layers = (
{
anchors = (
{
name = bottom;
position = "{166, -15}";
},
{
name = top;
position = "{250, 287}";
}
);
layerId = "51F41761-070F-43EA-B302-C90910850260";
name = Regular;
paths = (
{
closed = 1;
nodes = (
"444 98 LINE SMOOTH",
"421 98 OFFCURVE",
"404 107 OFFCURVE",
"390 125 CURVE SMOOTH",
"366 157 OFFCURVE",
"363 207 OFFCURVE",
"334 240 CURVE SMOOTH",
"319 258 OFFCURVE",
"301 267 OFFCURVE",
"280 267 CURVE SMOOTH",
"250 267 OFFCURVE",
"221 246 OFFCURVE",
"200 224 CURVE SMOOTH",
"190 214 OFFCURVE",
"176 198 OFFCURVE",
"166 184 CURVE",
"155 194 LINE",
"138 175 OFFCURVE",
"123 157 OFFCURVE",
"108 140 CURVE SMOOTH",
"94 125 OFFCURVE",
"70 98 OFFCURVE",
"23 98 CURVE SMOOTH",
"-22 98 LINE SMOOTH",
"-54 98 OFFCURVE",
"-70 73 OFFCURVE",
"-70 48 CURVE SMOOTH",
"-70 19 OFFCURVE",
"-48 0 OFFCURVE",
"-22 0 CURVE SMOOTH",
"19 0 LINE SMOOTH",
"56 0 OFFCURVE",
"82 10 OFFCURVE",
"100 30 CURVE SMOOTH",
"116 48 OFFCURVE",
"125 74 OFFCURVE",
"130 107 CURVE SMOOTH",
"181 58 OFFCURVE",
"242 16 OFFCURVE",
"302 -8 CURVE",
"319 6 OFFCURVE",
"342 39 OFFCURVE",
"362 75 CURVE SMOOTH",
"373 24 OFFCURVE",
"398 0 OFFCURVE",
"462 0 CURVE SMOOTH",
"491 0 LINE",
"491 98 LINE"
);
},
{
closed = 1;
nodes = (
"282 205 OFFCURVE",
"298 197 OFFCURVE",
"310 183 CURVE SMOOTH",
"321 170 OFFCURVE",
"327 153 OFFCURVE",
"327 136 CURVE SMOOTH",
"327 106 OFFCURVE",
"307 79 OFFCURVE",
"307 79 CURVE",
"285 92 OFFCURVE",
"228 131 OFFCURVE",
"189 162 CURVE SMOOTH",
"189 162 OFFCURVE",
"200 178 OFFCURVE",
"220 191 CURVE SMOOTH",
"232 199 OFFCURVE",
"247 205 OFFCURVE",
"264 205 CURVE SMOOTH"
);
}
);
width = 491;
}
);
unicode = FEE4;
},
{
glyphname = "meem-ar.init";
lastChange = "2015-11-08 18:59:00 +0000";
layers = (
{
anchors = (
{
name = bottom;
position = "{174, 0}";
},
{
name = top;
position = "{235, 312}";
}
);
layerId = "51F41761-070F-43EA-B302-C90910850260";
name = Regular;
paths = (
{
closed = 1;
nodes = (
"350 122 OFFCURVE",
"352 149 OFFCURVE",
"348 183 CURVE SMOOTH",
"344 217 OFFCURVE",
"337 241 OFFCURVE",
"320 263 CURVE SMOOTH",
"305 282 OFFCURVE",
"288 292 OFFCURVE",
"265 292 CURVE SMOOTH",
"230 292 OFFCURVE",
"203 268 OFFCURVE",
"185 243 CURVE SMOOTH",
"173 227 OFFCURVE",
"163 207 OFFCURVE",
"153 181 CURVE",
"139 190 LINE",
"134 178 OFFCURVE",
"123 152 OFFCURVE",
"114 131 CURVE",
"102 108 OFFCURVE",
"91 98 OFFCURVE",
"52 98 CURVE SMOOTH",
"-21 98 LINE SMOOTH",
"-51 98 OFFCURVE",
"-70 76 OFFCURVE",
"-70 49 CURVE SMOOTH",
"-70 21 OFFCURVE",
"-49 0 OFFCURVE",
"-21 0 CURVE SMOOTH",
"11 0 LINE SMOOTH",
"84 0 OFFCURVE",
"123 31 OFFCURVE",
"143 95 CURVE SMOOTH",
"189 63 OFFCURVE",
"238 45 OFFCURVE",
"311 37 CURVE",
"343 96 LINE"
);
},
{
closed = 1;
nodes = (
"258 222 OFFCURVE",
"288 203 OFFCURVE",
"304 172 CURVE SMOOTH",
"318 145 OFFCURVE",
"320 110 OFFCURVE",
"320 110 CURVE",
"275 120 OFFCURVE",
"226 141 OFFCURVE",
"179 169 CURVE SMOOTH",
"179 169 OFFCURVE",
"191 222 OFFCURVE",
"233 222 CURVE SMOOTH"
);
}
);
width = 410;
}
);
unicode = FEE3;
},
{
glyphname = "noonghunna-ar";
lastChange = "2015-11-08 18:59:00 +0000";
layers = (
{
anchors = (
{
name = bottom;
position = "{284, -219}";
},
{
name = top;
position = "{278, 19}";
}
);
layerId = "51F41761-070F-43EA-B302-C90910850260";
name = Regular;
paths = (
{
closed = 1;
nodes = (
"447 231 OFFCURVE",
"426 205 OFFCURVE",
"412 178 CURVE",
"415 174 OFFCURVE",
"488 73 OFFCURVE",
"488 24 CURVE SMOOTH",
"488 -4 OFFCURVE",
"466 -31 OFFCURVE",
"431 -51 CURVE SMOOTH",
"396 -71 OFFCURVE",
"349 -83 OFFCURVE",
"292 -83 CURVE SMOOTH",
"214 -83 OFFCURVE",
"159 -61 OFFCURVE",
"132 -27 CURVE SMOOTH",
"106 6 OFFCURVE",
"109 47 OFFCURVE",
"119 104 CURVE",
"100 111 LINE",
"82 68 OFFCURVE",
"73 26 OFFCURVE",
"71 -2 CURVE SMOOTH",
"69 -31 OFFCURVE",
"72 -61 OFFCURVE",
"84 -90 CURVE SMOOTH",
"98 -124 OFFCURVE",
"121 -149 OFFCURVE",
"156 -168 CURVE SMOOTH",
"191 -187 OFFCURVE",
"234 -196 OFFCURVE",
"284 -196 CURVE SMOOTH",
"321 -196 OFFCURVE",
"354 -191 OFFCURVE",
"384 -181 CURVE SMOOTH",
"411 -172 OFFCURVE",
"436 -160 OFFCURVE",
"460 -138 CURVE SMOOTH",
"505 -97 OFFCURVE",
"528 -34 OFFCURVE",
"528 43 CURVE SMOOTH",
"528 93 OFFCURVE",
"518 139 OFFCURVE",
"499 184 CURVE SMOOTH",
"485 218 OFFCURVE",
"470 237 OFFCURVE",
"461 248 CURVE"
);
}
);
width = 588;
}
);
unicode = 06BA;
},
{
glyphname = "noonghunna-ar.fina";
lastChange = "2015-11-08 18:59:00 +0000";
layers = (
{
anchors = (
{
name = bottom;
position = "{282, -308}";
},
{
name = top;
position = "{285, -59}";
}
);
layerId = "51F41761-070F-43EA-B302-C90910850260";
name = Regular;
paths = (
{
closed = 1;
nodes = (
"657 98 LINE",
"568 98 LINE SMOOTH",
"551 98 OFFCURVE",
"504 102 OFFCURVE",
"463 153 CURVE SMOOTH",
"459 158 LINE",
"445 140 OFFCURVE",
"430 119 OFFCURVE",
"416 94 CURVE",
"461 19 OFFCURVE",
"487 -31 OFFCURVE",
"487 -64 CURVE SMOOTH",
"487 -95 OFFCURVE",
"463 -122 OFFCURVE",
"431 -140 CURVE SMOOTH",
"401 -157 OFFCURVE",
"353 -172 OFFCURVE",
"290 -172 CURVE SMOOTH",
"254 -172 OFFCURVE",
"221 -167 OFFCURVE",
"195 -158 CURVE SMOOTH",
"163 -147 OFFCURVE",
"143 -133 OFFCURVE",
"130 -113 CURVE SMOOTH",
"109 -82 OFFCURVE",
"109 -39 OFFCURVE",
"119 15 CURVE",
"100 22 LINE",
"83 -19 OFFCURVE",
"74 -57 OFFCURVE",
"71 -91 CURVE SMOOTH",
"68 -123 OFFCURVE",
"72 -154 OFFCURVE",
"83 -180 CURVE SMOOTH",
"96 -210 OFFCURVE",
"117 -236 OFFCURVE",
"156 -257 CURVE SMOOTH",
"190 -275 OFFCURVE",
"230 -285 OFFCURVE",
"282 -285 CURVE SMOOTH",
"318 -285 OFFCURVE",
"348 -280 OFFCURVE",
"369 -274 CURVE SMOOTH",
"408 -263 OFFCURVE",
"449 -238 OFFCURVE",
"476 -209 CURVE SMOOTH",
"540 -140 OFFCURVE",
"541 -39 OFFCURVE",
"524 19 CURVE",
"544 4 OFFCURVE",
"563 0 OFFCURVE",
"594 0 CURVE SMOOTH",
"657 0 LINE"
);
}
);
width = 657;
}
);
unicode = FB9F;
},
{
glyphname = "heh-ar";
lastChange = "2015-11-08 18:59:00 +0000";
layers = (
{
anchors = (
{
name = bottom;
position = "{175, -25}";
},
{
name = top;
position = "{138, 347}";
}
);
layerId = "51F41761-070F-43EA-B302-C90910850260";
name = Regular;
paths = (
{
closed = 1;
nodes = (
"301 161 OFFCURVE",
"295 188 OFFCURVE",
"285 211 CURVE SMOOTH",
"273 238 OFFCURVE",
"256 261 OFFCURVE",
"234 279 CURVE SMOOTH",
"207 302 OFFCURVE",
"174 318 OFFCURVE",
"138 327 CURVE",
"117 309 OFFCURVE",
"106 297 OFFCURVE",
"81 265 CURVE",
"118 249 LINE",
"94 223 OFFCURVE",
"70 171 OFFCURVE",
"70 113 CURVE SMOOTH",
"70 88 OFFCURVE",
"75 55 OFFCURVE",
"94 29 CURVE SMOOTH",
"111 6 OFFCURVE",
"141 -5 OFFCURVE",
"176 -5 CURVE SMOOTH",
"230 -5 OFFCURVE",
"262 12 OFFCURVE",
"282 47 CURVE SMOOTH",
"299 77 OFFCURVE",
"301 114 OFFCURVE",
"301 132 CURVE SMOOTH"
);
},
{
closed = 1;
nodes = (
"256 180 OFFCURVE",
"268 167 OFFCURVE",
"268 151 CURVE SMOOTH",
"268 128 OFFCURVE",
"241 100 OFFCURVE",
"205 100 CURVE SMOOTH",
"179 100 OFFCURVE",
"153 104 OFFCURVE",
"140 112 CURVE SMOOTH",
"121 123 OFFCURVE",
"114 142 OFFCURVE",
"114 163 CURVE SMOOTH",
"114 206 OFFCURVE",
"147 236 OFFCURVE",
"147 236 CURVE",
"172 228 OFFCURVE",
"206 211 OFFCURVE",
"221 202 CURVE SMOOTH"
);
}
);
width = 361;
}
);
unicode = 0647;
},
{
glyphname = "heh-ar.fina";
lastChange = "2015-11-08 18:59:00 +0000";
layers = (
{
anchors = (
{
name = bottom;
position = "{160, 48}";
},
{
name = top;
position = "{151, 313}";
}
);
layerId = "51F41761-070F-43EA-B302-C90910850260";
name = Regular;
paths = (
{
closed = 1;
nodes = (
"390 98 LINE SMOOTH",
"359 98 OFFCURVE",
"341 107 OFFCURVE",
"326 140 CURVE SMOOTH",
"315 164 OFFCURVE",
"305 196 OFFCURVE",
"289 242 CURVE SMOOTH",
"280 268 OFFCURVE",
"270 298 OFFCURVE",
"258 336 CURVE",
"238 322 OFFCURVE",
"225 311 OFFCURVE",
"211 293 CURVE",
"224 257 LINE",
"195 254 OFFCURVE",
"166 250 OFFCURVE",
"130 229 CURVE SMOOTH",
"111 218 OFFCURVE",
"85 199 OFFCURVE",
"81 175 CURVE SMOOTH",
"71 115 LINE SMOOTH",
"67 88 OFFCURVE",
"85 76 OFFCURVE",
"106 70 CURVE SMOOTH",
"132 63 OFFCURVE",
"171 63 OFFCURVE",
"200 68 CURVE",
"223 91 OFFCURVE",
"241 118 OFFCURVE",
"255 158 CURVE",
"267 114 OFFCURVE",
"279 76 OFFCURVE",
"298 48 CURVE SMOOTH",
"318 18 OFFCURVE",
"346 0 OFFCURVE",
"391 0 CURVE SMOOTH",
"420 0 LINE",
"420 98 LINE"
);
},
{
closed = 1;
nodes = (
"105 141 LINE",
"106 150 LINE SMOOTH",
"109 176 OFFCURVE",
"129 200 OFFCURVE",
"161 207 CURVE SMOOTH",
"178 211 OFFCURVE",
"208 210 OFFCURVE",
"216 210 CURVE",
"230 239 LINE",
"244 195 LINE",
"231 164 OFFCURVE",
"215 141 OFFCURVE",
"186 141 CURVE SMOOTH"
);
}
);
width = 420;
}
);
unicode = FEEA;
},
{
glyphname = "heh-ar.medi";
lastChange = "2015-11-08 18:59:00 +0000";
layers = (
{
anchors = (
{
name = bottom;
position = "{193, -205}";
},
{
name = top;
position = "{164, 311}";
}
);
layerId = "51F41761-070F-43EA-B302-C90910850260";
name = Regular;
paths = (
{
closed = 1;
nodes = (
"293 98 LINE SMOOTH",
"271 98 OFFCURVE",
"242 97 OFFCURVE",
"212 79 CURVE",
"255 123 OFFCURVE",
"278 156 OFFCURVE",
"278 198 CURVE SMOOTH",
"278 226 OFFCURVE",
"268 257 OFFCURVE",
"244 291 CURVE",
"198 287 OFFCURVE",
"159 257 OFFCURVE",
"130 218 CURVE SMOOTH",
"99 176 OFFCURVE",
"86 134 OFFCURVE",
"78 98 CURVE",
"-21 98 LINE SMOOTH",
"-46 98 OFFCURVE",
"-70 77 OFFCURVE",
"-70 49 CURVE SMOOTH",
"-70 22 OFFCURVE",
"-48 0 OFFCURVE",
"-21 0 CURVE SMOOTH",
"38 0 LINE",
"34 -19 LINE",
"50 -12 OFFCURVE",
"54 -10 OFFCURVE",
"71 -6 CURVE SMOOTH",
"74 -54 OFFCURVE",
"86 -95 OFFCURVE",
"114 -130 CURVE SMOOTH",
"134 -155 OFFCURVE",
"168 -185 OFFCURVE",
"213 -185 CURVE SMOOTH",
"249 -185 OFFCURVE",
"269 -166 OFFCURVE",
"280 -150 CURVE SMOOTH",
"291 -134 OFFCURVE",
"301 -108 OFFCURVE",
"301 -85 CURVE SMOOTH",
"301 -34 OFFCURVE",
"252 0 OFFCURVE",
"252 0 CURVE",
"437 0 LINE",
"437 98 LINE"
);
},
{
closed = 1;
nodes = (
"241 158 OFFCURVE",
"234 146 OFFCURVE",
"221 136 CURVE SMOOTH",
"199 119 OFFCURVE",
"159 107 OFFCURVE",
"123 98 CURVE",
"128 124 OFFCURVE",
"133 141 OFFCURVE",
"155 175 CURVE SMOOTH",
"168 194 OFFCURVE",
"186 213 OFFCURVE",
"209 232 CURVE",
"224 215 OFFCURVE",
"241 188 OFFCURVE",
"241 170 CURVE SMOOTH"
);
},
{
closed = 1;
nodes = (
"262 -56 OFFCURVE",
"267 -94 OFFCURVE",
"267 -113 CURVE",
"227 -115 OFFCURVE",
"195 -107 OFFCURVE",
"166 -89 CURVE SMOOTH",
"113 -55 OFFCURVE",
"118 0 OFFCURVE",
"118 0 CURVE SMOOTH",
"118 0 OFFCURVE",
"179 5 OFFCURVE",
"219 -24 CURVE SMOOTH"
);
}
);
width = 437;
}
);
unicode = FEEC;
},
{
glyphname = "heh-ar.init";
lastChange = "2015-11-08 18:59:00 +0000";
layers = (
{
anchors = (
{
name = bottom;
position = "{155, 0}";
},
{
name = top;
position = "{126, 377}";
}
);
layerId = "51F41761-070F-43EA-B302-C90910850260";
name = Regular;
paths = (
{
closed = 1;
nodes = (
"357 161 OFFCURVE",
"345 195 OFFCURVE",
"320 227 CURVE SMOOTH",
"299 253 OFFCURVE",
"271 276 OFFCURVE",
"232 300 CURVE SMOOTH",
"213 311 OFFCURVE",
"192 322 OFFCURVE",
"172 332 CURVE SMOOTH",
"155 341 OFFCURVE",
"139 349 OFFCURVE",
"126 357 CURVE",
"120 347 OFFCURVE",
"113 336 OFFCURVE",
"107 326 CURVE",
"95 303 OFFCURVE",
"106 291 OFFCURVE",
"126 280 CURVE",
"144 271 LINE",
"112 269 OFFCURVE",
"76 245 OFFCURVE",
"58 217 CURVE SMOOTH",
"40 190 OFFCURVE",
"37 162 OFFCURVE",
"39 140 CURVE SMOOTH",
"41 127 OFFCURVE",
"44 116 OFFCURVE",
"51 98 CURVE SMOOTH",
"-20 98 LINE SMOOTH",
"-47 98 OFFCURVE",
"-70 76 OFFCURVE",
"-70 49 CURVE SMOOTH",
"-70 21 OFFCURVE",
"-48 0 OFFCURVE",
"-20 0 CURVE SMOOTH",
"33 0 LINE SMOOTH",
"91 0 OFFCURVE",
"128 12 OFFCURVE",
"154 47 CURVE",
"197 32 OFFCURVE",
"241 13 OFFCURVE",
"276 -7 CURVE",
"291 9 OFFCURVE",
"307 25 OFFCURVE",
"322 41 CURVE SMOOTH",
"344 65 OFFCURVE",
"355 93 OFFCURVE",
"357 123 CURVE SMOOTH"
);
},
{
closed = 1;
nodes = (
"195 170 OFFCURVE",
"189 155 OFFCURVE",
"173 143 CURVE SMOOTH",
"161 135 OFFCURVE",
"148 131 OFFCURVE",
"137 131 CURVE SMOOTH",
"130 131 OFFCURVE",
"121 132 OFFCURVE",
"102 144 CURVE SMOOTH",
"87 152 OFFCURVE",
"72 166 OFFCURVE",
"72 177 CURVE SMOOTH",
"72 186 OFFCURVE",
"84 202 OFFCURVE",
"103 219 CURVE SMOOTH",
"124 237 OFFCURVE",
"137 243 OFFCURVE",
"150 243 CURVE SMOOTH",
"164 243 OFFCURVE",
"172 235 OFFCURVE",
"182 217 CURVE SMOOTH",
"190 203 OFFCURVE",
"195 187 OFFCURVE",
"195 179 CURVE SMOOTH"
);
},
{
closed = 1;
nodes = (
"273 93 OFFCURVE",
"235 102 OFFCURVE",
"197 112 CURVE",
"213 128 OFFCURVE",
"223 148 OFFCURVE",
"226 169 CURVE SMOOTH",
"230 192 OFFCURVE",
"226 217 OFFCURVE",
"215 240 CURVE",
"253 217 OFFCURVE",
"277 192 OFFCURVE",
"293 161 CURVE SMOOTH",
"304 139 OFFCURVE",
"309 113 OFFCURVE",
"311 83 CURVE"
);
}
);
width = 417;
}
);
unicode = FEEB;
},
{
glyphname = "hehgoal-ar.fina";
lastChange = "2015-11-08 18:59:00 +0000";
layers = (
{
anchors = (
{
name = bottom;
position = "{134, -15}";
},
{
name = top;
position = "{200, 224}";
}
);
layerId = "51F41761-070F-43EA-B302-C90910850260";
name = Regular;
paths = (
{
closed = 1;
nodes = (
"386 98 LINE SMOOTH",
"355 98 OFFCURVE",
"332 115 OFFCURVE",
"315 139 CURVE SMOOTH",
"297 165 OFFCURVE",
"271 204 OFFCURVE",
"232 204 CURVE SMOOTH",
"197 204 OFFCURVE",
"161 173 OFFCURVE",
"123 104 CURVE SMOOTH",
"96 55 OFFCURVE",
"78 4 OFFCURVE",
"70 -20 CURVE",
"88 -15 LINE",
"92 -6 OFFCURVE",
"106 23 OFFCURVE",
"126 56 CURVE SMOOTH",
"146 89 OFFCURVE",
"175 133 OFFCURVE",
"219 133 CURVE SMOOTH",
"252 133 OFFCURVE",
"266 109 OFFCURVE",
"283 76 CURVE SMOOTH",
"295 52 OFFCURVE",
"302 41 OFFCURVE",
"311 31 CURVE SMOOTH",
"327 13 OFFCURVE",
"347 0 OFFCURVE",
"384 0 CURVE SMOOTH",
"420 0 LINE",
"420 98 LINE"
);
}
);
width = 420;
}
);
unicode = FBA7;
},
{
glyphname = "hehgoal-ar.medi";
lastChange = "2015-11-08 18:59:00 +0000";
layers = (
{
anchors = (
{
name = bottom;
position = "{212, -204}";
},
{
name = top;
position = "{200, 188}";
}
);
layerId = "51F41761-070F-43EA-B302-C90910850260";
name = Regular;
paths = (
{
closed = 1;
nodes = (
"337 98 LINE SMOOTH",
"286 98 OFFCURVE",
"247 83 OFFCURVE",
"221 56 CURVE SMOOTH",
"192 26 OFFCURVE",
"186 -18 OFFCURVE",
"198 -60 CURVE SMOOTH",
"171 -22 OFFCURVE",
"161 -4 OFFCURVE",
"152 48 CURVE SMOOTH",
"146 81 OFFCURVE",
"144 123 OFFCURVE",
"149 174 CURVE",
"128 163 LINE",
"127 147 OFFCURVE",
"119 132 OFFCURVE",
"106 120 CURVE SMOOTH",
"93 108 OFFCURVE",
"75 98 OFFCURVE",
"39 98 CURVE SMOOTH",
"-20 98 LINE SMOOTH",
"-47 98 OFFCURVE",
"-70 76 OFFCURVE",
"-70 48 CURVE SMOOTH",
"-70 21 OFFCURVE",
"-48 0 OFFCURVE",
"-20 0 CURVE SMOOTH",
"22 0 LINE SMOOTH",
"67 0 OFFCURVE",
"91 13 OFFCURVE",
"109 47 CURVE",
"108 19 OFFCURVE",
"110 -12 OFFCURVE",
"116 -39 CURVE SMOOTH",
"122 -67 OFFCURVE",
"135 -94 OFFCURVE",
"148 -115 CURVE SMOOTH",
"164 -141 OFFCURVE",
"181 -161 OFFCURVE",
"212 -184 CURVE",
"236 -164 OFFCURVE",
"251 -149 OFFCURVE",
"271 -123 CURVE",
"258 -107 OFFCURVE",
"248 -91 OFFCURVE",
"242 -69 CURVE SMOOTH",
"236 -47 OFFCURVE",
"237 -28 OFFCURVE",
"244 -11 CURVE SMOOTH",
"253 11 OFFCURVE",
"273 30 OFFCURVE",
"312 30 CURVE SMOOTH",
"339 30 OFFCURVE",
"358 21 OFFCURVE",
"372 13 CURVE SMOOTH",
"385 6 OFFCURVE",
"397 0 OFFCURVE",
"430 0 CURVE SMOOTH",
"463 0 LINE",
"463 98 LINE"
);
}
);
width = 463;
}
);
unicode = FBA9;
},
{
glyphname = "hehgoal-ar.init";
lastChange = "2015-11-08 18:59:00 +0000";
layers = (
{
anchors = (
{
name = bottom;
position = "{6, -206}";
},
{
name = top;
position = "{-11, 264}";
}
);
layerId = "51F41761-070F-43EA-B302-C90910850260";
name = Regular;
paths = (
{
closed = 1;
nodes = (
"163 225 OFFCURVE",
"144 273 OFFCURVE",
"111 309 CURVE",
"94 290 OFFCURVE",
"82 270 OFFCURVE",
"68 240 CURVE",
"90 215 OFFCURVE",
"109 189 OFFCURVE",
"129 158 CURVE",
"129 158 OFFCURVE",
"111 98 OFFCURVE",
"34 98 CURVE SMOOTH",
"-21 98 LINE SMOOTH",
"-50 98 OFFCURVE",
"-70 77 OFFCURVE",
"-70 50 CURVE SMOOTH",
"-70 22 OFFCURVE",
"-49 0 OFFCURVE",
"-21 0 CURVE SMOOTH",
"26 0 LINE SMOOTH",
"74 0 OFFCURVE",
"108 19 OFFCURVE",
"132 56 CURVE SMOOTH",
"153 89 OFFCURVE",
"163 132 OFFCURVE",
"163 175 CURVE SMOOTH"
);
},
{
closed = 1;
nodes = (
"87 -22 LINE",
"37 -42 OFFCURVE",
"-13 -74 OFFCURVE",
"-26 -129 CURVE SMOOTH",
"-34 -165 OFFCURVE",
"-13 -188 OFFCURVE",
"8 -188 CURVE SMOOTH",
"29 -188 OFFCURVE",
"38 -176 OFFCURVE",
"41 -162 CURVE",
"16 -155 OFFCURVE",
"2 -143 OFFCURVE",
"10 -110 CURVE SMOOTH",
"16 -85 OFFCURVE",
"37 -66 OFFCURVE",
"87 -40 CURVE"
);
}
);
width = 223;
}
);
unicode = FBA8;
},
{
glyphname = "hehDoachashmee-ar.fina";
lastChange = "2015-11-08 18:59:00 +0000";
layers = (
{
anchors = (
{
name = bottom;
position = "{297, 0}";
},
{
name = top;
position = "{268, 362}";
}
);
layerId = "51F41761-070F-43EA-B302-C90910850260";
name = Regular;
paths = (
{
closed = 1;
nodes = (
"569 98 LINE SMOOTH",
"535 98 OFFCURVE",
"503 98 OFFCURVE",
"492 111 CURVE",
"497 167 OFFCURVE",
"474 205 OFFCURVE",
"456 227 CURVE SMOOTH",
"435 253 OFFCURVE",
"407 276 OFFCURVE",
"368 300 CURVE SMOOTH",
"349 311 OFFCURVE",
"328 322 OFFCURVE",
"308 332 CURVE SMOOTH",
"291 341 OFFCURVE",
"275 349 OFFCURVE",
"262 357 CURVE",
"256 347 OFFCURVE",
"249 336 OFFCURVE",
"243 326 CURVE",
"231 303 OFFCURVE",
"242 291 OFFCURVE",
"262 280 CURVE",
"280 271 LINE",
"248 269 OFFCURVE",
"212 245 OFFCURVE",
"194 217 CURVE SMOOTH",
"180 196 OFFCURVE",
"173 171 OFFCURVE",
"173 147 CURVE",
"174 125 OFFCURVE",
"180 100 OFFCURVE",
"196 81 CURVE",
"180 65 OFFCURVE",
"140 43 OFFCURVE",
"79 25 CURVE",
"70 -4 LINE",
"120 -13 OFFCURVE",
"158 -9 OFFCURVE",
"194 -3 CURVE SMOOTH",
"228 3 OFFCURVE",
"259 17 OFFCURVE",
"291 46 CURVE",
"333 31 OFFCURVE",
"371 13 OFFCURVE",
"412 -7 CURVE",
"440 23 LINE SMOOTH",
"454 39 OFFCURVE",
"462 47 OFFCURVE",
"467 58 CURVE",
"469 43 OFFCURVE",
"476 31 OFFCURVE",
"486 21 CURVE SMOOTH",
"502 4 OFFCURVE",
"533 0 OFFCURVE",
"567 0 CURVE SMOOTH",
"613 0 LINE",
"613 98 LINE"
);
},
{
closed = 1;
nodes = (
"326 203 OFFCURVE",
"331 187 OFFCURVE",
"331 179 CURVE SMOOTH",
"331 170 OFFCURVE",
"325 155 OFFCURVE",
"309 143 CURVE",
"297 135 OFFCURVE",
"284 131 OFFCURVE",
"273 131 CURVE SMOOTH",
"266 131 OFFCURVE",
"257 132 OFFCURVE",
"238 144 CURVE",
"223 152 OFFCURVE",
"208 166 OFFCURVE",
"208 177 CURVE SMOOTH",
"208 186 OFFCURVE",
"220 202 OFFCURVE",
"239 219 CURVE SMOOTH",
"260 237 OFFCURVE",
"273 243 OFFCURVE",
"286 243 CURVE SMOOTH",
"300 243 OFFCURVE",
"308 235 OFFCURVE",
"318 217 CURVE SMOOTH"
);
},
{
closed = 1;
nodes = (
"440 139 OFFCURVE",
"445 113 OFFCURVE",
"447 83 CURVE",
"409 93 OFFCURVE",
"371 102 OFFCURVE",
"333 112 CURVE",
"349 128 OFFCURVE",
"359 148 OFFCURVE",
"362 169 CURVE SMOOTH",
"366 192 OFFCURVE",
"362 217 OFFCURVE",
"351 240 CURVE",
"389 217 OFFCURVE",
"413 192 OFFCURVE",
"429 161 CURVE SMOOTH"
);
}
);
width = 613;
}
);
unicode = FBAB;
},
{
glyphname = "hehDoachashmee-ar.medi";
lastChange = "2015-11-08 18:59:00 +0000";
layers = (
{
anchors = (
{
name = bottom;
position = "{164, -16}";
},
{
name = top;
position = "{126, 377}";
}
);
layerId = "51F41761-070F-43EA-B302-C90910850260";
name = Regular;
paths = (
{
closed = 1;
nodes = (
"433 98 LINE",
"399 98 OFFCURVE",
"367 98 OFFCURVE",
"356 111 CURVE",
"361 167 OFFCURVE",
"338 205 OFFCURVE",
"320 227 CURVE SMOOTH",
"299 253 OFFCURVE",
"271 276 OFFCURVE",
"232 300 CURVE SMOOTH",
"213 311 OFFCURVE",
"192 322 OFFCURVE",
"172 332 CURVE SMOOTH",
"155 341 OFFCURVE",
"139 349 OFFCURVE",
"126 357 CURVE",
"120 347 OFFCURVE",
"113 336 OFFCURVE",
"107 326 CURVE",
"95 303 OFFCURVE",
"106 291 OFFCURVE",
"126 280 CURVE",
"144 271 LINE",
"112 269 OFFCURVE",
"76 245 OFFCURVE",
"58 217 CURVE SMOOTH",
"40 190 OFFCURVE",
"37 162 OFFCURVE",
"39 140 CURVE",
"41 127 OFFCURVE",
"44 116 OFFCURVE",
"51 98 CURVE",
"-20 98 LINE SMOOTH",
"-47 98 OFFCURVE",
"-70 76 OFFCURVE",
"-70 49 CURVE SMOOTH",
"-70 21 OFFCURVE",
"-48 0 OFFCURVE",
"-20 0 CURVE SMOOTH",
"33 0 LINE SMOOTH",
"91 0 OFFCURVE",
"128 12 OFFCURVE",
"154 47 CURVE",
"197 32 OFFCURVE",
"241 13 OFFCURVE",
"276 -7 CURVE",
"304 23 LINE SMOOTH",
"318 39 OFFCURVE",
"326 47 OFFCURVE",
"331 58 CURVE",
"333 43 OFFCURVE",
"340 31 OFFCURVE",
"350 21 CURVE SMOOTH",
"366 4 OFFCURVE",
"397 0 OFFCURVE",
"431 0 CURVE SMOOTH",
"477 0 LINE",
"477 98 LINE"
);
},
{
closed = 1;
nodes = (
"190 203 OFFCURVE",
"195 187 OFFCURVE",
"195 179 CURVE SMOOTH",
"195 170 OFFCURVE",
"189 155 OFFCURVE",
"173 143 CURVE",
"161 135 OFFCURVE",
"148 131 OFFCURVE",
"137 131 CURVE SMOOTH",
"130 131 OFFCURVE",
"121 132 OFFCURVE",
"102 144 CURVE",
"87 152 OFFCURVE",
"72 166 OFFCURVE",
"72 177 CURVE SMOOTH",
"72 186 OFFCURVE",
"84 202 OFFCURVE",
"103 219 CURVE SMOOTH",
"124 237 OFFCURVE",
"137 243 OFFCURVE",
"150 243 CURVE SMOOTH",
"164 243 OFFCURVE",
"172 235 OFFCURVE",
"182 217 CURVE SMOOTH"
);
},
{
closed = 1;
nodes = (
"304 139 OFFCURVE",
"309 113 OFFCURVE",
"311 83 CURVE",
"273 93 OFFCURVE",
"235 102 OFFCURVE",
"197 112 CURVE",
"213 128 OFFCURVE",
"223 148 OFFCURVE",
"226 169 CURVE SMOOTH",
"230 192 OFFCURVE",
"226 217 OFFCURVE",
"215 240 CURVE",
"253 217 OFFCURVE",
"277 192 OFFCURVE",
"293 161 CURVE SMOOTH"
);
}
);
width = 477;
}
);
unicode = FBAD;
},
{
glyphname = "waw-ar";
lastChange = "2015-11-08 18:59:00 +0000";
layers = (
{
anchors = (
{
name = bottom;
position = "{36, -258}";
},
{
name = top;
position = "{135, 323}";
}
);
layerId = "51F41761-070F-43EA-B302-C90910850260";
name = Regular;
paths = (
{
closed = 1;
nodes = (
"217 243 OFFCURVE",
"196 303 OFFCURVE",
"145 303 CURVE SMOOTH",
"117 303 OFFCURVE",
"94 282 OFFCURVE",
"78 255 CURVE SMOOTH",
"60 225 OFFCURVE",
"50 187 OFFCURVE",
"49 160 CURVE SMOOTH",
"47 119 OFFCURVE",
"54 89 OFFCURVE",
"72 70 CURVE SMOOTH",
"86 55 OFFCURVE",
"108 47 OFFCURVE",
"139 47 CURVE SMOOTH",
"193 47 OFFCURVE",
"209 78 OFFCURVE",
"214 92 CURVE",
"215 66 OFFCURVE",
"214 33 OFFCURVE",
"209 11 CURVE SMOOTH",
"191 -64 OFFCURVE",
"130 -117 OFFCURVE",
"69 -151 CURVE SMOOTH",
"16 -181 OFFCURVE",
"-40 -210 OFFCURVE",
"-60 -221 CURVE",
"-51 -234 LINE",
"-29 -229 OFFCURVE",
"-10 -226 OFFCURVE",
"7 -226 CURVE SMOOTH",
"28 -226 OFFCURVE",
"49 -230 OFFCURVE",
"78 -230 CURVE SMOOTH",
"103 -230 OFFCURVE",
"125 -225 OFFCURVE",
"150 -208 CURVE SMOOTH",
"170 -195 OFFCURVE",
"191 -173 OFFCURVE",
"203 -149 CURVE SMOOTH",
"221 -112 OFFCURVE",
"232 -76 OFFCURVE",
"239 -42 CURVE SMOOTH",
"250 14 OFFCURVE",
"249 63 OFFCURVE",
"247 99 CURVE SMOOTH",
"244 166 OFFCURVE",
"232 202 OFFCURVE",
"225 220 CURVE SMOOTH"
);
},
{
closed = 1;
nodes = (
"201 168 OFFCURVE",
"204 145 OFFCURVE",
"204 145 CURVE SMOOTH",
"204 145 OFFCURVE",
"184 120 OFFCURVE",
"146 120 CURVE SMOOTH",
"113 120 OFFCURVE",
"81 133 OFFCURVE",
"81 167 CURVE SMOOTH",
"81 204 OFFCURVE",
"107 226 OFFCURVE",
"137 226 CURVE SMOOTH",
"163 226 OFFCURVE",
"179 208 OFFCURVE",
"189 189 CURVE SMOOTH"
);
}
);
width = 308;
}
);
unicode = 0648;
},
{
glyphname = "waw-ar.fina";
lastChange = "2015-11-08 18:59:00 +0000";
layers = (
{
anchors = (
{
name = bottom;
position = "{50, -309}";
},
{
name = top;
position = "{133, 278}";
}
);
layerId = "51F41761-070F-43EA-B302-C90910850260";
name = Regular;
paths = (
{
closed = 1;
nodes = (
"247 98 LINE",
"247 128 OFFCURVE",
"238 164 OFFCURVE",
"225 192 CURVE SMOOTH",
"207 230 OFFCURVE",
"179 258 OFFCURVE",
"143 258 CURVE SMOOTH",
"110 258 OFFCURVE",
"83 231 OFFCURVE",
"67 197 CURVE SMOOTH",
"55 170 OFFCURVE",
"49 150 OFFCURVE",
"49 117 CURVE SMOOTH",
"49 98 OFFCURVE",
"51 60 OFFCURVE",
"69 35 CURVE SMOOTH",
"86 10 OFFCURVE",
"116 0 OFFCURVE",
"157 0 CURVE SMOOTH",
"209 0 LINE",
"209 -11 OFFCURVE",
"207 -26 OFFCURVE",
"204 -38 CURVE SMOOTH",
"194 -79 OFFCURVE",
"172 -119 OFFCURVE",
"139 -150 CURVE SMOOTH",
"118 -170 OFFCURVE",
"91 -188 OFFCURVE",
"70 -200 CURVE SMOOTH",
"44 -215 OFFCURVE",
"-48 -263 OFFCURVE",
"-60 -270 CURVE",
"-51 -283 LINE",
"-29 -278 OFFCURVE",
"-10 -275 OFFCURVE",
"9 -275 CURVE SMOOTH",
"30 -275 OFFCURVE",
"59 -279 OFFCURVE",
"77 -279 CURVE SMOOTH",
"98 -279 OFFCURVE",
"125 -274 OFFCURVE",
"150 -258 CURVE SMOOTH",
"171 -244 OFFCURVE",
"188 -224 OFFCURVE",
"203 -197 CURVE SMOOTH",
"240 -128 OFFCURVE",
"249 -38 OFFCURVE",
"249 0 CURVE",
"365 0 LINE SMOOTH",
"365 98 LINE SMOOTH"
);
},
{
closed = 1;
nodes = (
"203 122 OFFCURVE",
"204 104 OFFCURVE",
"204 98 CURVE",
"146 98 LINE SMOOTH",
"111 98 OFFCURVE",
"81 104 OFFCURVE",
"81 142 CURVE SMOOTH",
"81 165 OFFCURVE",
"104 186 OFFCURVE",
"135 186 CURVE SMOOTH",
"162 186 OFFCURVE",
"181 169 OFFCURVE",
"191 148 CURVE SMOOTH"
);
}
);
width = 365;
}
);
unicode = FEEE;
},
{
glyphname = "alefMaksura-ar";
lastChange = "2015-11-08 18:59:00 +0000";
layers = (
{
anchors = (
{
name = bottom;
position = "{285, -219}";
},
{
name = top;
position = "{140, 101}";
}
);
layerId = "51F41761-070F-43EA-B302-C90910850260";
name = Regular;
paths = (
{
closed = 1;
nodes = (
"410 130 OFFCURVE",
"391 144 OFFCURVE",
"391 165 CURVE SMOOTH",
"391 170 OFFCURVE",
"399 199 OFFCURVE",
"423 226 CURVE SMOOTH",
"446 251 OFFCURVE",
"482 279 OFFCURVE",
"541 279 CURVE",
"541 279 OFFCURVE",
"556 274 OFFCURVE",
"579 230 CURVE",
"597 238 LINE",
"598 255 OFFCURVE",
"596 314 OFFCURVE",
"566 345 CURVE SMOOTH",
"554 359 OFFCURVE",
"536 366 OFFCURVE",
"516 366 CURVE SMOOTH",
"481 366 OFFCURVE",
"430 347 OFFCURVE",
"383 255 CURVE SMOOTH",
"351 192 OFFCURVE",
"338 127 OFFCURVE",
"338 107 CURVE SMOOTH",
"338 85 OFFCURVE",
"354 69 OFFCURVE",
"374 59 CURVE SMOOTH",
"395 48 OFFCURVE",
"420 42 OFFCURVE",
"439 39 CURVE SMOOTH",
"520 25 OFFCURVE",
"556 19 OFFCURVE",
"556 19 CURVE SMOOTH",
"556 19 OFFCURVE",
"526 -26 OFFCURVE",
"453 -57 CURVE SMOOTH",
"414 -74 OFFCURVE",
"362 -86 OFFCURVE",
"296 -86 CURVE SMOOTH",
"221 -86 OFFCURVE",
"164 -70 OFFCURVE",
"133 -32 CURVE SMOOTH",
"107 1 OFFCURVE",
"109 43 OFFCURVE",
"120 101 CURVE",
"101 108 LINE",
"85 67 OFFCURVE",
"77 29 OFFCURVE",
"72 -5 CURVE SMOOTH",
"64 -67 OFFCURVE",
"86 -116 OFFCURVE",
"126 -149 CURVE SMOOTH",
"166 -182 OFFCURVE",
"223 -199 OFFCURVE",
"285 -199 CURVE SMOOTH",
"344 -199 OFFCURVE",
"405 -182 OFFCURVE",
"459 -155 CURVE SMOOTH",
"503 -134 OFFCURVE",
"534 -105 OFFCURVE",
"555 -75 CURVE SMOOTH",
"591 -25 OFFCURVE",
"599 29 OFFCURVE",
"599 56 CURVE SMOOTH",
"599 77 OFFCURVE",
"590 108 OFFCURVE",
"484 121 CURVE SMOOTH"
);
}
);
width = 659;
}
);
unicode = 0649;
},
{
glyphname = "alefMaksura-ar.fina";
lastChange = "2015-11-08 18:59:00 +0000";
layers = (
{
anchors = (
{
name = bottom;
position = "{283, -301}";
},
{
name = top;
position = "{139, 19}";
}
);
layerId = "51F41761-070F-43EA-B302-C90910850260";
name = Regular;
paths = (
{
closed = 1;
nodes = (
"482 98 LINE",
"460 71 OFFCURVE",
"440 37 OFFCURVE",
"422 -1 CURVE",
"434 -3 OFFCURVE",
"454 -7 OFFCURVE",
"474 -14 CURVE SMOOTH",
"520 -29 OFFCURVE",
"543 -48 OFFCURVE",
"543 -71 CURVE SMOOTH",
"543 -92 OFFCURVE",
"503 -119 OFFCURVE",
"447 -139 CURVE SMOOTH",
"401 -156 OFFCURVE",
"344 -168 OFFCURVE",
"292 -168 CURVE SMOOTH",
"217 -168 OFFCURVE",
"163 -152 OFFCURVE",
"132 -114 CURVE SMOOTH",
"105 -81 OFFCURVE",
"108 -39 OFFCURVE",
"119 19 CURVE",
"100 26 LINE",
"84 -12 OFFCURVE",
"74 -50 OFFCURVE",
"71 -87 CURVE SMOOTH",
"68 -120 OFFCURVE",
"72 -149 OFFCURVE",
"83 -175 CURVE SMOOTH",
"96 -206 OFFCURVE",
"117 -231 OFFCURVE",
"147 -248 CURVE SMOOTH",
"182 -270 OFFCURVE",
"228 -281 OFFCURVE",
"283 -281 CURVE SMOOTH",
"342 -281 OFFCURVE",
"404 -266 OFFCURVE",
"457 -237 CURVE SMOOTH",
"508 -211 OFFCURVE",
"547 -175 OFFCURVE",
"567 -137 CURVE SMOOTH",
"585 -103 OFFCURVE",
"589 -75 OFFCURVE",
"589 -58 CURVE SMOOTH",
"589 -36 OFFCURVE",
"582 -14 OFFCURVE",
"563 0 CURVE",
"640 0 LINE",
"640 98 LINE"
);
}
);
width = 640;
}
);
unicode = FEF0;
},
{
glyphname = "yehTail-ar";
lastChange = "2015-11-08 18:59:00 +0000";
layers = (
{
components = (
{
name = "alefMaksura-ar";
}
);
layerId = "51F41761-070F-43EA-B302-C90910850260";
name = Regular;
paths = (
{
closed = 1;
nodes = (
"72 91 OFFCURVE",
"40 75 OFFCURVE",
"1 65 CURVE",
"30 30 LINE",
"101 61 LINE",
"101 108 LINE"
);
}
);
width = 659;
}
);
unicode = 06CD;
},
{
glyphname = "yehTail-ar.fina";
lastChange = "2015-11-08 18:59:00 +0000";
layers = (
{
components = (
{
name = "alefMaksura-ar.fina";
}
);
layerId = "51F41761-070F-43EA-B302-C90910850260";
name = Regular;
paths = (
{
closed = 1;
nodes = (
"71 9 OFFCURVE",
"39 -7 OFFCURVE",
"0 -17 CURVE",
"29 -52 LINE",
"100 -21 LINE",
"100 26 LINE"
);
}
);
width = 640;
}
);
},
{
glyphname = "yehbarree-ar";
lastChange = "2015-11-08 18:59:00 +0000";
layers = (
{
anchors = (
{
name = bottom;
position = "{432, -17}";
},
{
name = top;
position = "{216, 284}";
}
);
layerId = "51F41761-070F-43EA-B302-C90910850260";
name = Regular;
paths = (
{
closed = 1;
nodes = (
"460 280 OFFCURVE",
"466 351 OFFCURVE",
"442 387 CURVE SMOOTH",
"430 405 OFFCURVE",
"414 407 OFFCURVE",
"407 407 CURVE SMOOTH",
"388 407 OFFCURVE",
"374 391 OFFCURVE",
"353 362 CURVE SMOOTH",
"324 320 OFFCURVE",
"313 305 OFFCURVE",
"226 264 CURVE SMOOTH",
"194 249 OFFCURVE",
"153 230 OFFCURVE",
"122 204 CURVE SMOOTH",
"87 175 OFFCURVE",
"70 143 OFFCURVE",
"70 106 CURVE SMOOTH",
"70 73 OFFCURVE",
"83 49 OFFCURVE",
"109 32 CURVE SMOOTH",
"141 11 OFFCURVE",
"194 1 OFFCURVE",
"265 1 CURVE SMOOTH",
"825 1 LINE",
"858 40 OFFCURVE",
"873 65 OFFCURVE",
"890 99 CURVE",
"270 99 LINE SMOOTH",
"170 99 OFFCURVE",
"135 111 OFFCURVE",
"135 145 CURVE SMOOTH",
"135 160 OFFCURVE",
"144 177 OFFCURVE",
"166 186 CURVE SMOOTH",
"261 221 OFFCURVE",
"279 242 OFFCURVE",
"318 281 CURVE SMOOTH",
"328 291 OFFCURVE",
"358 335 OFFCURVE",
"395 335 CURVE SMOOTH",
"441 335 OFFCURVE",
"435 282 OFFCURVE",
"432 242 CURVE",
"451 246 LINE"
);
}
);
width = 950;
}
);
unicode = 06D2;
},
{
glyphname = "yehbarree-ar.fina";
lastChange = "2015-11-08 18:59:00 +0000";
layers = (
{
anchors = (
{
name = bottom;
position = "{266, -294}";
},
{
name = top;
position = "{214, -23}";
}
);
layerId = "51F41761-070F-43EA-B302-C90910850260";
name = Regular;
paths = (
{
closed = 1;
nodes = (
"584 98 LINE",
"470 98 LINE SMOOTH",
"433 98 OFFCURVE",
"399 90 OFFCURVE",
"370 74 CURVE SMOOTH",
"347 61 OFFCURVE",
"337 51 OFFCURVE",
"321 36 CURVE SMOOTH",
"295 12 OFFCURVE",
"253 -9 OFFCURVE",
"226 -21 CURVE SMOOTH",
"193 -37 OFFCURVE",
"156 -55 OFFCURVE",
"126 -79 CURVE SMOOTH",
"69 -125 OFFCURVE",
"70 -164 OFFCURVE",
"70 -179 CURVE SMOOTH",
"70 -193 OFFCURVE",
"75 -224 OFFCURVE",
"110 -248 CURVE SMOOTH",
"144 -272 OFFCURVE",
"198 -284 OFFCURVE",
"266 -284 CURVE SMOOTH",
"567 -284 LINE",
"599 -245 OFFCURVE",
"616 -221 OFFCURVE",
"632 -186 CURVE",
"244 -186 LINE",
"196 -186 OFFCURVE",
"136 -183 OFFCURVE",
"136 -138 CURVE SMOOTH",
"136 -123 OFFCURVE",
"151 -106 OFFCURVE",
"170 -100 CURVE SMOOTH",
"183 -95 OFFCURVE",
"201 -87 OFFCURVE",
"222 -76 CURVE SMOOTH",
"249 -63 OFFCURVE",
"272 -49 OFFCURVE",
"291 -33 CURVE",
"303 -21 OFFCURVE",
"327 0 OFFCURVE",
"384 0 CURVE SMOOTH",
"584 0 LINE"
);
}
);
width = 583;
}
);
unicode = FBAF;
},
{
color = 9;
glyphname = "yehRohingya-ar.pt.fina";
lastChange = "2015-11-08 18:59:00 +0000";
layers = (
{
layerId = "51F41761-070F-43EA-B302-C90910850260";
name = Regular;
paths = (
{
closed = 1;
nodes = (
"454 98 LINE SMOOTH",
"454 98 OFFCURVE",
"472 131 OFFCURVE",
"472 185 CURVE SMOOTH",
"472 267 OFFCURVE",
"430 308 OFFCURVE",
"391 308 CURVE SMOOTH",
"365 308 OFFCURVE",
"338 290 OFFCURVE",
"315 259 CURVE SMOOTH",
"294 231 OFFCURVE",
"277 193 OFFCURVE",
"277 158 CURVE SMOOTH",
"277 120 OFFCURVE",
"297 98 OFFCURVE",
"297 98 CURVE SMOOTH",
"202 98 LINE SMOOTH",
"170 98 OFFCURVE",
"134 89 OFFCURVE",
"108 65 CURVE SMOOTH",
"85 44 OFFCURVE",
"70 12 OFFCURVE",
"70 -35 CURVE SMOOTH",
"70 -86 OFFCURVE",
"101 -137 OFFCURVE",
"170 -156 CURVE",
"196 -139 LINE",
"168 -120 OFFCURVE",
"141 -95 OFFCURVE",
"141 -60 CURVE SMOOTH",
"141 -27 OFFCURVE",
"161 0 OFFCURVE",
"206 0 CURVE SMOOTH",
"308 0 LINE SMOOTH",
"384 0 OFFCURVE",
"422 19 OFFCURVE",
"437 45 CURVE",
"442 34 OFFCURVE",
"461 0 OFFCURVE",
"531 0 CURVE SMOOTH",
"602 0 LINE",
"602 98 LINE"
);
},
{
closed = 1;
nodes = (
"439 155 OFFCURVE",
"416 110 OFFCURVE",
"374 110 CURVE SMOOTH",
"326 110 OFFCURVE",
"309 170 OFFCURVE",
"309 170 CURVE SMOOTH",
"309 170 OFFCURVE",
"339 228 OFFCURVE",
"373 228 CURVE SMOOTH",
"399 228 OFFCURVE",
"439 192 OFFCURVE",
"439 171 CURVE SMOOTH"
);
}
);
width = 600;
}
);
},
{
glyphname = "highhamzaWaw-ar.fina";
lastChange = "2015-11-08 18:59:00 +0000";
layers = (
{
anchors = (
{
name = bottom;
position = "{50, -309}";
},
{
name = top;
position = "{133, 278}";
}
);
components = (
{
disableAlignment = 1;
name = "hamzaabove-ar";
transform = "{1, 0, 0, 1, 318, -430}";
}
);
layerId = "51F41761-070F-43EA-B302-C90910850260";
name = Regular;
paths = (
{
closed = 1;
nodes = (
"247 98 LINE",
"247 128 OFFCURVE",
"238 164 OFFCURVE",
"225 192 CURVE SMOOTH",
"207 230 OFFCURVE",
"179 258 OFFCURVE",
"143 258 CURVE SMOOTH",
"110 258 OFFCURVE",
"83 231 OFFCURVE",
"67 197 CURVE SMOOTH",
"55 170 OFFCURVE",
"49 150 OFFCURVE",
"49 117 CURVE SMOOTH",
"49 98 OFFCURVE",
"51 60 OFFCURVE",
"69 35 CURVE SMOOTH",
"86 10 OFFCURVE",
"116 0 OFFCURVE",
"157 0 CURVE SMOOTH",
"209 0 LINE",
"209 -11 OFFCURVE",
"207 -26 OFFCURVE",
"204 -38 CURVE SMOOTH",
"194 -79 OFFCURVE",
"172 -119 OFFCURVE",
"139 -150 CURVE SMOOTH",
"118 -170 OFFCURVE",
"91 -188 OFFCURVE",
"70 -200 CURVE SMOOTH",
"44 -215 OFFCURVE",
"-48 -263 OFFCURVE",
"-60 -270 CURVE",
"-51 -283 LINE",
"-29 -278 OFFCURVE",
"-10 -275 OFFCURVE",
"9 -275 CURVE SMOOTH",
"30 -275 OFFCURVE",
"59 -279 OFFCURVE",
"77 -279 CURVE SMOOTH",
"98 -279 OFFCURVE",
"125 -274 OFFCURVE",
"150 -258 CURVE SMOOTH",
"171 -244 OFFCURVE",
"188 -224 OFFCURVE",
"203 -197 CURVE SMOOTH",
"240 -128 OFFCURVE",
"249 -38 OFFCURVE",
"249 0 CURVE",
"540 0 LINE",
"540 98 LINE"
);
},
{
closed = 1;
nodes = (
"203 122 OFFCURVE",
"204 104 OFFCURVE",
"204 98 CURVE",
"146 98 LINE SMOOTH",
"111 98 OFFCURVE",
"81 104 OFFCURVE",
"81 142 CURVE SMOOTH",
"81 165 OFFCURVE",
"104 186 OFFCURVE",
"135 186 CURVE SMOOTH",
"162 186 OFFCURVE",
"181 169 OFFCURVE",
"191 148 CURVE SMOOTH"
);
}
);
width = 540;
}
);
},
{
glyphname = "highhamzaYeh-ar.fina";
lastChange = "2015-11-08 18:59:00 +0000";
layers = (
{
anchors = (
{
name = bottom;
position = "{283, -301}";
},
{
name = top;
position = "{139, 19}";
}
);
components = (
{
name = "hamzaabove-ar";
transform = "{1, 0, 0, 1, 610, -558}";
}
);
layerId = "51F41761-070F-43EA-B302-C90910850260";
name = Regular;
paths = (
{
closed = 1;
nodes = (
"482 98 LINE",
"460 71 OFFCURVE",
"440 37 OFFCURVE",
"422 -1 CURVE",
"434 -3 OFFCURVE",
"454 -7 OFFCURVE",
"474 -14 CURVE SMOOTH",
"520 -29 OFFCURVE",
"543 -48 OFFCURVE",
"543 -71 CURVE SMOOTH",
"543 -92 OFFCURVE",
"503 -119 OFFCURVE",
"447 -139 CURVE SMOOTH",
"401 -156 OFFCURVE",
"344 -168 OFFCURVE",
"292 -168 CURVE SMOOTH",
"217 -168 OFFCURVE",
"163 -152 OFFCURVE",
"132 -114 CURVE SMOOTH",
"105 -81 OFFCURVE",
"108 -39 OFFCURVE",
"119 19 CURVE",
"100 26 LINE",
"84 -12 OFFCURVE",
"74 -50 OFFCURVE",
"71 -87 CURVE SMOOTH",
"68 -120 OFFCURVE",
"72 -149 OFFCURVE",
"83 -175 CURVE SMOOTH",
"96 -206 OFFCURVE",
"117 -231 OFFCURVE",
"147 -248 CURVE SMOOTH",
"182 -270 OFFCURVE",
"228 -281 OFFCURVE",
"283 -281 CURVE SMOOTH",
"342 -281 OFFCURVE",
"404 -266 OFFCURVE",
"457 -237 CURVE SMOOTH",
"508 -211 OFFCURVE",
"547 -175 OFFCURVE",
"567 -137 CURVE SMOOTH",
"585 -103 OFFCURVE",
"589 -75 OFFCURVE",
"589 -58 CURVE SMOOTH",
"589 -36 OFFCURVE",
"582 -14 OFFCURVE",
"563 0 CURVE",
"833 0 LINE",
"833 98 LINE"
);
}
);
width = 833;
}
);
},
{
glyphname = "highhamzaYeh-ar.medi";
lastChange = "2015-11-08 18:59:00 +0000";
layers = (
{
anchors = (
{
name = bottom;
position = "{246, -15}";
},
{
name = top;
position = "{262, 383}";
}
);
components = (
{
disableAlignment = 1;
name = "hamzaabove-ar";
transform = "{1, 0, 0, 1, 260, -491}";
}
);
layerId = "51F41761-070F-43EA-B302-C90910850260";
name = Regular;
paths = (
{
closed = 1;
nodes = (
"114 183 LINE",
"109 127 OFFCURVE",
"89 98 OFFCURVE",
"19 98 CURVE SMOOTH",
"-21 98 LINE SMOOTH",
"-48 98 OFFCURVE",
"-70 77 OFFCURVE",
"-70 50 CURVE SMOOTH",
"-70 22 OFFCURVE",
"-48 0 OFFCURVE",
"-21 0 CURVE SMOOTH",
"38 0 LINE SMOOTH",
"69 0 OFFCURVE",
"95 11 OFFCURVE",
"114 31 CURVE SMOOTH",
"133 51 OFFCURVE",
"136 68 OFFCURVE",
"139 76 CURVE",
"140 68 OFFCURVE",
"145 50 OFFCURVE",
"160 33 CURVE SMOOTH",
"176 15 OFFCURVE",
"200 0 OFFCURVE",
"244 0 CURVE SMOOTH",
"484 0 LINE",
"484 98 LINE",
"230 98 LINE SMOOTH",
"195 98 OFFCURVE",
"170 107 OFFCURVE",
"154 125 CURVE SMOOTH",
"140 141 OFFCURVE",
"134 164 OFFCURVE",
"136 195 CURVE"
);
}
);
width = 484;
}
);
},
{
glyphname = "kashida-ar";
lastChange = "2015-11-08 18:59:00 +0000";
layers = (
{
layerId = "51F41761-070F-43EA-B302-C90910850260";
name = Regular;
paths = (
{
closed = 1;
nodes = (
"-22 98 LINE SMOOTH",
"-44 98 OFFCURVE",
"-70 80 OFFCURVE",
"-70 49 CURVE SMOOTH",
"-70 21 OFFCURVE",
"-49 0 OFFCURVE",
"-22 0 CURVE SMOOTH",
"187 0 LINE",
"187 98 LINE"
);
}
);
width = 187;
}
);
unicode = 0640;
},
{
glyphname = "lam_alef-ar";
lastChange = "2015-11-08 18:59:00 +0000";
layers = (
{
anchors = (
{
name = bottom_1;
position = "{164, -26}";
},
{
name = bottom_2;
position = "{164, -25}";
},
{
name = caret_1;
position = "{165, -26}";
},
{
name = top_1;
position = "{194, 547}";
},
{
name = top_2;
position = "{-21, 513}";
}
);
layerId = "51F41761-070F-43EA-B302-C90910850260";
name = Regular;
paths = (
{
closed = 1;
nodes = (
"331 493 OFFCURVE",
"307 528 OFFCURVE",
"292 568 CURVE",
"273 546 OFFCURVE",
"253 530 OFFCURVE",
"244 523 CURVE",
"256 476 OFFCURVE",
"265 417 OFFCURVE",
"259 359 CURVE SMOOTH",
"255 321 OFFCURVE",
"245 283 OFFCURVE",
"226 248 CURVE",
"210 279 OFFCURVE",
"186 314 OFFCURVE",
"156 351 CURVE SMOOTH",
"117 399 OFFCURVE",
"74 442 OFFCURVE",
"32 479 CURVE SMOOTH",
"8 500 OFFCURVE",
"-3 508 OFFCURVE",
"-9 511 CURVE SMOOTH",
"-15 514 OFFCURVE",
"-27 517 OFFCURVE",
"-33 505 CURVE SMOOTH",
"-36 499 OFFCURVE",
"-47 466 OFFCURVE",
"-50 430 CURVE",
"-26 410 OFFCURVE",
"-8 396 OFFCURVE",
"19 379 CURVE",
"30 396 LINE",
"46 383 OFFCURVE",
"123 314 OFFCURVE",
"197 191 CURVE",
"162 142 OFFCURVE",
"121 110 OFFCURVE",
"72 97 CURVE",
"59 96 LINE",
"55 64 OFFCURVE",
"54 32 OFFCURVE",
"54 -5 CURVE",
"164 -5 OFFCURVE",
"225 4 OFFCURVE",
"283 17 CURVE",
"285 30 OFFCURVE",
"290 73 OFFCURVE",
"290 76 CURVE",
"292 117 OFFCURVE",
"269 172 OFFCURVE",
"257 196 CURVE",
"311 290 OFFCURVE",
"313 385 OFFCURVE",
"309 431 CURVE",
"335 421 LINE",
"357 473 LINE"
);
},
{
closed = 1;
nodes = (
"226 95 OFFCURVE",
"180 94 OFFCURVE",
"161 94 CURVE",
"172 101 OFFCURVE",
"202 120 OFFCURVE",
"224 153 CURVE",
"234 134 OFFCURVE",
"241 120 OFFCURVE",
"251 99 CURVE"
);
}
);
width = 337;
}
);
unicode = FEFB;
},
{
glyphname = "lam_alef-ar.fina";
lastChange = "2015-11-08 18:59:00 +0000";
layers = (
{
anchors = (
{
name = bottom_1;
position = "{162, -66}";
},
{
name = bottom_2;
position = "{162, -65}";
},
{
name = caret_1;
position = "{161, -67}";
},
{
name = top_1;
position = "{292, 547}";
},
{
name = top_2;
position = "{52, 517}";
}
);
layerId = "51F41761-070F-43EA-B302-C90910850260";
name = Regular;
paths = (
{
closed = 1;
nodes = (
"514 98 LINE SMOOTH",
"480 98 OFFCURVE",
"460 106 OFFCURVE",
"447 131 CURVE SMOOTH",
"435 154 OFFCURVE",
"428 187 OFFCURVE",
"422 250 CURVE SMOOTH",
"422 254 OFFCURVE",
"413 342 OFFCURVE",
"407 406 CURVE SMOOTH",
"396 520 OFFCURVE",
"398 504 OFFCURVE",
"391 567 CURVE",
"366 547 OFFCURVE",
"345 525 OFFCURVE",
"331 505 CURVE",
"331 505 OFFCURVE",
"342 429 OFFCURVE",
"345 406 CURVE SMOOTH",
"348 381 OFFCURVE",
"354 307 OFFCURVE",
"351 259 CURVE SMOOTH",
"348 207 OFFCURVE",
"336 184 OFFCURVE",
"330 176 CURVE",
"319 215 OFFCURVE",
"294 262 OFFCURVE",
"273 295 CURVE SMOOTH",
"244 340 OFFCURVE",
"202 391 OFFCURVE",
"148 438 CURVE",
"100 481 OFFCURVE",
"49 517 OFFCURVE",
"32 517 CURVE SMOOTH",
"25 517 OFFCURVE",
"19 511 OFFCURVE",
"18 501 CURVE SMOOTH",
"13 459 OFFCURVE",
"15 482 OFFCURVE",
"10 434 CURVE",
"33 416 OFFCURVE",
"52 402 OFFCURVE",
"79 385 CURVE",
"90 405 LINE",
"114 386 OFFCURVE",
"151 356 OFFCURVE",
"196 301 CURVE SMOOTH",
"244 242 OFFCURVE",
"291 167 OFFCURVE",
"286 115 CURVE",
"278 105 OFFCURVE",
"225 35 OFFCURVE",
"61 -46 CURVE",
"63 -59 LINE",
"90 -51 OFFCURVE",
"115 -47 OFFCURVE",
"138 -43 CURVE SMOOTH",
"184 -35 OFFCURVE",
"207 -30 OFFCURVE",
"242 -12 CURVE SMOOTH",
"364 50 OFFCURVE",
"379 130 OFFCURVE",
"380 135 CURVE",
"382 83 OFFCURVE",
"395 54 OFFCURVE",
"411 36 CURVE SMOOTH",
"431 13 OFFCURVE",
"461 0 OFFCURVE",
"517 0 CURVE SMOOTH",
"549 0 LINE",
"549 98 LINE"
);
}
);
width = 549;
}
);
unicode = FEFC;
},
{
color = 4;
glyphname = "dotlessbeh_hah-ar";
lastChange = "2015-11-08 18:59:00 +0000";
layers = (
{
layerId = "51F41761-070F-43EA-B302-C90910850260";
name = Regular;
paths = (
{
closed = 1;
nodes = (
"428 244 OFFCURVE",
"400 251 OFFCURVE",
"347 261 CURVE SMOOTH",
"260 277 OFFCURVE",
"218 276 OFFCURVE",
"203 278 CURVE",
"230 288 OFFCURVE",
"255 300 OFFCURVE",
"277 323 CURVE SMOOTH",
"292 339 OFFCURVE",
"297 350 OFFCURVE",
"309 370 CURVE SMOOTH",
"323 393 OFFCURVE",
"340 413 OFFCURVE",
"364 413 CURVE SMOOTH",
"405 413 OFFCURVE",
"397 356 OFFCURVE",
"393 342 CURVE",
"408 342 LINE",
"418 358 OFFCURVE",
"429 391 OFFCURVE",
"429 418 CURVE SMOOTH",
"429 448 OFFCURVE",
"415 478 OFFCURVE",
"379 478 CURVE SMOOTH",
"349 478 OFFCURVE",
"325 457 OFFCURVE",
"304 431 CURVE SMOOTH",
"296 421 OFFCURVE",
"281 398 OFFCURVE",
"247 366 CURVE SMOOTH",
"225 345 OFFCURVE",
"204 327 OFFCURVE",
"166 307 CURVE SMOOTH",
"142 295 OFFCURVE",
"126 284 OFFCURVE",
"110 257 CURVE",
"106 249 OFFCURVE",
"100 235 OFFCURVE",
"94 212 CURVE",
"105 213 OFFCURVE",
"150 217 OFFCURVE",
"156 217 CURVE SMOOTH",
"160 217 OFFCURVE",
"165 217 OFFCURVE",
"170 217 CURVE SMOOTH",
"233 217 OFFCURVE",
"321 202 OFFCURVE",
"321 202 CURVE",
"247 183 OFFCURVE",
"195 150 OFFCURVE",
"158 113 CURVE SMOOTH",
"87 42 OFFCURVE",
"74 -39 OFFCURVE",
"71 -69 CURVE SMOOTH",
"64 -139 OFFCURVE",
"88 -199 OFFCURVE",
"125 -240 CURVE SMOOTH",
"165 -284 OFFCURVE",
"221 -310 OFFCURVE",
"289 -310 CURVE SMOOTH",
"335 -310 OFFCURVE",
"359 -298 OFFCURVE",
"384 -284 CURVE SMOOTH",
"408 -271 OFFCURVE",
"434 -258 OFFCURVE",
"479 -256 CURVE",
"484 -241 LINE",
"448 -236 OFFCURVE",
"449 -237 OFFCURVE",
"402 -233 CURVE SMOOTH",
"357 -229 OFFCURVE",
"338 -227 OFFCURVE",
"314 -223 CURVE SMOOTH",
"254 -213 OFFCURVE",
"202 -192 OFFCURVE",
"168 -152 CURVE SMOOTH",
"135 -113 OFFCURVE",
"125 -63 OFFCURVE",
"128 -31 CURVE SMOOTH",
"133 21 OFFCURVE",
"174 99 OFFCURVE",
"253 142 CURVE SMOOTH",
"295 165 OFFCURVE",
"349 179 OFFCURVE",
"413 179 CURVE SMOOTH",
"429 179 OFFCURVE",
"446 179 OFFCURVE",
"463 177 CURVE",
"473 198 OFFCURVE",
"486 230 OFFCURVE",
"489 244 CURVE"
);
}
);
width = 549;
}
);
},
{
color = 4;
glyphname = "dotlessbeh_hah-ar.init";
lastChange = "2015-11-08 18:59:00 +0000";
layers = (
{
layerId = "51F41761-070F-43EA-B302-C90910850260";
name = Regular;
paths = (
{
closed = 1;
nodes = (
"500 230 OFFCURVE",
"486 229 OFFCURVE",
"466 229 CURVE SMOOTH",
"394 229 OFFCURVE",
"352 242 OFFCURVE",
"303 253 CURVE SMOOTH",
"263 262 OFFCURVE",
"212 271 OFFCURVE",
"161 271 CURVE",
"161 271 OFFCURVE",
"268 291 OFFCURVE",
"317 366 CURVE SMOOTH",
"327 381 OFFCURVE",
"342 413 OFFCURVE",
"371 413 CURVE SMOOTH",
"400 413 OFFCURVE",
"411 382 OFFCURVE",
"400 342 CURVE",
"415 342 LINE",
"427 360 OFFCURVE",
"433 383 OFFCURVE",
"435 397 CURVE SMOOTH",
"438 419 OFFCURVE",
"440 478 OFFCURVE",
"386 478 CURVE SMOOTH",
"349 478 OFFCURVE",
"326 449 OFFCURVE",
"290 412 CURVE SMOOTH",
"232 351 OFFCURVE",
"204 334 OFFCURVE",
"133 306 CURVE SMOOTH",
"99 293 OFFCURVE",
"76 284 OFFCURVE",
"59 257 CURVE SMOOTH",
"51 244 OFFCURVE",
"40 221 OFFCURVE",
"39 200 CURVE",
"54 191 LINE",
"63 203 OFFCURVE",
"73 216 OFFCURVE",
"114 216 CURVE SMOOTH",
"157 216 OFFCURVE",
"257 202 OFFCURVE",
"305 158 CURVE SMOOTH",
"308 156 OFFCURVE",
"246 135 OFFCURVE",
"228 129 CURVE SMOOTH",
"186 115 OFFCURVE",
"123 98 OFFCURVE",
"26 98 CURVE SMOOTH",
"-21 98 LINE SMOOTH",
"-48 98 OFFCURVE",
"-70 76 OFFCURVE",
"-70 48 CURVE SMOOTH",
"-70 21 OFFCURVE",
"-49 0 OFFCURVE",
"-21 0 CURVE SMOOTH",
"25 0 LINE SMOOTH",
"123 0 OFFCURVE",
"181 33 OFFCURVE",
"243 68 CURVE SMOOTH",
"318 110 OFFCURVE",
"379 138 OFFCURVE",
"472 139 CURVE",
"492 172 OFFCURVE",
"504 197 OFFCURVE",
"516 231 CURVE"
);
}
);
width = 576;
}
);
},
{
color = 4;
glyphname = "dotlessbeh_hah_alefMaksura-ar";
lastChange = "2015-11-08 18:59:00 +0000";
layers = (
{
layerId = "51F41761-070F-43EA-B302-C90910850260";
name = Regular;
paths = (
{
closed = 1;
nodes = (
"862 230 OFFCURVE",
"848 229 OFFCURVE",
"827 229 CURVE SMOOTH",
"763 229 OFFCURVE",
"714 241 OFFCURVE",
"665 253 CURVE SMOOTH",
"622 262 OFFCURVE",
"578 271 OFFCURVE",
"523 271 CURVE SMOOTH",
"523 271 OFFCURVE",
"630 291 OFFCURVE",
"679 366 CURVE SMOOTH",
"689 381 OFFCURVE",
"704 413 OFFCURVE",
"733 413 CURVE SMOOTH",
"762 413 OFFCURVE",
"773 382 OFFCURVE",
"762 342 CURVE",
"777 342 LINE",
"788 358 OFFCURVE",
"795 382 OFFCURVE",
"797 397 CURVE SMOOTH",
"800 419 OFFCURVE",
"802 478 OFFCURVE",
"748 478 CURVE SMOOTH",
"711 478 OFFCURVE",
"688 449 OFFCURVE",
"652 412 CURVE SMOOTH",
"594 351 OFFCURVE",
"564 333 OFFCURVE",
"495 306 CURVE SMOOTH",
"461 293 OFFCURVE",
"438 284 OFFCURVE",
"421 257 CURVE SMOOTH",
"413 244 OFFCURVE",
"402 221 OFFCURVE",
"401 200 CURVE",
"416 191 LINE",
"425 203 OFFCURVE",
"435 216 OFFCURVE",
"474 216 CURVE SMOOTH",
"517 216 OFFCURVE",
"589 197 OFFCURVE",
"667 171 CURVE",
"626 160 OFFCURVE",
"590 147 OFFCURVE",
"563 136 CURVE SMOOTH",
"533 124 OFFCURVE",
"468 88 OFFCURVE",
"450 74 CURVE SMOOTH",
"444 69 OFFCURVE",
"426 42 OFFCURVE",
"421 -2 CURVE",
"438 -5 OFFCURVE",
"464 -11 OFFCURVE",
"487 -19 CURVE SMOOTH",
"524 -33 OFFCURVE",
"543 -50 OFFCURVE",
"543 -71 CURVE SMOOTH",
"543 -95 OFFCURVE",
"495 -119 OFFCURVE",
"464 -132 CURVE",
"432 -147 OFFCURVE",
"367 -168 OFFCURVE",
"292 -168 CURVE SMOOTH",
"217 -168 OFFCURVE",
"163 -152 OFFCURVE",
"132 -114 CURVE SMOOTH",
"105 -81 OFFCURVE",
"109 -39 OFFCURVE",
"119 19 CURVE",
"100 26 LINE",
"85 -11 OFFCURVE",
"74 -50 OFFCURVE",
"71 -87 CURVE SMOOTH",
"68 -120 OFFCURVE",
"72 -149 OFFCURVE",
"83 -175 CURVE SMOOTH",
"97 -210 OFFCURVE",
"123 -237 OFFCURVE",
"159 -255 CURVE SMOOTH",
"192 -272 OFFCURVE",
"234 -281 OFFCURVE",
"283 -281 CURVE SMOOTH",
"342 -281 OFFCURVE",
"404 -266 OFFCURVE",
"457 -238 CURVE SMOOTH",
"508 -211 OFFCURVE",
"547 -175 OFFCURVE",
"567 -137 CURVE SMOOTH",
"581 -110 OFFCURVE",
"589 -83 OFFCURVE",
"589 -59 CURVE SMOOTH",
"589 5 OFFCURVE",
"526 28 OFFCURVE",
"486 39 CURVE",
"486 39 OFFCURVE",
"546 81 OFFCURVE",
"619 104 CURVE SMOOTH",
"661 117 OFFCURVE",
"724 139 OFFCURVE",
"789 139 CURVE SMOOTH",
"834 139 LINE",
"854 172 OFFCURVE",
"866 197 OFFCURVE",
"878 231 CURVE"
);
}
);
width = 938;
}
);
},
{
color = 4;
glyphname = "dotlessbeh_reh-ar";
lastChange = "2015-11-08 18:59:00 +0000";
layers = (
{
layerId = "51F41761-070F-43EA-B302-C90910850260";
name = Regular;
paths = (
{
closed = 1;
nodes = (
"295 211 OFFCURVE",
"239 192 OFFCURVE",
"213 179 CURVE SMOOTH",
"158 151 OFFCURVE",
"128 85 OFFCURVE",
"135 23 CURVE SMOOTH",
"137 5 OFFCURVE",
"142 -12 OFFCURVE",
"142 -34 CURVE SMOOTH",
"142 -72 OFFCURVE",
"128 -101 OFFCURVE",
"100 -128 CURVE SMOOTH",
"74 -153 OFFCURVE",
"33 -179 OFFCURVE",
"-5 -201 CURVE SMOOTH",
"-43 -223 OFFCURVE",
"-83 -244 OFFCURVE",
"-120 -264 CURVE",
"-111 -277 LINE",
"-90 -271 OFFCURVE",
"-72 -269 OFFCURVE",
"-57 -269 CURVE SMOOTH",
"-35 -269 OFFCURVE",
"-3 -273 OFFCURVE",
"19 -273 CURVE SMOOTH",
"59 -273 OFFCURVE",
"80 -260 OFFCURVE",
"101 -240 CURVE SMOOTH",
"121 -221 OFFCURVE",
"141 -194 OFFCURVE",
"158 -155 CURVE SMOOTH",
"180 -105 OFFCURVE",
"189 -65 OFFCURVE",
"189 -23 CURVE SMOOTH",
"190 2 OFFCURVE",
"187 28 OFFCURVE",
"182 57 CURVE",
"191 75 OFFCURVE",
"286 104 OFFCURVE",
"345 104 CURVE SMOOTH",
"350 104 OFFCURVE",
"355 104 OFFCURVE",
"359 103 CURVE",
"381 151 OFFCURVE",
"389 209 OFFCURVE",
"389 209 CURVE",
"379 210 OFFCURVE",
"371 211 OFFCURVE",
"357 211 CURVE SMOOTH"
);
}
);
width = 449;
}
);
},
{
color = 4;
glyphname = "dotlessbeh_reh-ar.fina";
lastChange = "2015-11-08 18:59:00 +0000";
layers = (
{
layerId = "51F41761-070F-43EA-B302-C90910850260";
name = Regular;
paths = (
{
closed = 1;
nodes = (
"498 98 LINE SMOOTH",
"441 98 OFFCURVE",
"416 124 OFFCURVE",
"407 166 CURVE SMOOTH",
"400 196 OFFCURVE",
"401 235 OFFCURVE",
"404 279 CURVE",
"382 267 LINE",
"380 241 OFFCURVE",
"365 220 OFFCURVE",
"343 206 CURVE SMOOTH",
"321 191 OFFCURVE",
"290 182 OFFCURVE",
"257 183 CURVE SMOOTH",
"224 184 OFFCURVE",
"195 191 OFFCURVE",
"168 206 CURVE SMOOTH",
"152 215 OFFCURVE",
"136 227 OFFCURVE",
"121 243 CURVE",
"104 224 OFFCURVE",
"89 201 OFFCURVE",
"73 171 CURVE",
"112 135 OFFCURVE",
"142 98 OFFCURVE",
"142 43 CURVE SMOOTH",
"142 5 OFFCURVE",
"128 -24 OFFCURVE",
"100 -51 CURVE SMOOTH",
"74 -76 OFFCURVE",
"33 -102 OFFCURVE",
"-5 -124 CURVE SMOOTH",
"-43 -146 OFFCURVE",
"-83 -167 OFFCURVE",
"-120 -187 CURVE",
"-111 -200 LINE",
"-90 -194 OFFCURVE",
"-72 -192 OFFCURVE",
"-57 -192 CURVE SMOOTH",
"-35 -192 OFFCURVE",
"-3 -196 OFFCURVE",
"19 -196 CURVE SMOOTH",
"59 -196 OFFCURVE",
"80 -183 OFFCURVE",
"101 -163 CURVE SMOOTH",
"121 -144 OFFCURVE",
"141 -117 OFFCURVE",
"158 -78 CURVE SMOOTH",
"175 -39 OFFCURVE",
"182 -4 OFFCURVE",
"185 35 CURVE SMOOTH",
"188 71 OFFCURVE",
"186 101 OFFCURVE",
"185 113 CURVE",
"200 95 OFFCURVE",
"226 89 OFFCURVE",
"254 89 CURVE SMOOTH",
"302 89 OFFCURVE",
"347 104 OFFCURVE",
"368 160 CURVE",
"362 122 OFFCURVE",
"365 84 OFFCURVE",
"382 54 CURVE SMOOTH",
"401 22 OFFCURVE",
"436 0 OFFCURVE",
"494 0 CURVE SMOOTH",
"533 0 LINE",
"533 98 LINE"
);
}
);
width = 533;
}
);
},
{
color = 4;
glyphname = "dotlessbeh_meem-ar";
lastChange = "2015-11-08 18:59:00 +0000";
layers = (
{
layerId = "51F41761-070F-43EA-B302-C90910850260";
name = Regular;
paths = (
{
closed = 1;
nodes = (
"406 122 OFFCURVE",
"410 137 OFFCURVE",
"410 149 CURVE SMOOTH",
"409 171 OFFCURVE",
"390 193 OFFCURVE",
"354 193 CURVE SMOOTH",
"293 193 OFFCURVE",
"248 166 OFFCURVE",
"214 125 CURVE SMOOTH",
"188 94 OFFCURVE",
"170 54 OFFCURVE",
"161 5 CURVE",
"130 -10 OFFCURVE",
"115 -16 OFFCURVE",
"95 -45 CURVE",
"77 -69 OFFCURVE",
"65 -105 OFFCURVE",
"72 -155 CURVE",
"103 -342 OFFCURVE",
"108 -408 OFFCURVE",
"111 -432 CURVE",
"137 -424 LINE",
"136 -346 OFFCURVE",
"128 -276 OFFCURVE",
"117 -175 CURVE SMOOTH",
"112 -130 OFFCURVE",
"111 -125 OFFCURVE",
"105 -91 CURVE",
"130 -67 OFFCURVE",
"148 -56 OFFCURVE",
"200 -56 CURVE SMOOTH",
"242 -56 OFFCURVE",
"266 -59 OFFCURVE",
"293 -65 CURVE",
"310 -41 OFFCURVE",
"321 -19 OFFCURVE",
"329 5 CURVE",
"317 16 OFFCURVE",
"274 55 OFFCURVE",
"214 68 CURVE",
"228 83 OFFCURVE",
"243 97 OFFCURVE",
"261 108 CURVE SMOOTH",
"278 118 OFFCURVE",
"297 127 OFFCURVE",
"321 132 CURVE SMOOTH",
"355 140 OFFCURVE",
"390 135 OFFCURVE",
"387 109 CURVE",
"397 109 LINE"
);
}
);
width = 470;
}
);
},
{
color = 4;
glyphname = "dotlessbeh_meem-ar.fina";
lastChange = "2015-11-08 18:59:00 +0000";
layers = (
{
layerId = "51F41761-070F-43EA-B302-C90910850260";
name = Regular;
paths = (
{
closed = 1;
nodes = (
"463 98 LINE SMOOTH",
"421 98 OFFCURVE",
"397 123 OFFCURVE",
"375 145 CURVE SMOOTH",
"356 165 OFFCURVE",
"338 184 OFFCURVE",
"308 184 CURVE SMOOTH",
"280 184 OFFCURVE",
"237 167 OFFCURVE",
"203 118 CURVE SMOOTH",
"178 82 OFFCURVE",
"169 51 OFFCURVE",
"161 5 CURVE",
"130 -10 OFFCURVE",
"115 -16 OFFCURVE",
"95 -45 CURVE",
"77 -69 OFFCURVE",
"65 -105 OFFCURVE",
"72 -155 CURVE",
"103 -342 OFFCURVE",
"108 -408 OFFCURVE",
"111 -432 CURVE",
"137 -424 LINE",
"136 -346 OFFCURVE",
"128 -276 OFFCURVE",
"117 -175 CURVE SMOOTH",
"112 -130 OFFCURVE",
"111 -125 OFFCURVE",
"105 -91 CURVE",
"130 -67 OFFCURVE",
"148 -56 OFFCURVE",
"200 -56 CURVE SMOOTH",
"242 -56 OFFCURVE",
"280 -63 OFFCURVE",
"307 -69 CURVE",
"324 -45 OFFCURVE",
"335 -23 OFFCURVE",
"343 1 CURVE",
"331 12 OFFCURVE",
"279 58 OFFCURVE",
"209 68 CURVE",
"231 98 OFFCURVE",
"253 117 OFFCURVE",
"293 117 CURVE SMOOTH",
"337 117 OFFCURVE",
"357 88 OFFCURVE",
"376 60 CURVE SMOOTH",
"398 29 OFFCURVE",
"418 0 OFFCURVE",
"470 0 CURVE SMOOTH",
"500 0 LINE",
"500 98 LINE"
);
}
);
width = 500;
}
);
},
{
color = 4;
glyphname = "dotlessbeh_noonghunna-ar";
lastChange = "2015-11-08 18:59:00 +0000";
layers = (
{
layerId = "51F41761-070F-43EA-B302-C90910850260";
name = Regular;
paths = (
{
closed = 1;
nodes = (
"687 267 LINE",
"684 226 OFFCURVE",
"654 183 OFFCURVE",
"595 183 CURVE SMOOTH",
"562 183 OFFCURVE",
"533 191 OFFCURVE",
"506 206 CURVE SMOOTH",
"490 215 OFFCURVE",
"474 227 OFFCURVE",
"459 243 CURVE",
"445 225 OFFCURVE",
"430 204 OFFCURVE",
"416 179 CURVE",
"461 104 OFFCURVE",
"487 54 OFFCURVE",
"487 21 CURVE SMOOTH",
"487 -10 OFFCURVE",
"463 -37 OFFCURVE",
"431 -55 CURVE SMOOTH",
"401 -72 OFFCURVE",
"353 -87 OFFCURVE",
"290 -87 CURVE SMOOTH",
"254 -87 OFFCURVE",
"221 -82 OFFCURVE",
"195 -73 CURVE SMOOTH",
"163 -62 OFFCURVE",
"143 -48 OFFCURVE",
"130 -28 CURVE SMOOTH",
"109 3 OFFCURVE",
"109 46 OFFCURVE",
"119 100 CURVE",
"100 107 LINE",
"83 66 OFFCURVE",
"74 28 OFFCURVE",
"71 -6 CURVE SMOOTH",
"68 -38 OFFCURVE",
"72 -69 OFFCURVE",
"83 -95 CURVE SMOOTH",
"96 -125 OFFCURVE",
"117 -151 OFFCURVE",
"156 -172 CURVE SMOOTH",
"190 -190 OFFCURVE",
"230 -200 OFFCURVE",
"282 -200 CURVE SMOOTH",
"318 -200 OFFCURVE",
"348 -195 OFFCURVE",
"369 -189 CURVE SMOOTH",
"408 -178 OFFCURVE",
"449 -153 OFFCURVE",
"476 -124 CURVE SMOOTH",
"537 -59 OFFCURVE",
"541 43 OFFCURVE",
"523 113 CURVE",
"538 97 OFFCURVE",
"566 88 OFFCURVE",
"598 88 CURVE SMOOTH",
"640 88 OFFCURVE",
"671 107 OFFCURVE",
"691 136 CURVE SMOOTH",
"718 175 OFFCURVE",
"725 231 OFFCURVE",
"709 279 CURVE"
);
}
);
width = 777;
}
);
},
{
color = 4;
glyphname = "dotlessbeh_noonghunna-ar.fina";
lastChange = "2015-11-08 18:59:00 +0000";
layers = (
{
layerId = "51F41761-070F-43EA-B302-C90910850260";
name = Regular;
paths = (
{
closed = 1;
nodes = (
"836 98 LINE SMOOTH",
"779 98 OFFCURVE",
"754 124 OFFCURVE",
"745 166 CURVE SMOOTH",
"738 196 OFFCURVE",
"739 235 OFFCURVE",
"742 279 CURVE",
"720 267 LINE",
"718 241 OFFCURVE",
"703 220 OFFCURVE",
"681 206 CURVE SMOOTH",
"659 191 OFFCURVE",
"628 182 OFFCURVE",
"595 183 CURVE SMOOTH",
"562 184 OFFCURVE",
"533 191 OFFCURVE",
"506 206 CURVE SMOOTH",
"490 215 OFFCURVE",
"474 227 OFFCURVE",
"459 243 CURVE",
"445 225 OFFCURVE",
"430 204 OFFCURVE",
"416 179 CURVE",
"461 104 OFFCURVE",
"487 54 OFFCURVE",
"487 21 CURVE SMOOTH",
"487 -10 OFFCURVE",
"463 -37 OFFCURVE",
"431 -55 CURVE SMOOTH",
"401 -72 OFFCURVE",
"353 -87 OFFCURVE",
"290 -87 CURVE SMOOTH",
"254 -87 OFFCURVE",
"221 -82 OFFCURVE",
"195 -73 CURVE SMOOTH",
"163 -62 OFFCURVE",
"143 -48 OFFCURVE",
"130 -28 CURVE SMOOTH",
"109 3 OFFCURVE",
"109 46 OFFCURVE",
"119 100 CURVE",
"100 107 LINE",
"83 66 OFFCURVE",
"74 28 OFFCURVE",
"71 -6 CURVE SMOOTH",
"68 -38 OFFCURVE",
"72 -69 OFFCURVE",
"83 -95 CURVE SMOOTH",
"96 -125 OFFCURVE",
"117 -151 OFFCURVE",
"156 -172 CURVE SMOOTH",
"190 -190 OFFCURVE",
"230 -200 OFFCURVE",
"282 -200 CURVE SMOOTH",
"318 -200 OFFCURVE",
"348 -195 OFFCURVE",
"369 -189 CURVE SMOOTH",
"408 -178 OFFCURVE",
"449 -153 OFFCURVE",
"476 -124 CURVE SMOOTH",
"537 -59 OFFCURVE",
"541 43 OFFCURVE",
"523 113 CURVE",
"533 98 OFFCURVE",
"565 89 OFFCURVE",
"600 89 CURVE SMOOTH",
"650 89 OFFCURVE",
"686 113 OFFCURVE",
"706 160 CURVE",
"699 114 OFFCURVE",
"705 73 OFFCURVE",
"727 44 CURVE SMOOTH",
"748 16 OFFCURVE",
"782 0 OFFCURVE",
"832 0 CURVE SMOOTH",
"871 0 LINE",
"871 98 LINE"
);
}
);
width = 871;
}
);
},
{
color = 4;
glyphname = "dotlessbeh_alefMaksura-ar";
lastChange = "2015-11-08 18:59:00 +0000";
layers = (
{
layerId = "51F41761-070F-43EA-B302-C90910850260";
name = Regular;
paths = (
{
closed = 1;
nodes = (
"537 193 OFFCURVE",
"509 241 OFFCURVE",
"451 301 CURVE",
"439 281 OFFCURVE",
"428 250 OFFCURVE",
"419 224 CURVE",
"465 189 OFFCURVE",
"479 171 OFFCURVE",
"505 126 CURVE",
"491 97 OFFCURVE",
"461 75 OFFCURVE",
"421 66 CURVE SMOOTH",
"407 63 OFFCURVE",
"395 63 OFFCURVE",
"388 62 CURVE",
"385 48 OFFCURVE",
"383 12 OFFCURVE",
"381 -6 CURVE",
"401 -8 OFFCURVE",
"439 -11 OFFCURVE",
"473 -20 CURVE SMOOTH",
"519 -32 OFFCURVE",
"543 -49 OFFCURVE",
"543 -67 CURVE SMOOTH",
"543 -93 OFFCURVE",
"494 -119 OFFCURVE",
"464 -132 CURVE SMOOTH",
"432 -146 OFFCURVE",
"373 -168 OFFCURVE",
"289 -168 CURVE SMOOTH",
"218 -168 OFFCURVE",
"163 -152 OFFCURVE",
"132 -114 CURVE SMOOTH",
"105 -81 OFFCURVE",
"109 -39 OFFCURVE",
"119 19 CURVE",
"100 26 LINE",
"84 -15 OFFCURVE",
"74 -53 OFFCURVE",
"71 -87 CURVE SMOOTH",
"68 -121 OFFCURVE",
"72 -149 OFFCURVE",
"83 -175 CURVE SMOOTH",
"98 -211 OFFCURVE",
"124 -237 OFFCURVE",
"160 -255 CURVE SMOOTH",
"196 -273 OFFCURVE",
"237 -281 OFFCURVE",
"282 -281 CURVE SMOOTH",
"343 -281 OFFCURVE",
"404 -266 OFFCURVE",
"457 -238 CURVE SMOOTH",
"489 -221 OFFCURVE",
"527 -193 OFFCURVE",
"550 -166 CURVE SMOOTH",
"573 -139 OFFCURVE",
"590 -104 OFFCURVE",
"590 -68 CURVE SMOOTH",
"590 -7 OFFCURVE",
"543 21 OFFCURVE",
"492 30 CURVE",
"514 50 OFFCURVE",
"540 77 OFFCURVE",
"540 141 CURVE"
);
}
);
width = 650;
}
);
},
{
color = 4;
glyphname = "dotlessbeh_alefMaksura-ar.fina";
lastChange = "2015-11-08 18:59:00 +0000";
layers = (
{
layerId = "51F41761-070F-43EA-B302-C90910850260";
name = Regular;
paths = (
{
closed = 1;
nodes = (
"722 98 LINE",
"667 98 LINE",
"616 98 OFFCURVE",
"592 120 OFFCURVE",
"574 143 CURVE SMOOTH",
"552 172 OFFCURVE",
"541 205 OFFCURVE",
"505 205 CURVE SMOOTH",
"475 205 OFFCURVE",
"454 186 OFFCURVE",
"431 154 CURVE SMOOTH",
"418 136 OFFCURVE",
"397 103 OFFCURVE",
"383 66 CURVE SMOOTH",
"369 29 OFFCURVE",
"366 0 OFFCURVE",
"374 -17 CURVE SMOOTH",
"382 -34 OFFCURVE",
"406 -48 OFFCURVE",
"435 -56 CURVE SMOOTH",
"461 -63 OFFCURVE",
"494 -67 OFFCURVE",
"534 -70 CURVE",
"524 -97 OFFCURVE",
"495 -126 OFFCURVE",
"447 -145 CURVE SMOOTH",
"399 -164 OFFCURVE",
"338 -171 OFFCURVE",
"295 -171 CURVE SMOOTH",
"233 -171 OFFCURVE",
"164 -156 OFFCURVE",
"133 -116 CURVE SMOOTH",
"116 -94 OFFCURVE",
"112 -66 OFFCURVE",
"112 -36 CURVE SMOOTH",
"112 -21 OFFCURVE",
"113 -10 OFFCURVE",
"119 17 CURVE",
"100 26 LINE",
"77 -27 OFFCURVE",
"68 -83 OFFCURVE",
"70 -119 CURVE SMOOTH",
"71 -145 OFFCURVE",
"81 -193 OFFCURVE",
"117 -228 CURVE SMOOTH",
"149 -259 OFFCURVE",
"202 -283 OFFCURVE",
"283 -283 CURVE SMOOTH",
"369 -283 OFFCURVE",
"445 -256 OFFCURVE",
"498 -214 CURVE SMOOTH",
"522 -195 OFFCURVE",
"550 -165 OFFCURVE",
"566 -136 CURVE SMOOTH",
"580 -110 OFFCURVE",
"588 -84 OFFCURVE",
"588 -61 CURVE SMOOTH",
"588 -27 OFFCURVE",
"571 0 OFFCURVE",
"530 5 CURVE SMOOTH",
"494 9 OFFCURVE",
"483 10 OFFCURVE",
"452 17 CURVE SMOOTH",
"438 20 OFFCURVE",
"425 31 OFFCURVE",
"428 53 CURVE",
"429 65 OFFCURVE",
"446 115 OFFCURVE",
"492 115 CURVE SMOOTH",
"531 115 OFFCURVE",
"545 89 OFFCURVE",
"561 62 CURVE SMOOTH",
"579 32 OFFCURVE",
"600 0 OFFCURVE",
"660 0 CURVE",
"722 0 LINE"
);
}
);
width = 722;
}
);
},
{
color = 4;
glyphname = "hah_meem-ar";
lastChange = "2015-11-08 18:59:00 +0000";
layers = (
{
layerId = "51F41761-070F-43EA-B302-C90910850260";
name = Regular;
paths = (
{
closed = 1;
nodes = (
"519 269 OFFCURVE",
"465 296 OFFCURVE",
"421 318 CURVE SMOOTH",
"390 334 OFFCURVE",
"358 350 OFFCURVE",
"322 350 CURVE SMOOTH",
"305 350 OFFCURVE",
"288 346 OFFCURVE",
"273 338 CURVE SMOOTH",
"251 326 OFFCURVE",
"230 304 OFFCURVE",
"213 273 CURVE",
"224 256 LINE",
"245 278 OFFCURVE",
"264 286 OFFCURVE",
"295 286 CURVE SMOOTH",
"326 286 OFFCURVE",
"374 260 OFFCURVE",
"413 239 CURVE",
"368 239 OFFCURVE",
"312 233 OFFCURVE",
"267 216 CURVE SMOOTH",
"225 199 OFFCURVE",
"205 182 OFFCURVE",
"185 159 CURVE",
"175 140 OFFCURVE",
"165 120 OFFCURVE",
"162 100 CURVE",
"124 85 OFFCURVE",
"102 75 OFFCURVE",
"84 39 CURVE SMOOTH",
"71 14 OFFCURVE",
"66 -5 OFFCURVE",
"73 -60 CURVE SMOOTH",
"82 -132 OFFCURVE",
"87 -167 OFFCURVE",
"92 -196 CURVE SMOOTH",
"104 -279 OFFCURVE",
"109 -312 OFFCURVE",
"112 -338 CURVE",
"138 -330 LINE",
"136 -257 OFFCURVE",
"132 -212 OFFCURVE",
"126 -157 CURVE SMOOTH",
"124 -132 OFFCURVE",
"112 -35 OFFCURVE",
"105 10 CURVE SMOOTH",
"113 28 OFFCURVE",
"164 39 OFFCURVE",
"221 39 CURVE SMOOTH",
"257 39 OFFCURVE",
"283 33 OFFCURVE",
"307 26 CURVE",
"328 55 OFFCURVE",
"337 77 OFFCURVE",
"343 95 CURVE",
"298 134 OFFCURVE",
"255 146 OFFCURVE",
"234 150 CURVE",
"257 165 OFFCURVE",
"320 198 OFFCURVE",
"431 198 CURVE SMOOTH",
"480 198 OFFCURVE",
"529 194 OFFCURVE",
"576 181 CURVE",
"601 205 OFFCURVE",
"613 224 OFFCURVE",
"627 252 CURVE"
);
}
);
width = 687;
}
);
unicode = FC18;
},
{
color = 4;
glyphname = "hah_meem-ar.init";
lastChange = "2015-11-08 18:59:00 +0000";
layers = (
{
layerId = "51F41761-070F-43EA-B302-C90910850260";
name = Regular;
paths = (
{
closed = 1;
nodes = (
"453 291 OFFCURVE",
"399 318 OFFCURVE",
"355 341 CURVE SMOOTH",
"331 353 OFFCURVE",
"309 364 OFFCURVE",
"284 369 CURVE SMOOTH",
"255 375 OFFCURVE",
"230 372 OFFCURVE",
"208 360 CURVE SMOOTH",
"185 348 OFFCURVE",
"165 326 OFFCURVE",
"147 295 CURVE",
"158 278 LINE",
"169 288 OFFCURVE",
"187 312 OFFCURVE",
"231 308 CURVE SMOOTH",
"261 305 OFFCURVE",
"300 286 OFFCURVE",
"336 267 CURVE",
"286 265 OFFCURVE",
"242 255 OFFCURVE",
"201 232 CURVE SMOOTH",
"166 212 OFFCURVE",
"133 182 OFFCURVE",
"102 140 CURVE SMOOTH",
"87 121 OFFCURVE",
"76 98 OFFCURVE",
"43 98 CURVE SMOOTH",
"-22 98 LINE SMOOTH",
"-34 98 OFFCURVE",
"-70 89 OFFCURVE",
"-70 49 CURVE SMOOTH",
"-70 19 OFFCURVE",
"-45 0 OFFCURVE",
"-22 0 CURVE SMOOTH",
"9 0 LINE SMOOTH",
"50 0 OFFCURVE",
"76 10 OFFCURVE",
"90 48 CURVE",
"126 -2 OFFCURVE",
"229 -18 OFFCURVE",
"244 -12 CURVE",
"261 0 OFFCURVE",
"288 45 OFFCURVE",
"287 83 CURVE SMOOTH",
"287 124 OFFCURVE",
"267 167 OFFCURVE",
"230 185 CURVE",
"271 210 OFFCURVE",
"308 218 OFFCURVE",
"358 221 CURVE SMOOTH",
"407 224 OFFCURVE",
"459 217 OFFCURVE",
"511 203 CURVE",
"536 227 OFFCURVE",
"546 249 OFFCURVE",
"562 274 CURVE"
);
},
{
closed = 1;
nodes = (
"186 71 OFFCURVE",
"165 81 OFFCURVE",
"129 102 CURVE SMOOTH",
"136 118 OFFCURVE",
"155 142 OFFCURVE",
"182 142 CURVE SMOOTH",
"216 142 OFFCURVE",
"244 106 OFFCURVE",
"233 60 CURVE"
);
}
);
width = 622;
}
);
unicode = FCAA;
},
{
color = 4;
glyphname = "hah_alefMaksura-ar";
lastChange = "2015-11-08 18:59:00 +0000";
layers = (
{
layerId = "51F41761-070F-43EA-B302-C90910850260";
name = Regular;
paths = (
{
closed = 1;
nodes = (
"735 215 OFFCURVE",
"665 245 OFFCURVE",
"613 267 CURVE SMOOTH",
"582 280 OFFCURVE",
"558 291 OFFCURVE",
"531 291 CURVE SMOOTH",
"504 291 OFFCURVE",
"480 280 OFFCURVE",
"460 259 CURVE SMOOTH",
"442 240 OFFCURVE",
"426 210 OFFCURVE",
"416 174 CURVE",
"432 163 LINE",
"442 177 OFFCURVE",
"457 213 OFFCURVE",
"494 216 CURVE SMOOTH",
"516 218 OFFCURVE",
"549 212 OFFCURVE",
"587 201 CURVE SMOOTH",
"612 194 OFFCURVE",
"675 173 OFFCURVE",
"675 173 CURVE",
"631 161 OFFCURVE",
"592 148 OFFCURVE",
"563 136 CURVE SMOOTH",
"533 124 OFFCURVE",
"468 88 OFFCURVE",
"450 74 CURVE SMOOTH",
"444 69 OFFCURVE",
"426 42 OFFCURVE",
"421 -2 CURVE",
"438 -5 OFFCURVE",
"464 -11 OFFCURVE",
"487 -19 CURVE SMOOTH",
"524 -33 OFFCURVE",
"543 -50 OFFCURVE",
"543 -71 CURVE SMOOTH",
"543 -95 OFFCURVE",
"495 -119 OFFCURVE",
"464 -132 CURVE SMOOTH",
"432 -147 OFFCURVE",
"367 -168 OFFCURVE",
"292 -168 CURVE SMOOTH",
"217 -168 OFFCURVE",
"163 -152 OFFCURVE",
"132 -114 CURVE SMOOTH",
"105 -81 OFFCURVE",
"109 -39 OFFCURVE",
"119 19 CURVE",
"100 26 LINE",
"85 -11 OFFCURVE",
"74 -50 OFFCURVE",
"71 -87 CURVE SMOOTH",
"68 -120 OFFCURVE",
"72 -149 OFFCURVE",
"83 -175 CURVE SMOOTH",
"97 -210 OFFCURVE",
"123 -237 OFFCURVE",
"159 -255 CURVE SMOOTH",
"192 -272 OFFCURVE",
"234 -281 OFFCURVE",
"283 -281 CURVE SMOOTH",
"342 -281 OFFCURVE",
"404 -266 OFFCURVE",
"457 -238 CURVE SMOOTH",
"508 -211 OFFCURVE",
"547 -175 OFFCURVE",
"567 -137 CURVE SMOOTH",
"581 -110 OFFCURVE",
"589 -83 OFFCURVE",
"589 -59 CURVE SMOOTH",
"589 5 OFFCURVE",
"526 28 OFFCURVE",
"486 39 CURVE",
"486 39 OFFCURVE",
"546 81 OFFCURVE",
"619 104 CURVE SMOOTH",
"661 117 OFFCURVE",
"723 134 OFFCURVE",
"788 134 CURVE SMOOTH",
"833 134 LINE",
"849 164 OFFCURVE",
"858 182 OFFCURVE",
"872 215 CURVE",
"867 215 OFFCURVE",
"863 215 OFFCURVE",
"859 215 CURVE SMOOTH"
);
}
);
width = 932;
}
);
unicode = FCFF;
},
{
color = 4;
glyphname = "hah_alefMaksura-ar.fina";
lastChange = "2015-11-08 18:59:00 +0000";
layers = (
{
layerId = "51F41761-070F-43EA-B302-C90910850260";
name = Regular;
paths = (
{
closed = 1;
nodes = (
"871 98 LINE SMOOTH",
"812 98 OFFCURVE",
"779 113 OFFCURVE",
"769 140 CURVE",
"800 144 OFFCURVE",
"821 144 OFFCURVE",
"838 144 CURVE",
"854 174 OFFCURVE",
"858 182 OFFCURVE",
"872 215 CURVE",
"770 215 OFFCURVE",
"706 228 OFFCURVE",
"613 267 CURVE SMOOTH",
"582 280 OFFCURVE",
"558 291 OFFCURVE",
"531 291 CURVE SMOOTH",
"504 291 OFFCURVE",
"480 280 OFFCURVE",
"460 259 CURVE SMOOTH",
"442 240 OFFCURVE",
"426 210 OFFCURVE",
"416 174 CURVE",
"432 163 LINE",
"442 177 OFFCURVE",
"457 213 OFFCURVE",
"494 216 CURVE SMOOTH",
"516 218 OFFCURVE",
"549 212 OFFCURVE",
"587 201 CURVE SMOOTH",
"612 194 OFFCURVE",
"675 173 OFFCURVE",
"675 173 CURVE",
"631 161 OFFCURVE",
"592 148 OFFCURVE",
"563 136 CURVE SMOOTH",
"533 124 OFFCURVE",
"468 88 OFFCURVE",
"450 74 CURVE SMOOTH",
"444 69 OFFCURVE",
"426 42 OFFCURVE",
"421 -2 CURVE",
"438 -5 OFFCURVE",
"464 -11 OFFCURVE",
"487 -19 CURVE SMOOTH",
"524 -33 OFFCURVE",
"543 -50 OFFCURVE",
"543 -71 CURVE SMOOTH",
"543 -95 OFFCURVE",
"495 -119 OFFCURVE",
"464 -132 CURVE",
"432 -147 OFFCURVE",
"367 -168 OFFCURVE",
"292 -168 CURVE SMOOTH",
"217 -168 OFFCURVE",
"163 -152 OFFCURVE",
"132 -114 CURVE SMOOTH",
"105 -81 OFFCURVE",
"109 -39 OFFCURVE",
"119 19 CURVE",
"100 26 LINE",
"85 -11 OFFCURVE",
"74 -50 OFFCURVE",
"71 -87 CURVE SMOOTH",
"68 -120 OFFCURVE",
"72 -149 OFFCURVE",
"83 -175 CURVE SMOOTH",
"97 -210 OFFCURVE",
"123 -237 OFFCURVE",
"159 -255 CURVE SMOOTH",
"192 -272 OFFCURVE",
"234 -281 OFFCURVE",
"283 -281 CURVE SMOOTH",
"342 -281 OFFCURVE",
"404 -266 OFFCURVE",
"457 -238 CURVE SMOOTH",
"508 -211 OFFCURVE",
"547 -175 OFFCURVE",
"567 -137 CURVE SMOOTH",
"581 -110 OFFCURVE",
"589 -83 OFFCURVE",
"589 -59 CURVE SMOOTH",
"589 5 OFFCURVE",
"526 28 OFFCURVE",
"486 39 CURVE",
"486 39 OFFCURVE",
"546 81 OFFCURVE",
"619 104 CURVE SMOOTH",
"670 120 OFFCURVE",
"710 130 OFFCURVE",
"741 135 CURVE",
"745 95 OFFCURVE",
"753 67 OFFCURVE",
"774 43 CURVE",
"797 15 OFFCURVE",
"835 0 OFFCURVE",
"884 0 CURVE SMOOTH",
"974 0 LINE",
"974 98 LINE"
);
}
);
width = 974;
}
);
unicode = FD1B;
},
{
color = 4;
glyphname = "seen_reh-ar";
lastChange = "2015-11-08 18:59:00 +0000";
layers = (
{
layerId = "51F41761-070F-43EA-B302-C90910850260";
name = Regular;
paths = (
{
closed = 1;
nodes = (
"587 247 OFFCURVE",
"572 227 OFFCURVE",
"561 207 CURVE",
"605 146 LINE",
"593 114 OFFCURVE",
"575 93 OFFCURVE",
"543 93 CURVE SMOOTH",
"517 93 OFFCURVE",
"496 98 OFFCURVE",
"481 111 CURVE SMOOTH",
"469 122 OFFCURVE",
"462 139 OFFCURVE",
"462 165 CURVE SMOOTH",
"462 175 OFFCURVE",
"463 182 OFFCURVE",
"464 189 CURVE",
"442 177 LINE",
"441 168 OFFCURVE",
"440 158 OFFCURVE",
"437 148 CURVE SMOOTH",
"429 120 OFFCURVE",
"411 93 OFFCURVE",
"364 93 CURVE SMOOTH",
"333 93 OFFCURVE",
"314 105 OFFCURVE",
"304 119 CURVE SMOOTH",
"298 127 OFFCURVE",
"295 137 OFFCURVE",
"293 146 CURVE",
"237 125 OFFCURVE",
"172 110 OFFCURVE",
"126 100 CURVE",
"125 91 OFFCURVE",
"122 66 OFFCURVE",
"114 27 CURVE",
"122 28 OFFCURVE",
"133 30 OFFCURVE",
"140 32 CURVE",
"142 21 OFFCURVE",
"144 10 OFFCURVE",
"144 -3 CURVE SMOOTH",
"144 -40 OFFCURVE",
"128 -76 OFFCURVE",
"100 -103 CURVE SMOOTH",
"54 -149 OFFCURVE",
"-69 -211 OFFCURVE",
"-120 -239 CURVE",
"-111 -252 LINE",
"-90 -246 OFFCURVE",
"-72 -244 OFFCURVE",
"-57 -244 CURVE SMOOTH",
"-35 -244 OFFCURVE",
"-3 -248 OFFCURVE",
"19 -248 CURVE SMOOTH",
"59 -248 OFFCURVE",
"80 -235 OFFCURVE",
"101 -215 CURVE SMOOTH",
"122 -195 OFFCURVE",
"142 -167 OFFCURVE",
"158 -130 CURVE SMOOTH",
"191 -55 OFFCURVE",
"188 15 OFFCURVE",
"185 41 CURVE",
"216 48 OFFCURVE",
"251 57 OFFCURVE",
"279 66 CURVE",
"286 33 OFFCURVE",
"307 0 OFFCURVE",
"357 0 CURVE SMOOTH",
"411 0 OFFCURVE",
"440 39 OFFCURVE",
"448 74 CURVE",
"452 44 OFFCURVE",
"479 7 OFFCURVE",
"533 7 CURVE SMOOTH",
"571 7 OFFCURVE",
"595 26 OFFCURVE",
"609 45 CURVE SMOOTH",
"636 82 OFFCURVE",
"639 138 OFFCURVE",
"639 138 CURVE SMOOTH",
"639 188 OFFCURVE",
"619 242 OFFCURVE",
"601 261 CURVE"
);
}
);
width = 699;
}
);
unicode = FD0E;
},
{
color = 4;
glyphname = "seen_reh-ar.fina";
lastChange = "2015-11-08 18:59:00 +0000";
layers = (
{
layerId = "51F41761-070F-43EA-B302-C90910850260";
name = Regular;
paths = (
{
closed = 1;
nodes = (
"680 98 LINE SMOOTH",
"652 98 OFFCURVE",
"634 105 OFFCURVE",
"621 120 CURVE SMOOTH",
"603 140 OFFCURVE",
"605 167 OFFCURVE",
"607 190 CURVE",
"585 178 LINE",
"583 145 OFFCURVE",
"573 95 OFFCURVE",
"519 95 CURVE SMOOTH",
"474 95 OFFCURVE",
"462 130 OFFCURVE",
"461 160 CURVE",
"460 172 OFFCURVE",
"461 183 OFFCURVE",
"462 190 CURVE",
"440 178 LINE",
"438 143 OFFCURVE",
"425 94 OFFCURVE",
"362 94 CURVE SMOOTH",
"332 94 OFFCURVE",
"314 105 OFFCURVE",
"304 119 CURVE SMOOTH",
"298 128 OFFCURVE",
"296 134 OFFCURVE",
"293 146 CURVE",
"237 125 OFFCURVE",
"172 110 OFFCURVE",
"126 100 CURVE",
"125 91 OFFCURVE",
"122 66 OFFCURVE",
"114 27 CURVE",
"122 28 OFFCURVE",
"133 30 OFFCURVE",
"140 32 CURVE",
"142 21 OFFCURVE",
"144 10 OFFCURVE",
"144 -3 CURVE SMOOTH",
"144 -40 OFFCURVE",
"128 -76 OFFCURVE",
"100 -103 CURVE SMOOTH",
"54 -149 OFFCURVE",
"-69 -211 OFFCURVE",
"-120 -239 CURVE",
"-111 -252 LINE",
"-90 -246 OFFCURVE",
"-72 -244 OFFCURVE",
"-57 -244 CURVE SMOOTH",
"-35 -244 OFFCURVE",
"-3 -248 OFFCURVE",
"19 -248 CURVE SMOOTH",
"59 -248 OFFCURVE",
"80 -235 OFFCURVE",
"101 -215 CURVE SMOOTH",
"122 -195 OFFCURVE",
"142 -167 OFFCURVE",
"158 -130 CURVE SMOOTH",
"191 -55 OFFCURVE",
"188 15 OFFCURVE",
"185 41 CURVE",
"215 48 OFFCURVE",
"249 56 OFFCURVE",
"276 65 CURVE",
"283 28 OFFCURVE",
"306 -2 OFFCURVE",
"354 -2 CURVE SMOOTH",
"411 -2 OFFCURVE",
"436 38 OFFCURVE",
"446 75 CURVE",
"444 37 OFFCURVE",
"467 -2 OFFCURVE",
"515 -2 CURVE SMOOTH",
"571 -2 OFFCURVE",
"587 49 OFFCURVE",
"592 75 CURVE",
"592 33 OFFCURVE",
"620 0 OFFCURVE",
"678 0 CURVE SMOOTH",
"716 0 LINE",
"716 98 LINE"
);
}
);
width = 716;
}
);
unicode = FD2A;
},
{
color = 4;
glyphname = "seen_meem-ar";
lastChange = "2015-11-08 18:59:00 +0000";
layers = (
{
layerId = "51F41761-070F-43EA-B302-C90910850260";
name = Regular;
paths = (
{
closed = 1;
nodes = (
"713 248 OFFCURVE",
"698 228 OFFCURVE",
"687 208 CURVE",
"731 147 LINE",
"714 103 OFFCURVE",
"699 94 OFFCURVE",
"665 94 CURVE SMOOTH",
"642 94 OFFCURVE",
"620 98 OFFCURVE",
"604 116 CURVE SMOOTH",
"591 130 OFFCURVE",
"588 149 OFFCURVE",
"588 166 CURVE SMOOTH",
"588 176 OFFCURVE",
"589 183 OFFCURVE",
"590 190 CURVE",
"568 178 LINE",
"567 169 OFFCURVE",
"566 160 OFFCURVE",
"563 149 CURVE SMOOTH",
"555 122 OFFCURVE",
"540 94 OFFCURVE",
"483 94 CURVE SMOOTH",
"423 94 OFFCURVE",
"397 123 OFFCURVE",
"375 145 CURVE SMOOTH",
"356 165 OFFCURVE",
"338 184 OFFCURVE",
"308 184 CURVE SMOOTH",
"280 184 OFFCURVE",
"237 167 OFFCURVE",
"203 118 CURVE SMOOTH",
"178 82 OFFCURVE",
"169 51 OFFCURVE",
"161 5 CURVE",
"130 -10 OFFCURVE",
"115 -16 OFFCURVE",
"95 -45 CURVE",
"77 -69 OFFCURVE",
"65 -105 OFFCURVE",
"72 -155 CURVE",
"103 -342 OFFCURVE",
"108 -408 OFFCURVE",
"111 -432 CURVE",
"137 -424 LINE",
"136 -346 OFFCURVE",
"128 -276 OFFCURVE",
"117 -175 CURVE SMOOTH",
"112 -130 OFFCURVE",
"111 -125 OFFCURVE",
"105 -91 CURVE",
"130 -67 OFFCURVE",
"148 -56 OFFCURVE",
"200 -56 CURVE SMOOTH",
"242 -56 OFFCURVE",
"280 -63 OFFCURVE",
"307 -69 CURVE",
"324 -45 OFFCURVE",
"335 -23 OFFCURVE",
"343 1 CURVE",
"331 12 OFFCURVE",
"279 58 OFFCURVE",
"209 68 CURVE",
"230 97 OFFCURVE",
"257 118 OFFCURVE",
"292 118 CURVE SMOOTH",
"330 118 OFFCURVE",
"347 98 OFFCURVE",
"369 68 CURVE SMOOTH",
"390 39 OFFCURVE",
"417 0 OFFCURVE",
"479 0 CURVE SMOOTH",
"540 0 OFFCURVE",
"565 39 OFFCURVE",
"574 75 CURVE",
"575 48 OFFCURVE",
"600 8 OFFCURVE",
"658 8 CURVE SMOOTH",
"694 8 OFFCURVE",
"719 24 OFFCURVE",
"736 47 CURVE SMOOTH",
"762 83 OFFCURVE",
"765 131 OFFCURVE",
"765 148 CURVE SMOOTH",
"765 200 OFFCURVE",
"739 250 OFFCURVE",
"727 262 CURVE"
);
}
);
width = 825;
}
);
unicode = FC1F;
},
{
color = 4;
glyphname = "seen_meem-ar.init";
lastChange = "2015-11-08 18:59:00 +0000";
layers = (
{
layerId = "51F41761-070F-43EA-B302-C90910850260";
name = Regular;
paths = (
{
closed = 1;
nodes = (
"596 366 OFFCURVE",
"581 346 OFFCURVE",
"570 326 CURVE",
"614 265 LINE",
"597 221 OFFCURVE",
"582 212 OFFCURVE",
"548 212 CURVE SMOOTH",
"525 212 OFFCURVE",
"503 216 OFFCURVE",
"487 234 CURVE SMOOTH",
"474 248 OFFCURVE",
"471 267 OFFCURVE",
"471 284 CURVE SMOOTH",
"471 294 OFFCURVE",
"472 301 OFFCURVE",
"473 308 CURVE",
"451 296 LINE",
"450 287 OFFCURVE",
"449 278 OFFCURVE",
"446 267 CURVE SMOOTH",
"440 245 OFFCURVE",
"424 212 OFFCURVE",
"372 212 CURVE SMOOTH",
"336 212 OFFCURVE",
"315 228 OFFCURVE",
"297 257 CURVE SMOOTH",
"287 272 OFFCURVE",
"280 291 OFFCURVE",
"245 291 CURVE SMOOTH",
"223 291 OFFCURVE",
"206 283 OFFCURVE",
"187 270 CURVE SMOOTH",
"171 259 OFFCURVE",
"157 247 OFFCURVE",
"141 225 CURVE SMOOTH",
"121 198 OFFCURVE",
"111 170 OFFCURVE",
"108 151 CURVE SMOOTH",
"105 135 OFFCURVE",
"105 118 OFFCURVE",
"108 100 CURVE",
"91 94 OFFCURVE",
"53 96 OFFCURVE",
"9 98 CURVE",
"-20 98 LINE SMOOTH",
"-55 98 OFFCURVE",
"-70 74 OFFCURVE",
"-70 48 CURVE SMOOTH",
"-70 16 OFFCURVE",
"-47 0 OFFCURVE",
"-20 0 CURVE SMOOTH",
"5 0 LINE SMOOTH",
"78 0 OFFCURVE",
"78 10 OFFCURVE",
"126 10 CURVE SMOOTH",
"162 10 OFFCURVE",
"187 4 OFFCURVE",
"219 -11 CURVE",
"231 18 OFFCURVE",
"236 52 OFFCURVE",
"234 84 CURVE",
"212 90 OFFCURVE",
"145 102 OFFCURVE",
"145 142 CURVE SMOOTH",
"145 169 OFFCURVE",
"175 221 OFFCURVE",
"238 221 CURVE SMOOTH",
"275 221 OFFCURVE",
"286 203 OFFCURVE",
"298 180 CURVE SMOOTH",
"316 147 OFFCURVE",
"335 120 OFFCURVE",
"376 120 CURVE SMOOTH",
"425 120 OFFCURVE",
"449 159 OFFCURVE",
"457 193 CURVE",
"458 166 OFFCURVE",
"483 126 OFFCURVE",
"541 126 CURVE SMOOTH",
"577 126 OFFCURVE",
"602 142 OFFCURVE",
"619 165 CURVE SMOOTH",
"645 201 OFFCURVE",
"648 249 OFFCURVE",
"648 266 CURVE SMOOTH",
"648 318 OFFCURVE",
"622 368 OFFCURVE",
"610 380 CURVE"
);
}
);
width = 708;
}
);
unicode = FCB0;
},
{
color = 4;
glyphname = "seen_alefMaksura-ar";
lastChange = "2015-11-08 18:59:00 +0000";
layers = (
{
layerId = "51F41761-070F-43EA-B302-C90910850260";
name = Regular;
paths = (
{
closed = 1;
nodes = (
"898 248 OFFCURVE",
"883 228 OFFCURVE",
"872 208 CURVE",
"916 147 LINE",
"899 103 OFFCURVE",
"884 94 OFFCURVE",
"850 94 CURVE SMOOTH",
"827 94 OFFCURVE",
"805 98 OFFCURVE",
"789 116 CURVE SMOOTH",
"776 130 OFFCURVE",
"773 149 OFFCURVE",
"773 166 CURVE SMOOTH",
"773 176 OFFCURVE",
"774 183 OFFCURVE",
"775 190 CURVE",
"753 178 LINE",
"752 169 OFFCURVE",
"751 160 OFFCURVE",
"748 149 CURVE SMOOTH",
"740 122 OFFCURVE",
"725 94 OFFCURVE",
"668 94 CURVE SMOOTH",
"623 94 OFFCURVE",
"593 111 OFFCURVE",
"558 165 CURVE SMOOTH",
"542 190 OFFCURVE",
"532 205 OFFCURVE",
"505 205 CURVE SMOOTH",
"475 205 OFFCURVE",
"454 186 OFFCURVE",
"431 154 CURVE SMOOTH",
"418 136 OFFCURVE",
"397 103 OFFCURVE",
"383 66 CURVE SMOOTH",
"369 29 OFFCURVE",
"366 0 OFFCURVE",
"374 -17 CURVE SMOOTH",
"382 -34 OFFCURVE",
"402 -46 OFFCURVE",
"435 -56 CURVE SMOOTH",
"461 -63 OFFCURVE",
"494 -67 OFFCURVE",
"534 -70 CURVE SMOOTH",
"521 -101 OFFCURVE",
"500 -123 OFFCURVE",
"447 -144 CURVE SMOOTH",
"401 -162 OFFCURVE",
"355 -171 OFFCURVE",
"299 -171 CURVE SMOOTH",
"235 -171 OFFCURVE",
"167 -159 OFFCURVE",
"133 -115 CURVE SMOOTH",
"118 -95 OFFCURVE",
"112 -76 OFFCURVE",
"112 -37 CURVE SMOOTH",
"112 -21 OFFCURVE",
"113 -10 OFFCURVE",
"119 17 CURVE",
"100 26 LINE",
"77 -27 OFFCURVE",
"68 -83 OFFCURVE",
"70 -119 CURVE SMOOTH",
"71 -144 OFFCURVE",
"81 -193 OFFCURVE",
"117 -228 CURVE SMOOTH",
"149 -259 OFFCURVE",
"201 -283 OFFCURVE",
"284 -283 CURVE SMOOTH",
"368 -283 OFFCURVE",
"445 -256 OFFCURVE",
"498 -214 CURVE SMOOTH",
"525 -192 OFFCURVE",
"549 -166 OFFCURVE",
"566 -136 CURVE SMOOTH",
"580 -110 OFFCURVE",
"588 -84 OFFCURVE",
"588 -60 CURVE SMOOTH",
"588 -24 OFFCURVE",
"566 2 OFFCURVE",
"530 5 CURVE SMOOTH",
"494 9 OFFCURVE",
"484 10 OFFCURVE",
"452 17 CURVE SMOOTH",
"438 20 OFFCURVE",
"425 31 OFFCURVE",
"428 53 CURVE SMOOTH",
"429 67 OFFCURVE",
"448 115 OFFCURVE",
"491 115 CURVE SMOOTH",
"520 115 OFFCURVE",
"536 93 OFFCURVE",
"554 68 CURVE SMOOTH",
"575 39 OFFCURVE",
"602 2 OFFCURVE",
"664 2 CURVE SMOOTH",
"725 2 OFFCURVE",
"750 39 OFFCURVE",
"759 75 CURVE",
"760 48 OFFCURVE",
"785 8 OFFCURVE",
"843 8 CURVE SMOOTH",
"879 8 OFFCURVE",
"904 24 OFFCURVE",
"921 47 CURVE SMOOTH",
"947 83 OFFCURVE",
"950 131 OFFCURVE",
"950 148 CURVE SMOOTH",
"950 200 OFFCURVE",
"924 250 OFFCURVE",
"912 262 CURVE"
);
}
);
width = 1010;
}
);
unicode = FCFB;
},
{
color = 4;
glyphname = "seen_alefMaksura-ar.fina";
lastChange = "2015-11-08 18:59:00 +0000";
layers = (
{
layerId = "51F41761-070F-43EA-B302-C90910850260";
name = Regular;
paths = (
{
closed = 1;
nodes = (
"993 98 LINE SMOOTH",
"965 98 OFFCURVE",
"947 105 OFFCURVE",
"934 120 CURVE SMOOTH",
"916 140 OFFCURVE",
"918 167 OFFCURVE",
"920 190 CURVE",
"898 178 LINE",
"897 163 OFFCURVE",
"894 143 OFFCURVE",
"886 127 CURVE SMOOTH",
"877 109 OFFCURVE",
"862 95 OFFCURVE",
"833 95 CURVE SMOOTH",
"789 95 OFFCURVE",
"775 127 OFFCURVE",
"774 160 CURVE",
"773 172 OFFCURVE",
"774 183 OFFCURVE",
"775 190 CURVE",
"753 178 LINE",
"752 169 OFFCURVE",
"751 160 OFFCURVE",
"748 149 CURVE SMOOTH",
"736 109 OFFCURVE",
"713 94 OFFCURVE",
"662 94 CURVE SMOOTH",
"644 94 OFFCURVE",
"601 96 OFFCURVE",
"558 165 CURVE SMOOTH",
"543 189 OFFCURVE",
"532 205 OFFCURVE",
"506 205 CURVE SMOOTH",
"480 205 OFFCURVE",
"454 188 OFFCURVE",
"431 155 CURVE",
"414 133 OFFCURVE",
"398 102 OFFCURVE",
"384 66 CURVE SMOOTH",
"370 30 OFFCURVE",
"364 3 OFFCURVE",
"374 -17 CURVE SMOOTH",
"381 -31 OFFCURVE",
"399 -46 OFFCURVE",
"435 -56 CURVE SMOOTH",
"461 -63 OFFCURVE",
"494 -67 OFFCURVE",
"534 -70 CURVE",
"524 -97 OFFCURVE",
"495 -126 OFFCURVE",
"447 -145 CURVE SMOOTH",
"399 -164 OFFCURVE",
"339 -171 OFFCURVE",
"296 -171 CURVE SMOOTH",
"241 -171 OFFCURVE",
"167 -160 OFFCURVE",
"133 -115 CURVE SMOOTH",
"118 -95 OFFCURVE",
"110 -68 OFFCURVE",
"112 -32 CURVE",
"112 -18 OFFCURVE",
"115 -1 OFFCURVE",
"119 17 CURVE",
"100 26 LINE",
"77 -27 OFFCURVE",
"68 -83 OFFCURVE",
"70 -119 CURVE SMOOTH",
"71 -142 OFFCURVE",
"80 -192 OFFCURVE",
"117 -228 CURVE SMOOTH",
"149 -259 OFFCURVE",
"202 -283 OFFCURVE",
"283 -283 CURVE SMOOTH",
"368 -283 OFFCURVE",
"445 -256 OFFCURVE",
"498 -214 CURVE SMOOTH",
"525 -192 OFFCURVE",
"549 -166 OFFCURVE",
"566 -136 CURVE SMOOTH",
"580 -110 OFFCURVE",
"588 -84 OFFCURVE",
"588 -61 CURVE SMOOTH",
"588 -27 OFFCURVE",
"571 0 OFFCURVE",
"530 5 CURVE SMOOTH",
"494 9 OFFCURVE",
"483 10 OFFCURVE",
"452 17 CURVE SMOOTH",
"438 20 OFFCURVE",
"425 31 OFFCURVE",
"428 53 CURVE",
"429 67 OFFCURVE",
"448 115 OFFCURVE",
"491 115 CURVE SMOOTH",
"520 115 OFFCURVE",
"535 94 OFFCURVE",
"554 68 CURVE SMOOTH",
"570 47 OFFCURVE",
"583 31 OFFCURVE",
"604 18 CURVE SMOOTH",
"620 8 OFFCURVE",
"640 2 OFFCURVE",
"665 2 CURVE SMOOTH",
"722 2 OFFCURVE",
"751 35 OFFCURVE",
"759 75 CURVE",
"757 37 OFFCURVE",
"780 0 OFFCURVE",
"828 0 CURVE SMOOTH",
"884 0 OFFCURVE",
"900 49 OFFCURVE",
"905 75 CURVE",
"905 33 OFFCURVE",
"933 0 OFFCURVE",
"991 0 CURVE SMOOTH",
"1029 0 LINE",
"1029 98 LINE"
);
}
);
width = 1029;
}
);
unicode = FD17;
},
{
color = 4;
glyphname = "sad_reh-ar";
lastChange = "2015-11-08 18:59:00 +0000";
layers = (
{
layerId = "51F41761-070F-43EA-B302-C90910850260";
name = Regular;
paths = (
{
closed = 1;
nodes = (
"717 243 OFFCURVE",
"711 272 OFFCURVE",
"681 295 CURVE SMOOTH",
"662 310 OFFCURVE",
"633 322 OFFCURVE",
"608 322 CURVE SMOOTH",
"549 322 OFFCURVE",
"477 257 OFFCURVE",
"441 219 CURVE SMOOTH",
"393 168 OFFCURVE",
"356 109 OFFCURVE",
"350 98 CURVE",
"327 101 OFFCURVE",
"301 119 OFFCURVE",
"293 146 CURVE",
"237 125 OFFCURVE",
"172 110 OFFCURVE",
"126 100 CURVE",
"125 91 OFFCURVE",
"122 66 OFFCURVE",
"114 27 CURVE",
"122 28 OFFCURVE",
"133 30 OFFCURVE",
"140 32 CURVE",
"142 21 OFFCURVE",
"144 10 OFFCURVE",
"144 -3 CURVE SMOOTH",
"144 -40 OFFCURVE",
"128 -76 OFFCURVE",
"100 -103 CURVE SMOOTH",
"54 -149 OFFCURVE",
"-69 -211 OFFCURVE",
"-120 -239 CURVE",
"-111 -252 LINE",
"-90 -246 OFFCURVE",
"-72 -244 OFFCURVE",
"-57 -244 CURVE SMOOTH",
"-35 -244 OFFCURVE",
"-3 -248 OFFCURVE",
"19 -248 CURVE SMOOTH",
"59 -248 OFFCURVE",
"80 -235 OFFCURVE",
"101 -215 CURVE SMOOTH",
"122 -195 OFFCURVE",
"142 -167 OFFCURVE",
"158 -130 CURVE SMOOTH",
"191 -55 OFFCURVE",
"188 15 OFFCURVE",
"185 41 CURVE",
"215 48 OFFCURVE",
"248 56 OFFCURVE",
"275 65 CURVE",
"283 43 OFFCURVE",
"298 26 OFFCURVE",
"323 18 CURVE",
"315 -16 LINE",
"343 -16 LINE",
"351 10 LINE",
"372 6 OFFCURVE",
"381 5 OFFCURVE",
"400 5 CURVE SMOOTH",
"497 5 OFFCURVE",
"571 32 OFFCURVE",
"624 73 CURVE SMOOTH",
"652 95 OFFCURVE",
"675 120 OFFCURVE",
"691 146 CURVE SMOOTH",
"708 174 OFFCURVE",
"717 206 OFFCURVE",
"717 226 CURVE SMOOTH"
);
},
{
closed = 1;
nodes = (
"648 146 OFFCURVE",
"629 130 OFFCURVE",
"597 117 CURVE SMOOTH",
"573 107 OFFCURVE",
"541 99 OFFCURVE",
"501 99 CURVE SMOOTH",
"386 99 LINE",
"405 126 OFFCURVE",
"435 163 OFFCURVE",
"455 184 CURVE SMOOTH",
"495 226 OFFCURVE",
"533 247 OFFCURVE",
"569 247 CURVE SMOOTH",
"607 247 OFFCURVE",
"633 223 OFFCURVE",
"645 209 CURVE SMOOTH",
"655 197 OFFCURVE",
"659 187 OFFCURVE",
"665 166 CURVE"
);
}
);
width = 777;
}
);
unicode = FD0F;
},
{
color = 4;
glyphname = "sad_reh-ar.fina";
lastChange = "2015-11-08 18:59:00 +0000";
layers = (
{
layerId = "51F41761-070F-43EA-B302-C90910850260";
name = Regular;
paths = (
{
closed = 1;
nodes = (
"748 98 LINE SMOOTH",
"702 98 OFFCURVE",
"645 80 OFFCURVE",
"626 73 CURVE",
"640 83 OFFCURVE",
"651 93 OFFCURVE",
"663 107 CURVE SMOOTH",
"694 143 OFFCURVE",
"718 185 OFFCURVE",
"718 222 CURVE SMOOTH",
"718 229 OFFCURVE",
"717 268 OFFCURVE",
"682 295 CURVE SMOOTH",
"664 309 OFFCURVE",
"636 320 OFFCURVE",
"609 320 CURVE SMOOTH",
"580 320 OFFCURVE",
"554 308 OFFCURVE",
"527 291 CURVE SMOOTH",
"489 267 OFFCURVE",
"455 232 OFFCURVE",
"442 218 CURVE SMOOTH",
"388 160 OFFCURVE",
"353 102 OFFCURVE",
"351 98 CURVE",
"328 100 OFFCURVE",
"301 118 OFFCURVE",
"293 146 CURVE",
"237 125 OFFCURVE",
"172 110 OFFCURVE",
"126 100 CURVE",
"125 91 OFFCURVE",
"122 66 OFFCURVE",
"114 27 CURVE",
"122 28 OFFCURVE",
"133 30 OFFCURVE",
"140 32 CURVE",
"142 21 OFFCURVE",
"144 10 OFFCURVE",
"144 -3 CURVE SMOOTH",
"144 -40 OFFCURVE",
"128 -76 OFFCURVE",
"100 -103 CURVE SMOOTH",
"54 -149 OFFCURVE",
"-69 -211 OFFCURVE",
"-120 -239 CURVE",
"-111 -252 LINE",
"-90 -246 OFFCURVE",
"-72 -244 OFFCURVE",
"-57 -244 CURVE SMOOTH",
"-35 -244 OFFCURVE",
"-3 -248 OFFCURVE",
"19 -248 CURVE SMOOTH",
"59 -248 OFFCURVE",
"80 -235 OFFCURVE",
"101 -215 CURVE SMOOTH",
"122 -195 OFFCURVE",
"142 -167 OFFCURVE",
"158 -130 CURVE SMOOTH",
"191 -55 OFFCURVE",
"188 15 OFFCURVE",
"185 41 CURVE",
"215 48 OFFCURVE",
"248 56 OFFCURVE",
"276 65 CURVE",
"283 41 OFFCURVE",
"296 26 OFFCURVE",
"324 17 CURVE",
"316 -17 LINE",
"344 -17 LINE",
"352 9 LINE",
"375 4 OFFCURVE",
"399 4 OFFCURVE",
"437 4 CURVE SMOOTH",
"469 4 OFFCURVE",
"622 2 OFFCURVE",
"663 1 CURVE SMOOTH",
"691 1 OFFCURVE",
"712 0 OFFCURVE",
"742 0 CURVE SMOOTH",
"802 0 LINE",
"802 98 LINE"
);
},
{
closed = 1;
nodes = (
"656 134 OFFCURVE",
"617 119 OFFCURVE",
"581 109 CURVE SMOOTH",
"558 103 OFFCURVE",
"531 98 OFFCURVE",
"502 98 CURVE SMOOTH",
"387 98 LINE SMOOTH",
"387 98 OFFCURVE",
"417 144 OFFCURVE",
"457 184 CURVE SMOOTH",
"495 222 OFFCURVE",
"531 246 OFFCURVE",
"572 246 CURVE SMOOTH",
"616 246 OFFCURVE",
"656 218 OFFCURVE",
"656 176 CURVE SMOOTH"
);
}
);
width = 802;
}
);
unicode = FD2B;
},
{
color = 4;
glyphname = "sad_meem-ar";
lastChange = "2015-11-08 18:59:00 +0000";
layers = (
{
layerId = "51F41761-070F-43EA-B302-C90910850260";
name = Regular;
paths = (
{
closed = 1;
nodes = (
"781 253 OFFCURVE",
"775 282 OFFCURVE",
"745 305 CURVE SMOOTH",
"726 320 OFFCURVE",
"697 332 OFFCURVE",
"672 332 CURVE SMOOTH",
"613 332 OFFCURVE",
"541 267 OFFCURVE",
"505 229 CURVE SMOOTH",
"456 177 OFFCURVE",
"423 122 OFFCURVE",
"414 110 CURVE",
"386 113 OFFCURVE",
"369 127 OFFCURVE",
"352 154 CURVE SMOOTH",
"342 169 OFFCURVE",
"335 188 OFFCURVE",
"300 188 CURVE SMOOTH",
"278 188 OFFCURVE",
"261 180 OFFCURVE",
"242 167 CURVE SMOOTH",
"226 156 OFFCURVE",
"212 144 OFFCURVE",
"196 122 CURVE SMOOTH",
"177 96 OFFCURVE",
"167 71 OFFCURVE",
"163 48 CURVE SMOOTH",
"161 35 OFFCURVE",
"160 22 OFFCURVE",
"162 8 CURVE",
"126 -8 OFFCURVE",
"109 -25 OFFCURVE",
"95 -45 CURVE",
"77 -69 OFFCURVE",
"65 -105 OFFCURVE",
"72 -155 CURVE",
"103 -342 OFFCURVE",
"108 -408 OFFCURVE",
"111 -432 CURVE",
"137 -424 LINE",
"136 -346 OFFCURVE",
"128 -276 OFFCURVE",
"117 -175 CURVE SMOOTH",
"112 -130 OFFCURVE",
"111 -125 OFFCURVE",
"105 -91 CURVE",
"130 -67 OFFCURVE",
"148 -56 OFFCURVE",
"200 -56 CURVE SMOOTH",
"242 -56 OFFCURVE",
"280 -63 OFFCURVE",
"307 -69 CURVE",
"324 -45 OFFCURVE",
"335 -23 OFFCURVE",
"343 1 CURVE",
"331 12 OFFCURVE",
"277 58 OFFCURVE",
"208 68 CURVE",
"221 92 OFFCURVE",
"249 118 OFFCURVE",
"294 118 CURVE SMOOTH",
"338 118 OFFCURVE",
"352 90 OFFCURVE",
"372 63 CURVE SMOOTH",
"391 38 OFFCURVE",
"415 15 OFFCURVE",
"472 15 CURVE SMOOTH",
"557 15 OFFCURVE",
"635 42 OFFCURVE",
"688 83 CURVE SMOOTH",
"714 103 OFFCURVE",
"740 131 OFFCURVE",
"755 156 CURVE SMOOTH",
"772 184 OFFCURVE",
"781 216 OFFCURVE",
"781 236 CURVE SMOOTH"
);
},
{
closed = 1;
nodes = (
"712 156 OFFCURVE",
"693 140 OFFCURVE",
"661 127 CURVE SMOOTH",
"637 117 OFFCURVE",
"605 109 OFFCURVE",
"565 109 CURVE SMOOTH",
"450 109 LINE",
"469 136 OFFCURVE",
"498 172 OFFCURVE",
"519 194 CURVE SMOOTH",
"559 236 OFFCURVE",
"597 257 OFFCURVE",
"633 257 CURVE SMOOTH",
"671 257 OFFCURVE",
"697 233 OFFCURVE",
"709 219 CURVE SMOOTH",
"719 207 OFFCURVE",
"723 197 OFFCURVE",
"729 176 CURVE"
);
}
);
width = 841;
}
);
unicode = FC21;
},
{
color = 4;
glyphname = "sad_meem-ar.init";
lastChange = "2015-11-08 18:59:00 +0000";
layers = (
{
layerId = "51F41761-070F-43EA-B302-C90910850260";
name = Regular;
paths = (
{
closed = 1;
nodes = (
"726 356 OFFCURVE",
"720 385 OFFCURVE",
"690 408 CURVE SMOOTH",
"671 423 OFFCURVE",
"642 435 OFFCURVE",
"617 435 CURVE SMOOTH",
"558 435 OFFCURVE",
"486 370 OFFCURVE",
"450 332 CURVE SMOOTH",
"401 280 OFFCURVE",
"368 225 OFFCURVE",
"359 213 CURVE",
"331 216 OFFCURVE",
"314 230 OFFCURVE",
"297 257 CURVE SMOOTH",
"287 272 OFFCURVE",
"280 291 OFFCURVE",
"245 291 CURVE SMOOTH",
"223 291 OFFCURVE",
"206 283 OFFCURVE",
"187 270 CURVE SMOOTH",
"171 259 OFFCURVE",
"157 247 OFFCURVE",
"141 225 CURVE SMOOTH",
"122 199 OFFCURVE",
"112 174 OFFCURVE",
"108 151 CURVE SMOOTH",
"105 135 OFFCURVE",
"105 118 OFFCURVE",
"108 100 CURVE",
"91 94 OFFCURVE",
"53 96 OFFCURVE",
"9 98 CURVE",
"-20 98 LINE SMOOTH",
"-55 98 OFFCURVE",
"-70 74 OFFCURVE",
"-70 48 CURVE SMOOTH",
"-70 16 OFFCURVE",
"-47 0 OFFCURVE",
"-20 0 CURVE SMOOTH",
"5 0 LINE SMOOTH",
"71 0 OFFCURVE",
"79 10 OFFCURVE",
"126 10 CURVE SMOOTH",
"146 10 OFFCURVE",
"184 8 OFFCURVE",
"219 -11 CURVE",
"231 18 OFFCURVE",
"236 52 OFFCURVE",
"234 84 CURVE",
"212 90 OFFCURVE",
"145 102 OFFCURVE",
"145 142 CURVE SMOOTH",
"145 169 OFFCURVE",
"175 221 OFFCURVE",
"239 221 CURVE SMOOTH",
"279 221 OFFCURVE",
"289 200 OFFCURVE",
"298 180 CURVE SMOOTH",
"306 162 OFFCURVE",
"316 147 OFFCURVE",
"331 137 CURVE SMOOTH",
"349 125 OFFCURVE",
"375 118 OFFCURVE",
"417 118 CURVE SMOOTH",
"502 118 OFFCURVE",
"580 145 OFFCURVE",
"633 186 CURVE SMOOTH",
"659 206 OFFCURVE",
"685 234 OFFCURVE",
"700 259 CURVE SMOOTH",
"717 287 OFFCURVE",
"726 319 OFFCURVE",
"726 339 CURVE SMOOTH"
);
},
{
closed = 1;
nodes = (
"657 259 OFFCURVE",
"638 243 OFFCURVE",
"606 230 CURVE SMOOTH",
"582 220 OFFCURVE",
"550 212 OFFCURVE",
"510 212 CURVE SMOOTH",
"395 212 LINE",
"414 239 OFFCURVE",
"443 275 OFFCURVE",
"464 297 CURVE SMOOTH",
"504 339 OFFCURVE",
"542 360 OFFCURVE",
"578 360 CURVE SMOOTH",
"616 360 OFFCURVE",
"642 336 OFFCURVE",
"654 322 CURVE SMOOTH",
"664 310 OFFCURVE",
"668 300 OFFCURVE",
"674 279 CURVE"
);
}
);
width = 786;
}
);
unicode = FCB3;
},
{
color = 4;
glyphname = "sad_alefMaksura-ar";
lastChange = "2015-11-08 18:59:00 +0000";
layers = (
{
layerId = "51F41761-070F-43EA-B302-C90910850260";
name = Regular;
paths = (
{
closed = 1;
nodes = (
"1034 242 OFFCURVE",
"1028 271 OFFCURVE",
"998 294 CURVE SMOOTH",
"979 309 OFFCURVE",
"950 321 OFFCURVE",
"925 321 CURVE SMOOTH",
"866 321 OFFCURVE",
"794 256 OFFCURVE",
"758 218 CURVE SMOOTH",
"710 167 OFFCURVE",
"674 110 OFFCURVE",
"667 98 CURVE",
"626 99 OFFCURVE",
"591 114 OFFCURVE",
"558 165 CURVE SMOOTH",
"542 190 OFFCURVE",
"532 205 OFFCURVE",
"505 205 CURVE SMOOTH",
"475 205 OFFCURVE",
"454 186 OFFCURVE",
"431 154 CURVE SMOOTH",
"418 136 OFFCURVE",
"397 103 OFFCURVE",
"383 66 CURVE SMOOTH",
"369 29 OFFCURVE",
"366 0 OFFCURVE",
"374 -17 CURVE SMOOTH",
"382 -34 OFFCURVE",
"406 -48 OFFCURVE",
"435 -56 CURVE SMOOTH",
"461 -63 OFFCURVE",
"494 -67 OFFCURVE",
"534 -70 CURVE",
"524 -97 OFFCURVE",
"495 -126 OFFCURVE",
"447 -145 CURVE SMOOTH",
"399 -164 OFFCURVE",
"338 -171 OFFCURVE",
"295 -171 CURVE SMOOTH",
"233 -171 OFFCURVE",
"164 -156 OFFCURVE",
"133 -116 CURVE SMOOTH",
"116 -94 OFFCURVE",
"112 -66 OFFCURVE",
"112 -36 CURVE SMOOTH",
"112 -21 OFFCURVE",
"113 -10 OFFCURVE",
"119 17 CURVE",
"100 26 LINE",
"77 -27 OFFCURVE",
"68 -83 OFFCURVE",
"70 -119 CURVE SMOOTH",
"71 -145 OFFCURVE",
"81 -193 OFFCURVE",
"117 -228 CURVE SMOOTH",
"149 -259 OFFCURVE",
"202 -283 OFFCURVE",
"283 -283 CURVE SMOOTH",
"369 -283 OFFCURVE",
"445 -256 OFFCURVE",
"498 -214 CURVE SMOOTH",
"522 -195 OFFCURVE",
"550 -165 OFFCURVE",
"566 -136 CURVE SMOOTH",
"580 -110 OFFCURVE",
"588 -84 OFFCURVE",
"588 -61 CURVE SMOOTH",
"588 -27 OFFCURVE",
"571 0 OFFCURVE",
"530 5 CURVE SMOOTH",
"494 9 OFFCURVE",
"483 10 OFFCURVE",
"452 17 CURVE SMOOTH",
"438 20 OFFCURVE",
"425 31 OFFCURVE",
"428 53 CURVE",
"429 65 OFFCURVE",
"446 115 OFFCURVE",
"492 115 CURVE SMOOTH",
"523 115 OFFCURVE",
"541 92 OFFCURVE",
"557 71 CURVE SMOOTH",
"577 44 OFFCURVE",
"595 26 OFFCURVE",
"639 14 CURVE",
"632 -17 LINE",
"660 -17 LINE",
"668 9 LINE",
"689 5 OFFCURVE",
"698 4 OFFCURVE",
"717 4 CURVE SMOOTH",
"814 4 OFFCURVE",
"888 31 OFFCURVE",
"941 72 CURVE SMOOTH",
"969 94 OFFCURVE",
"992 119 OFFCURVE",
"1008 145 CURVE SMOOTH",
"1025 173 OFFCURVE",
"1034 205 OFFCURVE",
"1034 225 CURVE SMOOTH"
);
},
{
closed = 1;
nodes = (
"965 145 OFFCURVE",
"946 129 OFFCURVE",
"914 116 CURVE SMOOTH",
"890 106 OFFCURVE",
"858 98 OFFCURVE",
"818 98 CURVE SMOOTH",
"703 98 LINE",
"722 125 OFFCURVE",
"752 162 OFFCURVE",
"772 183 CURVE SMOOTH",
"812 225 OFFCURVE",
"850 246 OFFCURVE",
"886 246 CURVE SMOOTH",
"924 246 OFFCURVE",
"950 222 OFFCURVE",
"962 208 CURVE SMOOTH",
"972 196 OFFCURVE",
"976 186 OFFCURVE",
"982 165 CURVE"
);
}
);
width = 1094;
}
);
unicode = FD05;
},
{
color = 4;
glyphname = "sad_alefMaksura-ar.fina";
lastChange = "2015-11-08 18:59:00 +0000";
layers = (
{
layerId = "51F41761-070F-43EA-B302-C90910850260";
name = Regular;
paths = (
{
closed = 1;
nodes = (
"1064 98 LINE SMOOTH",
"1018 98 OFFCURVE",
"961 80 OFFCURVE",
"942 73 CURVE",
"956 83 OFFCURVE",
"967 93 OFFCURVE",
"979 107 CURVE SMOOTH",
"1010 143 OFFCURVE",
"1034 185 OFFCURVE",
"1034 222 CURVE SMOOTH",
"1034 229 OFFCURVE",
"1033 268 OFFCURVE",
"998 295 CURVE SMOOTH",
"980 309 OFFCURVE",
"952 320 OFFCURVE",
"925 320 CURVE SMOOTH",
"896 320 OFFCURVE",
"870 308 OFFCURVE",
"843 291 CURVE SMOOTH",
"805 267 OFFCURVE",
"771 232 OFFCURVE",
"758 218 CURVE SMOOTH",
"709 165 OFFCURVE",
"670 103 OFFCURVE",
"667 98 CURVE",
"626 99 OFFCURVE",
"591 114 OFFCURVE",
"558 165 CURVE SMOOTH",
"542 190 OFFCURVE",
"532 205 OFFCURVE",
"505 205 CURVE SMOOTH",
"475 205 OFFCURVE",
"454 186 OFFCURVE",
"431 154 CURVE SMOOTH",
"418 136 OFFCURVE",
"397 103 OFFCURVE",
"383 66 CURVE SMOOTH",
"369 29 OFFCURVE",
"366 0 OFFCURVE",
"374 -17 CURVE SMOOTH",
"382 -34 OFFCURVE",
"406 -48 OFFCURVE",
"435 -56 CURVE SMOOTH",
"461 -63 OFFCURVE",
"494 -67 OFFCURVE",
"534 -70 CURVE",
"524 -97 OFFCURVE",
"495 -126 OFFCURVE",
"447 -145 CURVE SMOOTH",
"399 -164 OFFCURVE",
"338 -171 OFFCURVE",
"295 -171 CURVE SMOOTH",
"233 -171 OFFCURVE",
"164 -156 OFFCURVE",
"133 -116 CURVE SMOOTH",
"116 -94 OFFCURVE",
"112 -66 OFFCURVE",
"112 -36 CURVE SMOOTH",
"112 -21 OFFCURVE",
"113 -10 OFFCURVE",
"119 17 CURVE",
"100 26 LINE",
"77 -27 OFFCURVE",
"68 -83 OFFCURVE",
"70 -119 CURVE SMOOTH",
"71 -145 OFFCURVE",
"81 -193 OFFCURVE",
"117 -228 CURVE SMOOTH",
"149 -259 OFFCURVE",
"202 -283 OFFCURVE",
"283 -283 CURVE SMOOTH",
"369 -283 OFFCURVE",
"445 -256 OFFCURVE",
"498 -214 CURVE SMOOTH",
"522 -195 OFFCURVE",
"550 -165 OFFCURVE",
"566 -136 CURVE SMOOTH",
"580 -110 OFFCURVE",
"588 -84 OFFCURVE",
"588 -61 CURVE SMOOTH",
"588 -27 OFFCURVE",
"571 0 OFFCURVE",
"530 5 CURVE SMOOTH",
"494 9 OFFCURVE",
"483 10 OFFCURVE",
"452 17 CURVE SMOOTH",
"438 20 OFFCURVE",
"425 31 OFFCURVE",
"428 53 CURVE",
"429 65 OFFCURVE",
"446 115 OFFCURVE",
"492 115 CURVE SMOOTH",
"523 115 OFFCURVE",
"541 92 OFFCURVE",
"557 71 CURVE SMOOTH",
"575 47 OFFCURVE",
"592 26 OFFCURVE",
"639 14 CURVE",
"632 -17 LINE",
"660 -17 LINE",
"668 9 LINE",
"691 4 OFFCURVE",
"715 4 OFFCURVE",
"753 4 CURVE SMOOTH",
"785 4 OFFCURVE",
"938 2 OFFCURVE",
"979 1 CURVE SMOOTH",
"1007 1 OFFCURVE",
"1028 0 OFFCURVE",
"1058 0 CURVE SMOOTH",
"1118 0 LINE",
"1118 98 LINE"
);
},
{
closed = 1;
nodes = (
"972 134 OFFCURVE",
"933 119 OFFCURVE",
"897 109 CURVE SMOOTH",
"874 103 OFFCURVE",
"847 98 OFFCURVE",
"818 98 CURVE SMOOTH",
"703 98 LINE SMOOTH",
"703 98 OFFCURVE",
"733 144 OFFCURVE",
"773 184 CURVE SMOOTH",
"811 222 OFFCURVE",
"847 246 OFFCURVE",
"888 246 CURVE SMOOTH",
"932 246 OFFCURVE",
"972 218 OFFCURVE",
"972 176 CURVE SMOOTH"
);
}
);
width = 1118;
}
);
unicode = FD21;
},
{
color = 4;
glyphname = "tah_alefMaksura-ar";
lastChange = "2015-11-08 18:59:00 +0000";
layers = (
{
layerId = "51F41761-070F-43EA-B302-C90910850260";
name = Regular;
paths = (
{
closed = 1;
nodes = (
"857 346 OFFCURVE",
"835 353 OFFCURVE",
"811 353 CURVE SMOOTH",
"778 353 OFFCURVE",
"743 338 OFFCURVE",
"710 314 CURVE SMOOTH",
"680 292 OFFCURVE",
"651 264 OFFCURVE",
"627 233 CURVE",
"637 315 OFFCURVE",
"633 345 OFFCURVE",
"620 442 CURVE SMOOTH",
"616 469 OFFCURVE",
"614 500 OFFCURVE",
"647 529 CURVE",
"618 560 OFFCURVE",
"598 596 OFFCURVE",
"588 615 CURVE",
"539 539 LINE",
"543 530 OFFCURVE",
"555 501 OFFCURVE",
"564 466 CURVE SMOOTH",
"580 404 OFFCURVE",
"591 302 OFFCURVE",
"598 199 CURVE",
"576 169 OFFCURVE",
"553 124 OFFCURVE",
"548 107 CURVE",
"489 86 OFFCURVE",
"464 76 OFFCURVE",
"451 63 CURVE SMOOTH",
"440 52 OFFCURVE",
"427 28 OFFCURVE",
"420 -12 CURVE",
"432 -13 OFFCURVE",
"454 -17 OFFCURVE",
"473 -22 CURVE SMOOTH",
"519 -34 OFFCURVE",
"543 -51 OFFCURVE",
"543 -69 CURVE SMOOTH",
"543 -95 OFFCURVE",
"494 -121 OFFCURVE",
"464 -134 CURVE SMOOTH",
"432 -148 OFFCURVE",
"373 -170 OFFCURVE",
"290 -170 CURVE SMOOTH",
"212 -170 OFFCURVE",
"160 -151 OFFCURVE",
"132 -116 CURVE SMOOTH",
"105 -83 OFFCURVE",
"109 -41 OFFCURVE",
"119 17 CURVE",
"100 24 LINE",
"84 -17 OFFCURVE",
"74 -55 OFFCURVE",
"71 -89 CURVE SMOOTH",
"68 -123 OFFCURVE",
"72 -151 OFFCURVE",
"83 -177 CURVE SMOOTH",
"98 -213 OFFCURVE",
"124 -239 OFFCURVE",
"160 -257 CURVE SMOOTH",
"196 -275 OFFCURVE",
"237 -283 OFFCURVE",
"282 -283 CURVE SMOOTH",
"343 -283 OFFCURVE",
"404 -268 OFFCURVE",
"457 -240 CURVE SMOOTH",
"489 -223 OFFCURVE",
"527 -195 OFFCURVE",
"550 -168 CURVE SMOOTH",
"573 -141 OFFCURVE",
"590 -106 OFFCURVE",
"590 -70 CURVE SMOOTH",
"590 -10 OFFCURVE",
"545 18 OFFCURVE",
"495 27 CURVE",
"735 91 OFFCURVE",
"816 119 OFFCURVE",
"858 149 CURVE SMOOTH",
"908 185 OFFCURVE",
"920 233 OFFCURVE",
"920 253 CURVE SMOOTH",
"920 259 OFFCURVE",
"913 303 OFFCURVE",
"878 330 CURVE SMOOTH"
);
},
{
closed = 1;
nodes = (
"681 144 OFFCURVE",
"610 124 OFFCURVE",
"597 120 CURVE SMOOTH",
"597 120 OFFCURVE",
"611 156 OFFCURVE",
"642 196 CURVE SMOOTH",
"674 237 OFFCURVE",
"719 276 OFFCURVE",
"778 276 CURVE SMOOTH",
"823 276 OFFCURVE",
"849 254 OFFCURVE",
"865 220 CURVE",
"835 192 OFFCURVE",
"823 188 OFFCURVE",
"762 169 CURVE SMOOTH"
);
}
);
width = 980;
}
);
unicode = FCF5;
},
{
color = 4;
glyphname = "ain_meem-ar";
lastChange = "2015-11-08 18:59:00 +0000";
layers = (
{
layerId = "51F41761-070F-43EA-B302-C90910850260";
name = Regular;
paths = (
{
closed = 1;
nodes = (
"504 330 OFFCURVE",
"448 315 OFFCURVE",
"378 293 CURVE",
"329 319 OFFCURVE",
"297 349 OFFCURVE",
"291 403 CURVE",
"323 426 OFFCURVE",
"352 438 OFFCURVE",
"397 438 CURVE SMOOTH",
"440 438 OFFCURVE",
"472 427 OFFCURVE",
"484 422 CURVE",
"503 440 LINE",
"491 457 OFFCURVE",
"442 503 OFFCURVE",
"391 503 CURVE SMOOTH",
"360 503 OFFCURVE",
"323 486 OFFCURVE",
"293 459 CURVE SMOOTH",
"260 429 OFFCURVE",
"240 390 OFFCURVE",
"240 347 CURVE SMOOTH",
"240 308 OFFCURVE",
"256 286 OFFCURVE",
"292 257 CURVE",
"240 226 OFFCURVE",
"201 187 OFFCURVE",
"184 157 CURVE SMOOTH",
"174 138 OFFCURVE",
"165 119 OFFCURVE",
"162 100 CURVE",
"124 85 OFFCURVE",
"102 75 OFFCURVE",
"84 39 CURVE SMOOTH",
"71 14 OFFCURVE",
"66 -5 OFFCURVE",
"73 -60 CURVE",
"82 -132 OFFCURVE",
"87 -167 OFFCURVE",
"92 -196 CURVE SMOOTH",
"104 -279 OFFCURVE",
"109 -312 OFFCURVE",
"112 -338 CURVE",
"138 -330 LINE",
"136 -257 OFFCURVE",
"132 -212 OFFCURVE",
"126 -157 CURVE SMOOTH",
"124 -132 OFFCURVE",
"112 -35 OFFCURVE",
"105 10 CURVE",
"113 28 OFFCURVE",
"164 39 OFFCURVE",
"221 39 CURVE SMOOTH",
"257 39 OFFCURVE",
"283 33 OFFCURVE",
"307 26 CURVE",
"328 55 OFFCURVE",
"337 77 OFFCURVE",
"343 95 CURVE",
"303 130 OFFCURVE",
"265 143 OFFCURVE",
"242 148 CURVE",
"292 219 OFFCURVE",
"446 256 OFFCURVE",
"515 274 CURVE",
"526 295 OFFCURVE",
"531 309 OFFCURVE",
"540 335 CURVE"
);
}
);
width = 600;
}
);
unicode = FC2A;
},
{
color = 4;
glyphname = "ain_meem-ar.init";
lastChange = "2015-11-08 18:59:00 +0000";
layers = (
{
layerId = "51F41761-070F-43EA-B302-C90910850260";
name = Regular;
paths = (
{
closed = 1;
nodes = (
"440 308 OFFCURVE",
"384 293 OFFCURVE",
"314 271 CURVE",
"265 297 OFFCURVE",
"233 327 OFFCURVE",
"227 381 CURVE",
"259 404 OFFCURVE",
"288 416 OFFCURVE",
"333 416 CURVE SMOOTH",
"376 416 OFFCURVE",
"408 405 OFFCURVE",
"420 400 CURVE",
"439 418 LINE",
"427 435 OFFCURVE",
"378 481 OFFCURVE",
"327 481 CURVE SMOOTH",
"296 481 OFFCURVE",
"259 464 OFFCURVE",
"229 437 CURVE SMOOTH",
"196 407 OFFCURVE",
"176 368 OFFCURVE",
"176 325 CURVE SMOOTH",
"176 286 OFFCURVE",
"192 264 OFFCURVE",
"228 235 CURVE",
"196 225 OFFCURVE",
"142 196 OFFCURVE",
"102 140 CURVE",
"87 121 OFFCURVE",
"76 98 OFFCURVE",
"43 98 CURVE SMOOTH",
"-22 98 LINE SMOOTH",
"-47 98 OFFCURVE",
"-70 81 OFFCURVE",
"-70 49 CURVE SMOOTH",
"-70 20 OFFCURVE",
"-51 0 OFFCURVE",
"-22 0 CURVE SMOOTH",
"9 0 LINE SMOOTH",
"50 0 OFFCURVE",
"76 10 OFFCURVE",
"90 48 CURVE",
"126 -2 OFFCURVE",
"229 -18 OFFCURVE",
"244 -12 CURVE",
"261 0 OFFCURVE",
"288 45 OFFCURVE",
"287 83 CURVE",
"287 120 OFFCURVE",
"271 159 OFFCURVE",
"240 179 CURVE",
"302 212 OFFCURVE",
"372 231 OFFCURVE",
"451 252 CURVE",
"462 273 OFFCURVE",
"467 287 OFFCURVE",
"476 313 CURVE"
);
},
{
closed = 1;
nodes = (
"186 71 OFFCURVE",
"165 81 OFFCURVE",
"129 102 CURVE",
"136 118 OFFCURVE",
"155 142 OFFCURVE",
"182 142 CURVE SMOOTH",
"216 142 OFFCURVE",
"244 106 OFFCURVE",
"233 60 CURVE"
);
}
);
width = 536;
}
);
unicode = FCBB;
},
{
color = 4;
glyphname = "ain_alefMaksura-ar";
lastChange = "2015-11-08 18:59:00 +0000";
layers = (
{
layerId = "51F41761-070F-43EA-B302-C90910850260";
name = Regular;
paths = (
{
closed = 1;
nodes = (
"639 380 OFFCURVE",
"602 363 OFFCURVE",
"572 336 CURVE SMOOTH",
"542 308 OFFCURVE",
"519 270 OFFCURVE",
"519 227 CURVE SMOOTH",
"519 184 OFFCURVE",
"535 163 OFFCURVE",
"571 134 CURVE SMOOTH",
"516 110 OFFCURVE",
"461 84 OFFCURVE",
"447 67 CURVE SMOOTH",
"436 54 OFFCURVE",
"426 29 OFFCURVE",
"420 -6 CURVE",
"500 -17 OFFCURVE",
"543 -49 OFFCURVE",
"543 -70 CURVE SMOOTH",
"543 -93 OFFCURVE",
"491 -120 OFFCURVE",
"463 -132 CURVE SMOOTH",
"440 -142 OFFCURVE",
"371 -169 OFFCURVE",
"289 -169 CURVE SMOOTH",
"214 -169 OFFCURVE",
"158 -146 OFFCURVE",
"132 -114 CURVE SMOOTH",
"105 -81 OFFCURVE",
"109 -39 OFFCURVE",
"119 19 CURVE",
"100 26 LINE",
"84 -15 OFFCURVE",
"74 -53 OFFCURVE",
"71 -87 CURVE SMOOTH",
"68 -121 OFFCURVE",
"72 -149 OFFCURVE",
"83 -175 CURVE SMOOTH",
"98 -211 OFFCURVE",
"124 -237 OFFCURVE",
"160 -255 CURVE SMOOTH",
"196 -273 OFFCURVE",
"237 -281 OFFCURVE",
"282 -281 CURVE SMOOTH",
"343 -281 OFFCURVE",
"404 -266 OFFCURVE",
"457 -238 CURVE SMOOTH",
"491 -220 OFFCURVE",
"524 -196 OFFCURVE",
"550 -165 CURVE SMOOTH",
"574 -137 OFFCURVE",
"590 -103 OFFCURVE",
"590 -65 CURVE SMOOTH",
"590 5 OFFCURVE",
"534 25 OFFCURVE",
"490 37 CURVE",
"564 75 OFFCURVE",
"684 123 OFFCURVE",
"794 151 CURVE",
"805 172 OFFCURVE",
"810 186 OFFCURVE",
"819 212 CURVE",
"783 207 OFFCURVE",
"727 192 OFFCURVE",
"657 170 CURVE SMOOTH",
"608 196 OFFCURVE",
"576 226 OFFCURVE",
"570 280 CURVE",
"602 303 OFFCURVE",
"630 315 OFFCURVE",
"677 315 CURVE SMOOTH",
"718 315 OFFCURVE",
"751 304 OFFCURVE",
"763 299 CURVE",
"782 317 LINE",
"770 334 OFFCURVE",
"721 380 OFFCURVE",
"670 380 CURVE SMOOTH"
);
}
);
width = 879;
}
);
rightKerningGroup = "30";
unicode = FCF7;
},
{
color = 4;
glyphname = "ain_alefMaksura-ar.fina";
lastChange = "2015-11-08 18:59:00 +0000";
layers = (
{
layerId = "51F41761-070F-43EA-B302-C90910850260";
name = Regular;
paths = (
{
closed = 1;
nodes = (
"707 98 LINE SMOOTH",
"682 98 OFFCURVE",
"668 104 OFFCURVE",
"651 118 CURVE",
"651 118 OFFCURVE",
"718 159 OFFCURVE",
"718 202 CURVE SMOOTH",
"718 247 OFFCURVE",
"659 263 OFFCURVE",
"604 263 CURVE SMOOTH",
"559 263 OFFCURVE",
"519 242 OFFCURVE",
"509 237 CURVE",
"501 216 OFFCURVE",
"495 191 OFFCURVE",
"492 165 CURVE",
"526 159 OFFCURVE",
"549 143 OFFCURVE",
"569 115 CURVE",
"554 102 OFFCURVE",
"537 92 OFFCURVE",
"516 83 CURVE SMOOTH",
"498 74 OFFCURVE",
"476 66 OFFCURVE",
"451 57 CURVE SMOOTH",
"433 51 OFFCURVE",
"434 34 OFFCURVE",
"426 -3 CURVE",
"443 -6 OFFCURVE",
"470 -14 OFFCURVE",
"487 -20 CURVE SMOOTH",
"525 -34 OFFCURVE",
"543 -53 OFFCURVE",
"543 -70 CURVE SMOOTH",
"543 -95 OFFCURVE",
"504 -116 OFFCURVE",
"464 -133 CURVE",
"432 -148 OFFCURVE",
"369 -169 OFFCURVE",
"289 -169 CURVE SMOOTH",
"224 -169 OFFCURVE",
"164 -155 OFFCURVE",
"132 -115 CURVE SMOOTH",
"105 -82 OFFCURVE",
"109 -40 OFFCURVE",
"119 18 CURVE",
"100 25 LINE",
"91 2 OFFCURVE",
"76 -37 OFFCURVE",
"71 -81 CURVE SMOOTH",
"68 -112 OFFCURVE",
"70 -146 OFFCURVE",
"83 -177 CURVE SMOOTH",
"96 -208 OFFCURVE",
"120 -236 OFFCURVE",
"159 -256 CURVE SMOOTH",
"192 -273 OFFCURVE",
"235 -282 OFFCURVE",
"281 -282 CURVE SMOOTH",
"341 -282 OFFCURVE",
"404 -267 OFFCURVE",
"458 -239 CURVE SMOOTH",
"510 -212 OFFCURVE",
"546 -175 OFFCURVE",
"567 -137 CURVE SMOOTH",
"583 -108 OFFCURVE",
"589 -81 OFFCURVE",
"589 -61 CURVE SMOOTH",
"589 -11 OFFCURVE",
"553 14 OFFCURVE",
"517 28 CURVE",
"549 42 OFFCURVE",
"574 57 OFFCURVE",
"596 74 CURVE",
"604 51 OFFCURVE",
"619 34 OFFCURVE",
"637 21 CURVE SMOOTH",
"659 7 OFFCURVE",
"685 0 OFFCURVE",
"711 0 CURVE SMOOTH",
"785 0 LINE",
"785 98 LINE"
);
}
);
width = 785;
}
);
unicode = FD13;
},
{
color = 4;
glyphname = "dotlessfeh_alefMaksura-ar";
lastChange = "2015-11-08 18:59:00 +0000";
layers = (
{
layerId = "51F41761-070F-43EA-B302-C90910850260";
name = Regular;
paths = (
{
closed = 1;
nodes = (
"526 364 OFFCURVE",
"435 364 CURVE SMOOTH",
"396 364 OFFCURVE",
"372 331 OFFCURVE",
"361 311 CURVE SMOOTH",
"345 282 OFFCURVE",
"334 243 OFFCURVE",
"334 209 CURVE SMOOTH",
"334 179 OFFCURVE",
"343 154 OFFCURVE",
"361 138 CURVE SMOOTH",
"373 127 OFFCURVE",
"391 117 OFFCURVE",
"426 117 CURVE SMOOTH",
"437 117 OFFCURVE",
"478 118 OFFCURVE",
"503 143 CURVE",
"507 114 OFFCURVE",
"495 90 OFFCURVE",
"471 71 CURVE SMOOTH",
"453 56 OFFCURVE",
"428 47 OFFCURVE",
"398 47 CURVE SMOOTH",
"393 47 OFFCURVE",
"392 21 OFFCURVE",
"389 -4 CURVE",
"409 -6 OFFCURVE",
"443 -12 OFFCURVE",
"473 -20 CURVE SMOOTH",
"524 -34 OFFCURVE",
"543 -50 OFFCURVE",
"543 -67 CURVE SMOOTH",
"543 -93 OFFCURVE",
"494 -119 OFFCURVE",
"464 -132 CURVE SMOOTH",
"432 -146 OFFCURVE",
"373 -168 OFFCURVE",
"290 -168 CURVE SMOOTH",
"212 -168 OFFCURVE",
"160 -149 OFFCURVE",
"132 -114 CURVE SMOOTH",
"105 -81 OFFCURVE",
"109 -39 OFFCURVE",
"119 19 CURVE",
"100 26 LINE",
"84 -15 OFFCURVE",
"74 -53 OFFCURVE",
"71 -87 CURVE SMOOTH",
"68 -121 OFFCURVE",
"72 -149 OFFCURVE",
"83 -175 CURVE SMOOTH",
"98 -211 OFFCURVE",
"124 -237 OFFCURVE",
"160 -255 CURVE SMOOTH",
"196 -273 OFFCURVE",
"237 -281 OFFCURVE",
"282 -281 CURVE SMOOTH",
"343 -281 OFFCURVE",
"404 -266 OFFCURVE",
"457 -238 CURVE SMOOTH",
"489 -221 OFFCURVE",
"527 -193 OFFCURVE",
"550 -166 CURVE SMOOTH",
"573 -139 OFFCURVE",
"590 -104 OFFCURVE",
"590 -68 CURVE SMOOTH",
"590 -13 OFFCURVE",
"551 16 OFFCURVE",
"506 27 CURVE",
"520 39 OFFCURVE",
"531 60 OFFCURVE",
"538 86 CURVE SMOOTH",
"565 188 OFFCURVE"
);
},
{
closed = 1;
nodes = (
"482 208 OFFCURVE",
"462 191 OFFCURVE",
"426 191 CURVE SMOOTH",
"371 191 OFFCURVE",
"366 231 OFFCURVE",
"366 241 CURVE SMOOTH",
"366 257 OFFCURVE",
"378 297 OFFCURVE",
"420 297 CURVE SMOOTH",
"457 297 OFFCURVE",
"479 265 OFFCURVE",
"489 216 CURVE"
);
}
);
width = 650;
}
);
},
{
color = 4;
glyphname = "dotlessfeh_alefMaksura-ar.fina";
lastChange = "2015-11-08 18:59:00 +0000";
layers = (
{
layerId = "51F41761-070F-43EA-B302-C90910850260";
name = Regular;
paths = (
{
closed = 1;
nodes = (
"655 98 LINE",
"689 114 OFFCURVE",
"704 155 OFFCURVE",
"704 195 CURVE",
"703 245 OFFCURVE",
"676 295 OFFCURVE",
"630 295 CURVE SMOOTH",
"616 295 OFFCURVE",
"597 289 OFFCURVE",
"577 274 CURVE SMOOTH",
"549 252 OFFCURVE",
"519 212 OFFCURVE",
"515 173 CURVE SMOOTH",
"511 142 OFFCURVE",
"516 113 OFFCURVE",
"529 87 CURVE",
"517 81 OFFCURVE",
"504 74 OFFCURVE",
"492 67 CURVE SMOOTH",
"474 57 OFFCURVE",
"458 47 OFFCURVE",
"450 41 CURVE SMOOTH",
"444 36 OFFCURVE",
"426 9 OFFCURVE",
"421 -35 CURVE",
"438 -38 OFFCURVE",
"464 -44 OFFCURVE",
"487 -52 CURVE SMOOTH",
"524 -66 OFFCURVE",
"543 -83 OFFCURVE",
"543 -104 CURVE SMOOTH",
"543 -128 OFFCURVE",
"495 -152 OFFCURVE",
"464 -165 CURVE",
"432 -180 OFFCURVE",
"367 -201 OFFCURVE",
"292 -201 CURVE SMOOTH",
"217 -201 OFFCURVE",
"163 -185 OFFCURVE",
"132 -147 CURVE SMOOTH",
"105 -114 OFFCURVE",
"109 -72 OFFCURVE",
"119 -14 CURVE",
"100 -7 LINE",
"85 -44 OFFCURVE",
"74 -83 OFFCURVE",
"71 -120 CURVE SMOOTH",
"68 -153 OFFCURVE",
"72 -182 OFFCURVE",
"83 -208 CURVE SMOOTH",
"97 -243 OFFCURVE",
"123 -270 OFFCURVE",
"159 -288 CURVE SMOOTH",
"192 -305 OFFCURVE",
"234 -314 OFFCURVE",
"283 -314 CURVE SMOOTH",
"342 -314 OFFCURVE",
"404 -299 OFFCURVE",
"457 -271 CURVE SMOOTH",
"508 -244 OFFCURVE",
"547 -208 OFFCURVE",
"567 -170 CURVE SMOOTH",
"581 -143 OFFCURVE",
"589 -116 OFFCURVE",
"589 -92 CURVE SMOOTH",
"589 -28 OFFCURVE",
"526 -5 OFFCURVE",
"486 6 CURVE",
"507 19 OFFCURVE",
"542 39 OFFCURVE",
"560 47 CURVE",
"591 18 OFFCURVE",
"639 0 OFFCURVE",
"698 0 CURVE SMOOTH",
"797 0 LINE",
"797 98 LINE"
);
},
{
closed = 1;
nodes = (
"671 155 OFFCURVE",
"653 144 OFFCURVE",
"634 137 CURVE SMOOTH",
"621 132 OFFCURVE",
"607 129 OFFCURVE",
"597 127 CURVE SMOOTH",
"571 123 OFFCURVE",
"557 136 OFFCURVE",
"550 150 CURVE SMOOTH",
"543 164 OFFCURVE",
"543 179 OFFCURVE",
"543 179 CURVE SMOOTH",
"543 179 OFFCURVE",
"553 194 OFFCURVE",
"567 207 CURVE SMOOTH",
"578 217 OFFCURVE",
"592 226 OFFCURVE",
"607 224 CURVE SMOOTH",
"620 222 OFFCURVE",
"635 214 OFFCURVE",
"646 203 CURVE SMOOTH",
"661 190 OFFCURVE",
"671 175 OFFCURVE",
"671 166 CURVE SMOOTH"
);
}
);
width = 797;
}
);
},
